<svg id="svg" version="1.1" viewBox="0 0 512 512" x="0px" y="0px" width="64" height="64" xmlns="http://www.w3.org/2000/svg" xmlns:xlink="http://www.w3.org/1999/xlink" style="display: block;"><g id="svgg"><path id="path0" d="M195.563 102.585 C 188.778 103.698,186.130 104.578,184.194 106.363 C 183.217 107.263,182.224 108.000,181.987 108.000 C 180.837 108.000,176.560 111.556,173.554 115.013 C 168.717 120.574,168.824 120.416,168.150 123.017 C 167.811 124.328,166.810 126.930,165.927 128.800 C 163.320 134.321,163.255 146.088,165.812 149.856 C 166.368 150.675,167.461 153.372,168.241 155.850 C 169.507 159.870,169.803 160.441,170.983 161.137 C 171.760 161.596,172.777 162.796,173.452 164.052 C 174.329 165.682,175.049 166.425,176.497 167.193 C 177.541 167.747,178.937 168.861,179.601 169.669 C 180.422 170.670,181.473 171.359,182.896 171.832 C 185.660 172.750,188.698 174.201,190.289 175.363 C 194.352 178.333,211.123 178.033,214.816 174.925 C 215.860 174.046,217.044 173.492,222.714 171.230 C 223.770 170.808,224.800 169.998,225.399 169.116 C 225.933 168.329,227.173 167.297,228.153 166.823 C 230.265 165.800,230.634 165.396,231.849 162.773 C 232.402 161.579,233.250 160.505,233.959 160.097 C 235.168 159.403,236.797 155.961,237.412 152.800 C 237.779 150.918,239.527 144.842,239.855 144.311 C 240.748 142.866,240.679 137.836,239.719 134.459 C 239.179 132.557,238.144 128.677,237.420 125.839 C 236.158 120.894,236.033 120.619,234.439 119.296 C 233.525 118.535,232.490 117.361,232.141 116.685 C 230.996 114.472,225.446 109.299,223.105 108.264 C 221.916 107.737,220.566 106.829,220.106 106.244 C 217.802 103.314,203.822 101.230,195.563 102.585 M120.350 195.554 C 119.171 197.053,119.435 197.739,121.755 199.208 C 123.039 200.021,124.323 201.257,124.933 202.267 C 125.549 203.286,126.592 204.286,127.547 204.773 C 128.421 205.219,129.646 206.339,130.268 207.262 C 130.891 208.184,132.183 209.493,133.139 210.170 C 134.096 210.846,135.361 212.115,135.951 212.988 C 136.540 213.862,137.720 215.050,138.571 215.629 C 139.423 216.207,140.588 217.368,141.160 218.208 C 141.732 219.048,142.983 220.290,143.939 220.968 C 144.896 221.646,146.161 222.915,146.751 223.788 C 147.340 224.662,148.520 225.850,149.371 226.429 C 150.223 227.007,151.388 228.168,151.960 229.008 C 152.532 229.848,153.783 231.090,154.739 231.768 C 155.696 232.446,156.963 233.718,157.555 234.596 C 158.148 235.473,159.400 236.706,160.337 237.336 C 161.274 237.965,162.483 239.181,163.023 240.037 C 163.564 240.893,164.682 242.021,165.509 242.543 C 167.121 243.560,167.920 244.387,168.590 245.731 C 168.822 246.196,169.639 246.970,170.406 247.452 C 172.155 248.552,173.039 249.433,174.136 251.168 C 174.611 251.920,175.720 252.931,176.600 253.414 C 177.480 253.898,178.560 254.889,179.000 255.617 C 179.440 256.345,180.582 257.674,181.538 258.570 C 184.525 261.372,184.400 260.491,184.400 278.721 L 184.400 295.082 185.316 296.441 L 186.232 297.800 199.882 297.905 L 213.533 298.010 214.799 296.505 L 216.065 295.000 215.974 280.400 C 215.845 259.618,215.639 261.786,217.948 259.624 C 219.020 258.621,220.370 257.039,220.948 256.108 C 221.548 255.144,222.656 254.082,223.527 253.637 C 225.209 252.779,225.777 252.203,226.775 250.343 C 227.143 249.657,228.148 248.701,229.008 248.220 C 229.868 247.738,231.132 246.547,231.816 245.572 C 232.501 244.597,233.821 243.287,234.751 242.660 C 235.680 242.033,236.881 240.822,237.419 239.970 C 237.957 239.118,238.893 238.113,239.499 237.737 C 241.125 236.729,242.800 235.119,242.800 234.565 C 242.800 234.297,243.444 233.566,244.231 232.939 C 245.018 232.313,246.254 231.192,246.979 230.448 C 247.704 229.705,248.838 228.558,249.499 227.899 C 250.160 227.240,251.422 225.982,252.303 225.103 C 254.322 223.090,255.490 221.922,257.503 219.903 C 259.374 218.026,260.872 216.528,263.154 214.250 C 264.063 213.343,265.240 212.150,265.769 211.600 C 266.298 211.050,267.308 210.163,268.014 209.629 C 268.720 209.095,269.628 208.105,270.030 207.429 C 270.433 206.753,271.536 205.646,272.481 204.968 C 273.427 204.290,274.666 203.051,275.236 202.214 C 275.806 201.377,277.235 200.041,278.411 199.246 C 280.971 197.516,281.110 197.201,279.919 195.834 L 279.000 194.780 200.050 194.690 L 121.101 194.600 120.350 195.554 " stroke="none" fill="#ffffff" fill-rule="evenodd"></path><path id="path1" d="M148.901 1.400 C 148.905 2.280,148.987 2.593,149.083 2.095 C 149.179 1.598,149.175 0.878,149.075 0.495 C 148.975 0.113,148.896 0.520,148.901 1.400 M20.229 95.829 C 19.277 96.780,19.476 97.028,20.500 96.166 C 20.995 95.750,21.475 95.362,21.567 95.304 C 21.658 95.247,21.536 95.200,21.295 95.200 C 21.054 95.200,20.574 95.483,20.229 95.829 M9.377 117.367 C 8.950 117.679,8.691 118.024,8.801 118.133 C 8.910 118.242,9.425 117.987,9.944 117.566 C 11.031 116.685,10.543 116.515,9.377 117.367 M0.705 251.083 C 1.202 251.179,1.922 251.175,2.305 251.075 C 2.687 250.975,2.280 250.896,1.400 250.901 C 0.520 250.905,0.207 250.987,0.705 251.083 M351.714 341.080 C 351.227 341.586,350.974 342.000,351.152 342.000 C 351.542 342.000,352.998 340.445,352.764 340.277 C 352.674 340.213,352.201 340.574,351.714 341.080 M346.914 347.042 C 346.427 347.569,346.189 348.000,346.386 348.000 C 346.856 348.000,348.000 346.845,348.000 346.371 C 348.000 345.888,347.958 345.913,346.914 347.042 M342.446 350.318 C 342.421 350.823,341.958 351.678,341.418 352.218 C 340.878 352.758,340.023 353.221,339.518 353.246 C 338.959 353.275,338.847 353.359,339.232 353.463 C 339.579 353.556,340.347 353.448,340.939 353.223 C 342.055 352.799,342.957 351.129,342.663 350.032 C 342.559 349.647,342.475 349.759,342.446 350.318 " stroke="none" fill="#ff0000" fill-rule="evenodd"></path><path id="path2" d="M150.000 1.400 L 150.000 2.800 145.900 2.837 C 143.645 2.857,141.026 2.843,140.079 2.806 C 139.132 2.768,138.097 2.953,137.779 3.217 C 137.327 3.593,137.200 3.590,137.200 3.202 C 137.200 2.865,136.849 2.790,136.100 2.969 C 135.495 3.114,134.775 3.255,134.500 3.283 C 134.225 3.311,134.000 3.494,134.000 3.690 C 134.000 3.887,133.820 3.936,133.600 3.800 C 133.380 3.664,133.187 3.608,133.172 3.676 C 133.156 3.744,133.051 4.700,132.937 5.800 C 132.823 6.900,132.693 7.839,132.646 7.886 C 132.547 7.986,125.361 8.406,122.896 8.455 C 121.959 8.474,121.104 8.632,120.996 8.807 C 120.888 8.982,120.440 9.031,120.000 8.916 C 118.843 8.613,117.075 9.881,117.325 10.835 C 117.442 11.282,117.360 11.499,117.128 11.356 C 116.890 11.209,116.785 11.570,116.865 12.255 L 117.000 13.400 113.000 13.672 C 110.800 13.821,108.550 14.023,108.000 14.121 C 107.450 14.218,106.872 14.321,106.715 14.349 C 106.309 14.422,105.509 17.585,105.743 18.194 C 105.956 18.751,102.817 19.374,100.540 19.227 C 99.848 19.182,99.167 19.330,99.028 19.555 C 98.888 19.781,98.509 19.863,98.184 19.739 C 97.358 19.422,95.486 20.726,95.756 21.430 C 95.876 21.743,95.789 22.000,95.562 22.000 C 95.335 22.000,95.182 22.315,95.221 22.700 C 95.375 24.219,95.190 24.361,92.900 24.480 C 91.248 24.566,90.631 24.749,90.710 25.130 C 90.770 25.421,90.644 25.551,90.430 25.419 C 90.048 25.183,89.138 26.459,89.242 27.084 C 89.646 29.506,88.554 30.067,83.434 30.067 C 82.428 30.067,81.509 30.224,81.390 30.416 C 81.271 30.608,80.924 30.669,80.617 30.551 C 80.008 30.317,78.705 32.000,78.822 32.868 C 79.102 34.924,78.866 35.200,76.824 35.200 C 75.737 35.200,74.734 35.383,74.596 35.607 C 74.458 35.830,74.196 35.921,74.014 35.809 C 73.467 35.471,73.227 36.664,73.731 37.210 C 74.090 37.599,74.088 37.655,73.723 37.450 C 73.394 37.264,73.209 37.710,73.123 38.891 L 73.000 40.600 70.827 40.723 C 68.200 40.873,67.630 41.471,67.613 44.100 L 67.600 46.000 65.800 46.050 C 64.810 46.078,63.820 46.145,63.600 46.200 C 63.380 46.255,63.029 46.323,62.819 46.350 C 62.610 46.378,62.385 47.525,62.319 48.900 L 62.200 51.400 59.810 51.523 C 57.029 51.665,56.814 51.892,56.806 54.700 L 56.800 56.800 54.700 56.806 C 51.892 56.814,51.665 57.029,51.523 59.810 L 51.400 62.200 48.900 62.319 C 47.525 62.385,46.377 62.610,46.350 62.819 C 46.323 63.029,46.255 63.380,46.200 63.600 C 46.145 63.820,46.078 64.810,46.050 65.800 L 46.000 67.600 44.100 67.613 C 41.471 67.630,40.873 68.200,40.723 70.827 L 40.600 73.000 38.647 73.124 C 35.878 73.300,35.319 74.048,35.228 77.700 C 35.207 78.524,34.999 78.800,34.400 78.800 C 33.960 78.800,33.600 78.991,33.600 79.224 C 33.600 79.457,33.418 79.535,33.196 79.398 C 32.148 78.750,30.117 80.842,30.442 82.235 C 30.489 82.436,30.424 82.870,30.297 83.200 C 30.171 83.530,29.962 84.955,29.833 86.368 C 29.553 89.430,29.795 89.129,27.438 89.349 C 24.674 89.607,24.509 89.865,24.433 94.045 C 24.402 95.783,24.343 95.878,23.413 95.700 C 22.025 95.435,19.835 97.624,20.100 99.011 C 20.203 99.552,20.066 100.179,19.795 100.404 C 19.524 100.629,19.181 101.885,19.032 103.195 C 18.739 105.791,18.543 106.042,16.713 106.169 C 15.248 106.270,13.989 107.656,14.007 109.148 C 14.015 109.726,13.937 111.190,13.836 112.400 C 13.735 113.610,13.605 115.249,13.548 116.042 C 13.467 117.173,13.298 117.446,12.769 117.308 C 11.401 116.950,9.656 118.306,9.173 120.101 C 8.476 122.688,8.437 122.998,8.190 127.953 C 7.925 133.258,8.075 132.880,6.227 132.880 C 5.442 132.880,4.800 133.053,4.800 133.264 C 4.800 133.475,4.640 133.549,4.445 133.428 C 3.877 133.077,3.330 134.064,3.039 135.967 C 2.848 137.219,2.919 137.829,3.285 138.061 C 3.684 138.314,3.688 138.389,3.300 138.394 C 2.924 138.398,2.800 139.790,2.800 144.000 L 2.800 149.600 1.400 149.600 C -0.842 149.600,-0.750 152.273,1.500 152.509 L 3.000 152.666 1.500 152.733 C -0.678 152.830,-0.678 154.281,1.500 154.509 L 3.000 154.666 1.500 154.733 L 0.000 154.800 0.000 201.576 L 0.000 248.352 1.500 248.509 L 3.000 248.666 1.500 248.733 C -0.538 248.824,-0.631 250.000,1.400 250.000 L 2.800 250.000 2.804 253.900 C 2.818 266.363,2.997 267.086,6.062 267.129 C 8.157 267.158,8.085 266.864,8.367 276.524 C 8.390 277.311,8.550 277.557,8.900 277.347 C 9.275 277.122,9.270 277.207,8.881 277.688 C 8.590 278.047,8.522 278.428,8.727 278.555 C 8.928 278.679,9.014 279.194,8.917 279.699 C 8.681 280.937,10.251 282.932,11.255 282.670 C 11.712 282.550,11.900 282.638,11.741 282.895 C 11.574 283.166,11.859 283.244,12.541 283.113 C 13.526 282.925,13.601 283.012,13.617 284.355 C 13.639 286.233,13.922 290.301,14.127 291.692 C 14.371 293.341,15.051 293.904,17.149 294.193 C 18.964 294.443,19.059 294.518,19.086 295.728 C 19.101 296.427,19.194 297.720,19.292 298.600 C 19.390 299.480,19.499 300.526,19.535 300.924 C 19.574 301.360,19.783 301.534,20.062 301.362 C 20.349 301.184,20.415 301.252,20.236 301.542 C 19.876 302.124,20.317 303.600,20.851 303.600 C 21.069 303.600,21.118 303.375,20.959 303.100 C 20.792 302.810,20.824 302.740,21.036 302.933 C 21.236 303.117,21.404 303.477,21.410 303.733 C 21.415 303.992,21.909 304.166,22.519 304.123 C 23.124 304.081,23.514 304.216,23.386 304.423 C 23.258 304.631,23.433 304.800,23.776 304.800 C 24.258 304.800,24.406 305.277,24.428 306.900 C 24.473 310.283,24.872 310.636,28.800 310.767 C 29.650 310.795,29.803 310.994,29.819 312.100 C 29.930 319.488,30.626 321.227,33.430 321.122 C 35.153 321.057,35.122 321.020,35.295 323.409 C 35.398 324.839,35.593 325.365,35.987 325.277 C 36.420 325.181,36.435 325.276,36.057 325.731 C 35.469 326.439,35.852 326.608,38.400 326.765 C 40.499 326.894,40.786 327.218,40.794 329.471 C 40.797 330.450,41.060 331.403,41.429 331.771 C 42.183 332.526,42.555 332.591,42.165 331.900 C 41.939 331.500,41.990 331.500,42.421 331.900 C 42.718 332.175,43.644 332.400,44.480 332.400 L 46.000 332.400 46.006 334.500 C 46.014 337.308,46.229 337.535,49.010 337.677 L 51.400 337.800 51.520 340.335 C 51.618 342.396,51.752 342.827,52.241 342.640 C 52.581 342.509,52.736 342.581,52.597 342.805 C 52.447 343.047,53.213 343.200,54.576 343.200 L 56.800 343.200 56.800 345.424 C 56.800 346.787,56.953 347.553,57.195 347.403 C 57.414 347.268,57.494 347.412,57.373 347.726 C 57.202 348.172,57.641 348.305,59.414 348.346 C 62.361 348.414,62.400 348.450,62.400 351.181 C 62.400 353.849,62.574 354.000,65.633 354.000 C 67.658 354.000,67.762 354.101,67.613 355.921 C 67.571 356.428,67.776 357.137,68.069 357.498 C 68.451 357.970,68.460 358.070,68.100 357.853 C 67.825 357.688,67.603 357.698,67.606 357.876 C 67.619 358.537,68.224 359.044,69.000 359.044 C 69.440 359.044,70.565 359.171,71.500 359.327 L 73.200 359.609 73.200 361.791 C 73.200 364.127,74.418 365.646,75.245 364.341 C 75.498 363.942,75.589 363.931,75.594 364.300 C 75.598 364.603,76.148 364.800,76.992 364.800 C 78.454 364.800,78.764 365.258,78.889 367.600 C 78.951 368.777,79.542 369.683,80.045 369.372 C 80.240 369.251,80.400 369.321,80.400 369.527 C 80.400 369.850,82.367 370.017,87.900 370.165 C 89.064 370.196,89.203 370.326,89.228 371.400 C 89.320 375.437,89.366 375.483,93.400 375.567 C 94.886 375.598,95.006 375.686,95.078 376.800 C 95.219 378.976,95.305 379.395,95.719 379.918 C 95.944 380.203,96.369 380.344,96.664 380.231 C 96.959 380.118,97.200 380.180,97.200 380.369 C 97.200 380.677,99.885 380.901,104.100 380.945 C 105.405 380.959,105.600 381.084,105.600 381.904 C 105.600 382.474,105.770 382.742,106.030 382.582 C 106.273 382.431,106.242 382.664,105.958 383.119 C 105.401 384.011,106.222 385.788,107.266 385.949 C 108.957 386.210,110.942 386.342,113.600 386.372 L 116.600 386.406 116.684 388.243 C 116.775 390.232,117.413 391.357,118.264 391.031 C 118.559 390.918,118.800 391.002,118.800 391.219 C 118.800 391.435,119.295 391.590,119.900 391.562 C 122.739 391.432,132.215 392.090,132.334 392.426 C 132.408 392.635,132.591 392.729,132.742 392.636 C 132.892 392.543,132.947 393.176,132.865 394.041 C 132.653 396.257,135.066 398.284,136.056 396.723 C 136.328 396.294,136.389 396.295,136.394 396.729 C 136.398 397.108,136.996 397.240,138.500 397.195 C 139.655 397.160,142.445 397.147,144.700 397.166 L 148.800 397.200 148.800 398.600 L 148.800 400.000 200.000 400.000 L 251.200 400.000 251.200 398.600 L 251.200 397.200 255.500 397.174 C 257.865 397.159,260.880 397.143,262.200 397.139 C 265.142 397.128,266.859 396.819,266.570 396.351 C 266.450 396.158,266.525 396.000,266.736 396.000 C 266.946 396.000,267.092 395.297,267.059 394.438 C 267.027 393.579,267.163 392.977,267.363 393.100 C 267.563 393.224,267.636 392.982,267.527 392.563 C 267.341 391.851,267.596 391.798,271.364 391.777 C 278.142 391.739,281.600 391.519,281.600 391.127 C 281.600 390.921,281.760 390.851,281.955 390.972 C 282.571 391.353,283.309 390.042,283.430 388.351 C 283.578 386.275,283.204 386.446,287.770 386.368 C 291.991 386.297,293.560 386.038,293.626 385.400 C 293.649 385.180,293.801 384.820,293.963 384.600 C 294.126 384.380,294.296 383.579,294.342 382.821 C 294.460 380.864,293.808 381.071,300.700 380.796 C 302.075 380.740,303.200 380.528,303.200 380.324 C 303.200 380.120,303.360 380.051,303.555 380.172 C 304.150 380.540,304.919 379.251,305.039 377.684 C 305.102 376.868,305.163 376.065,305.176 375.900 C 305.189 375.735,306.145 375.597,307.300 375.594 C 310.174 375.585,310.514 375.279,310.714 372.514 L 310.884 370.164 312.342 370.160 C 318.542 370.146,321.385 369.512,321.166 368.194 C 320.820 366.115,321.737 364.800,323.535 364.794 C 325.433 364.788,326.560 364.361,326.650 363.615 C 326.678 363.387,326.723 362.342,326.750 361.294 L 326.800 359.388 329.295 359.265 C 332.186 359.121,332.386 358.917,332.394 356.100 L 332.400 354.000 334.400 354.000 C 335.500 354.000,336.462 354.045,336.539 354.100 C 336.615 354.155,337.002 353.930,337.399 353.601 C 337.797 353.271,338.662 352.821,339.323 352.601 C 340.750 352.125,341.965 350.608,342.081 349.158 C 342.134 348.500,342.392 348.132,342.782 348.158 C 343.122 348.181,343.364 348.002,343.320 347.759 C 343.272 347.498,343.633 347.394,344.206 347.503 C 345.569 347.764,347.763 345.564,347.502 344.199 C 347.399 343.663,347.470 343.320,347.659 343.436 C 348.107 343.714,348.885 341.660,348.541 341.105 C 348.382 340.848,348.466 340.793,348.748 340.968 C 349.377 341.357,352.157 338.577,351.768 337.948 C 351.585 337.652,351.649 337.583,351.938 337.762 C 352.192 337.919,352.400 337.857,352.400 337.624 C 352.400 337.391,352.535 337.221,352.700 337.247 C 353.816 337.424,354.000 337.078,354.000 334.800 C 354.000 332.186,353.900 332.273,356.800 332.369 C 358.832 332.436,359.128 332.066,359.271 329.295 L 359.400 326.802 361.400 326.754 C 362.500 326.727,363.530 326.725,363.688 326.749 C 364.309 326.842,364.867 325.027,364.733 323.347 L 364.593 321.579 366.196 321.306 C 367.078 321.157,367.954 321.078,368.142 321.131 C 368.661 321.278,369.622 320.359,369.372 319.955 C 369.251 319.760,369.320 319.600,369.524 319.600 C 369.728 319.600,369.928 318.565,369.967 317.300 C 370.006 316.035,370.103 314.100,370.182 313.000 L 370.326 311.000 372.610 310.748 C 375.281 310.453,375.586 310.103,375.594 307.318 L 375.600 305.236 377.100 304.973 C 379.057 304.630,380.463 303.725,380.360 302.877 C 380.314 302.505,380.391 301.930,380.531 301.600 C 380.671 301.270,380.864 299.650,380.961 298.000 C 381.057 296.350,381.151 294.865,381.168 294.700 C 381.186 294.535,381.481 294.400,381.824 294.400 C 382.216 294.400,382.336 294.215,382.147 293.900 C 381.940 293.555,382.055 293.569,382.518 293.945 C 382.927 294.276,383.466 294.368,383.895 294.179 C 384.283 294.009,384.726 293.854,384.880 293.835 C 385.967 293.700,386.321 291.650,386.385 285.125 C 386.400 283.686,386.445 283.642,388.196 283.380 C 389.184 283.232,389.894 282.953,389.775 282.760 C 389.656 282.567,389.815 282.507,390.128 282.628 C 390.731 282.859,391.358 281.779,390.978 281.164 C 390.854 280.964,390.946 280.800,391.183 280.800 C 391.419 280.800,391.590 280.305,391.562 279.700 C 391.436 276.981,392.104 267.787,392.436 267.666 C 392.639 267.592,392.729 267.409,392.636 267.258 C 392.543 267.108,393.176 267.053,394.041 267.135 C 396.257 267.347,398.284 264.934,396.723 263.944 C 396.324 263.691,396.318 263.611,396.700 263.606 C 397.078 263.601,397.200 262.090,397.200 257.400 L 397.200 251.200 398.600 251.200 L 400.000 251.200 400.000 137.800 L 400.000 24.400 398.600 24.400 L 397.200 24.400 397.185 22.500 C 397.164 19.892,396.785 17.426,396.381 17.274 C 396.196 17.205,396.147 16.883,396.271 16.559 C 396.584 15.744,395.194 14.308,394.315 14.538 C 393.921 14.641,393.700 14.562,393.823 14.363 C 394.002 14.073,392.746 13.826,391.589 13.923 C 391.473 13.933,391.424 13.144,391.481 12.170 C 391.538 11.197,391.428 10.400,391.237 10.400 C 391.046 10.400,390.914 10.085,390.944 9.700 C 390.979 9.261,390.739 9.021,390.300 9.056 C 389.915 9.086,389.600 8.969,389.600 8.796 C 389.600 8.622,388.965 8.480,388.189 8.480 C 386.697 8.480,385.451 7.765,385.842 7.132 C 386.193 6.564,385.634 4.732,385.193 5.004 C 384.971 5.142,384.921 4.951,385.074 4.551 C 385.279 4.016,385.184 3.921,384.649 4.126 C 384.249 4.279,384.058 4.229,384.196 4.007 C 384.415 3.652,383.426 3.296,382.000 3.218 C 381.670 3.200,380.590 3.111,379.600 3.020 C 378.610 2.928,377.305 2.842,376.700 2.827 C 375.715 2.803,375.600 2.654,375.600 1.400 L 375.600 0.000 263.624 -0.000 L 151.648 -0.000 151.491 1.500 L 151.334 3.000 151.267 1.500 C 151.176 -0.538,150.000 -0.631,150.000 1.400 M207.827 97.630 C 209.132 97.866,211.106 98.566,212.214 99.185 C 213.322 99.804,215.662 100.711,217.414 101.201 C 221.299 102.287,222.426 102.844,223.652 104.286 C 224.174 104.899,225.102 105.624,225.715 105.898 C 227.889 106.870,231.027 109.581,232.801 112.020 C 233.791 113.381,235.468 115.449,236.530 116.617 C 237.960 118.191,238.660 119.409,239.234 121.320 C 239.659 122.739,240.537 124.566,241.184 125.380 C 244.722 129.831,245.007 146.822,241.639 152.466 C 240.807 153.860,239.619 156.409,238.999 158.131 C 238.055 160.750,237.556 161.527,235.950 162.881 C 234.846 163.812,233.839 165.077,233.582 165.855 C 233.148 167.169,231.006 169.200,230.054 169.200 C 229.795 169.200,229.021 169.998,228.333 170.974 C 227.372 172.338,226.383 173.085,224.061 174.203 C 222.399 175.003,220.656 176.070,220.189 176.574 C 215.335 181.812,190.313 181.691,184.200 176.400 C 183.233 175.563,181.541 174.579,180.439 174.213 C 178.596 173.601,176.000 171.379,176.000 170.413 C 176.000 170.216,175.595 169.928,175.100 169.774 C 173.435 169.257,172.099 168.024,171.251 166.218 C 170.759 165.173,169.930 164.177,169.263 163.833 C 167.849 163.102,167.127 162.017,166.217 159.263 C 165.829 158.088,164.975 156.516,164.320 155.770 C 159.569 150.359,159.621 125.758,164.388 123.207 C 164.822 122.974,165.372 122.029,165.618 121.093 C 166.290 118.537,168.154 115.469,170.497 113.062 C 171.654 111.874,173.113 110.249,173.739 109.451 C 174.366 108.653,175.049 108.000,175.256 108.000 C 175.738 108.000,179.617 105.144,180.374 104.232 C 181.231 103.199,183.433 102.195,186.950 101.235 C 188.683 100.762,190.892 99.911,191.861 99.343 C 195.324 97.314,202.077 96.589,207.827 97.630 M199.347 190.051 C 237.818 190.054,272.558 189.938,276.547 189.793 L 283.800 189.528 284.953 190.629 C 287.862 193.408,285.294 199.210,279.908 202.027 C 279.088 202.457,278.152 203.319,277.829 203.945 C 277.148 205.261,274.810 207.416,273.669 207.778 C 273.239 207.915,272.674 208.539,272.414 209.166 C 271.869 210.483,270.285 212.059,268.696 212.866 C 268.089 213.174,267.261 214.050,266.856 214.813 C 266.450 215.576,265.327 216.786,264.359 217.503 C 262.136 219.149,262.207 219.078,260.796 221.089 C 260.144 222.018,258.914 223.134,258.063 223.568 C 257.120 224.049,256.315 224.838,256.005 225.587 C 255.460 226.904,253.593 228.670,252.178 229.208 C 251.701 229.390,250.958 230.227,250.527 231.069 C 250.080 231.943,248.904 233.170,247.785 233.928 C 246.708 234.658,245.457 235.918,245.006 236.728 C 244.555 237.538,243.363 238.740,242.356 239.400 C 241.350 240.060,240.128 241.284,239.640 242.120 C 239.139 242.978,237.806 244.246,236.577 245.032 C 235.379 245.798,234.400 246.661,234.400 246.951 C 234.400 247.661,231.822 250.276,230.804 250.599 C 230.355 250.741,229.368 251.827,228.610 253.011 C 227.815 254.254,226.649 255.467,225.851 255.882 C 225.091 256.277,223.865 257.500,223.125 258.600 C 222.386 259.700,221.336 261.198,220.793 261.929 L 219.806 263.259 220.003 276.529 C 220.307 297.005,220.344 296.231,218.938 298.800 C 216.751 302.797,216.735 302.800,200.102 302.800 C 179.210 302.800,180.273 304.028,180.844 280.561 C 181.263 263.337,181.257 263.272,179.123 261.073 C 178.247 260.170,177.191 258.766,176.775 257.951 C 176.315 257.049,175.362 256.106,174.333 255.535 C 173.288 254.956,172.251 253.922,171.607 252.817 C 170.967 251.720,169.880 250.632,168.783 249.991 C 167.728 249.375,166.643 248.306,166.125 247.375 C 165.626 246.475,164.510 245.360,163.525 244.774 C 162.576 244.210,161.407 243.130,160.926 242.374 C 159.830 240.650,159.346 240.167,157.600 239.058 C 156.830 238.569,155.779 237.407,155.265 236.475 C 154.680 235.415,153.757 234.488,152.802 234.001 C 151.216 233.192,149.810 231.693,149.387 230.360 C 149.252 229.935,148.480 229.247,147.671 228.832 C 145.899 227.923,144.601 226.589,144.034 225.093 C 143.800 224.474,143.126 223.801,142.507 223.567 C 141.046 223.015,139.376 221.390,138.772 219.932 C 138.497 219.268,137.658 218.436,136.843 218.018 C 135.104 217.126,133.798 215.782,133.241 214.311 C 132.998 213.669,132.287 212.996,131.508 212.671 C 130.032 212.054,127.600 209.499,127.600 208.566 C 127.600 208.232,127.008 207.712,126.284 207.410 C 124.669 206.735,122.817 204.942,122.342 203.595 C 122.114 202.948,121.313 202.279,120.094 201.718 C 114.337 199.069,112.374 190.589,117.349 189.860 C 118.037 189.759,121.030 189.760,124.000 189.861 C 126.970 189.963,160.876 190.048,199.347 190.051 M350.954 338.576 C 350.711 339.208,348.800 340.591,348.800 340.135 C 348.800 339.736,350.473 338.000,350.857 338.000 C 351.032 338.000,351.075 338.259,350.954 338.576 " stroke="none" fill="#ffa800" fill-rule="evenodd"></path><path id="path3" d="M151.301 1.400 C 151.305 2.280,151.387 2.593,151.483 2.095 C 151.579 1.598,151.575 0.878,151.475 0.495 C 151.375 0.113,151.296 0.520,151.301 1.400 M195.510 97.792 C 194.471 98.078,192.829 98.776,191.861 99.343 C 190.892 99.911,188.683 100.762,186.950 101.235 C 183.433 102.195,181.231 103.199,180.374 104.232 C 179.617 105.144,175.738 108.000,175.256 108.000 C 175.049 108.000,174.366 108.653,173.739 109.451 C 173.113 110.249,171.654 111.874,170.497 113.062 C 168.154 115.469,166.290 118.537,165.618 121.093 C 165.372 122.029,164.822 122.974,164.388 123.207 C 159.621 125.758,159.569 150.359,164.320 155.770 C 164.975 156.516,165.829 158.088,166.217 159.263 C 167.127 162.017,167.849 163.102,169.263 163.833 C 169.930 164.177,170.759 165.173,171.251 166.218 C 172.099 168.024,173.435 169.257,175.100 169.774 C 175.595 169.928,176.000 170.216,176.000 170.413 C 176.000 171.379,178.596 173.601,180.439 174.213 C 181.541 174.579,183.233 175.563,184.200 176.400 C 190.313 181.691,215.335 181.812,220.189 176.574 C 220.656 176.070,222.399 175.003,224.061 174.203 C 226.383 173.085,227.372 172.338,228.333 170.974 C 229.021 169.998,229.795 169.200,230.054 169.200 C 231.006 169.200,233.148 167.169,233.582 165.855 C 233.839 165.077,234.846 163.812,235.950 162.881 C 237.556 161.527,238.055 160.750,238.999 158.131 C 239.619 156.409,240.807 153.860,241.639 152.466 C 245.007 146.822,244.722 129.831,241.184 125.380 C 240.537 124.566,239.659 122.739,239.234 121.320 C 238.660 119.409,237.960 118.191,236.530 116.617 C 235.468 115.449,233.791 113.381,232.801 112.020 C 231.027 109.581,227.889 106.870,225.715 105.898 C 225.102 105.624,224.174 104.899,223.652 104.286 C 222.426 102.844,221.299 102.287,217.414 101.201 C 215.662 100.711,213.322 99.804,212.214 99.185 C 208.758 97.254,200.090 96.531,195.510 97.792 M211.200 102.972 C 215.848 103.763,219.092 104.955,220.106 106.244 C 220.566 106.829,221.916 107.737,223.105 108.264 C 225.446 109.299,230.996 114.472,232.141 116.685 C 232.490 117.361,233.525 118.535,234.439 119.296 C 236.033 120.619,236.158 120.894,237.420 125.839 C 238.144 128.677,239.179 132.557,239.719 134.459 C 240.679 137.836,240.748 142.866,239.855 144.311 C 239.527 144.842,237.779 150.918,237.412 152.800 C 236.797 155.961,235.168 159.403,233.959 160.097 C 233.250 160.505,232.402 161.579,231.849 162.773 C 230.634 165.396,230.265 165.800,228.153 166.823 C 227.173 167.297,225.933 168.329,225.399 169.116 C 224.800 169.998,223.770 170.808,222.714 171.230 C 217.044 173.492,215.860 174.046,214.816 174.925 C 211.123 178.033,194.352 178.333,190.289 175.363 C 188.698 174.201,185.660 172.750,182.896 171.832 C 181.473 171.359,180.422 170.670,179.601 169.669 C 178.937 168.861,177.541 167.747,176.497 167.193 C 175.049 166.425,174.329 165.682,173.452 164.052 C 172.777 162.796,171.760 161.596,170.983 161.137 C 169.803 160.441,169.507 159.870,168.241 155.850 C 167.461 153.372,166.368 150.675,165.812 149.856 C 163.255 146.088,163.320 134.321,165.927 128.800 C 166.810 126.930,167.811 124.328,168.150 123.017 C 168.824 120.416,168.717 120.574,173.554 115.013 C 176.560 111.556,180.837 108.000,181.987 108.000 C 182.224 108.000,183.217 107.263,184.194 106.363 C 188.140 102.726,200.575 101.165,211.200 102.972 M0.705 152.683 C 1.202 152.779,1.922 152.775,2.305 152.675 C 2.687 152.575,2.280 152.496,1.400 152.501 C 0.520 152.505,0.207 152.587,0.705 152.683 M0.705 154.683 C 1.202 154.779,1.922 154.775,2.305 154.675 C 2.687 154.575,2.280 154.496,1.400 154.501 C 0.520 154.505,0.207 154.587,0.705 154.683 M117.349 189.860 C 112.374 190.589,114.337 199.069,120.094 201.718 C 121.313 202.279,122.114 202.948,122.342 203.595 C 122.817 204.942,124.669 206.735,126.284 207.410 C 127.008 207.712,127.600 208.232,127.600 208.566 C 127.600 209.499,130.032 212.054,131.508 212.671 C 132.287 212.996,132.998 213.669,133.241 214.311 C 133.798 215.782,135.104 217.126,136.843 218.018 C 137.658 218.436,138.497 219.268,138.772 219.932 C 139.376 221.390,141.046 223.015,142.507 223.567 C 143.126 223.801,143.800 224.474,144.034 225.093 C 144.601 226.589,145.899 227.923,147.671 228.832 C 148.480 229.247,149.252 229.935,149.387 230.360 C 149.810 231.693,151.216 233.192,152.802 234.001 C 153.757 234.488,154.680 235.415,155.265 236.475 C 155.779 237.407,156.830 238.569,157.600 239.058 C 159.346 240.167,159.830 240.650,160.926 242.374 C 161.407 243.130,162.576 244.210,163.525 244.774 C 164.510 245.360,165.626 246.475,166.125 247.375 C 166.643 248.306,167.728 249.375,168.783 249.991 C 169.880 250.632,170.967 251.720,171.607 252.817 C 172.251 253.922,173.288 254.956,174.333 255.535 C 175.362 256.106,176.315 257.049,176.775 257.951 C 177.191 258.766,178.247 260.170,179.123 261.073 C 181.257 263.272,181.263 263.337,180.844 280.561 C 180.273 304.028,179.210 302.800,200.102 302.800 C 216.735 302.800,216.751 302.797,218.938 298.800 C 220.344 296.231,220.307 297.005,220.003 276.529 L 219.806 263.259 220.793 261.929 C 221.336 261.198,222.386 259.700,223.125 258.600 C 223.865 257.500,225.091 256.277,225.851 255.882 C 226.649 255.467,227.815 254.254,228.610 253.011 C 229.368 251.827,230.355 250.741,230.804 250.599 C 231.822 250.276,234.400 247.661,234.400 246.951 C 234.400 246.661,235.379 245.798,236.577 245.032 C 237.806 244.246,239.139 242.978,239.640 242.120 C 240.128 241.284,241.350 240.060,242.356 239.400 C 243.363 238.740,244.555 237.538,245.006 236.728 C 245.457 235.918,246.708 234.658,247.785 233.928 C 248.904 233.170,250.080 231.943,250.527 231.069 C 250.958 230.227,251.701 229.390,252.178 229.208 C 253.593 228.670,255.460 226.904,256.005 225.587 C 256.315 224.838,257.120 224.049,258.063 223.568 C 258.914 223.134,260.144 222.018,260.796 221.089 C 262.207 219.078,262.136 219.149,264.359 217.503 C 265.327 216.786,266.450 215.576,266.856 214.813 C 267.261 214.050,268.089 213.174,268.696 212.866 C 270.285 212.059,271.869 210.483,272.414 209.166 C 272.674 208.539,273.239 207.915,273.669 207.778 C 274.810 207.416,277.148 205.261,277.829 203.945 C 278.152 203.319,279.088 202.457,279.908 202.027 C 285.294 199.210,287.862 193.408,284.953 190.629 L 283.800 189.528 276.547 189.793 C 268.428 190.088,132.443 190.150,124.000 189.861 C 121.030 189.760,118.037 189.759,117.349 189.860 M279.919 195.834 C 281.110 197.201,280.971 197.516,278.411 199.246 C 277.235 200.041,275.806 201.377,275.236 202.214 C 274.666 203.051,273.427 204.290,272.481 204.968 C 271.536 205.646,270.433 206.753,270.030 207.429 C 269.628 208.105,268.720 209.095,268.014 209.629 C 267.308 210.163,266.298 211.050,265.769 211.600 C 265.240 212.150,264.063 213.343,263.154 214.250 C 260.872 216.528,259.374 218.026,257.503 219.903 C 255.490 221.922,254.322 223.090,252.303 225.103 C 251.422 225.982,250.160 227.240,249.499 227.899 C 248.838 228.558,247.704 229.705,246.979 230.448 C 246.254 231.192,245.018 232.313,244.231 232.939 C 243.444 233.566,242.800 234.297,242.800 234.565 C 242.800 235.119,241.125 236.729,239.499 237.737 C 238.893 238.113,237.957 239.118,237.419 239.970 C 236.881 240.822,235.680 242.033,234.751 242.660 C 233.821 243.287,232.501 244.597,231.816 245.572 C 231.132 246.547,229.868 247.738,229.008 248.220 C 228.148 248.701,227.143 249.657,226.775 250.343 C 225.777 252.203,225.209 252.779,223.527 253.637 C 222.656 254.082,221.548 255.144,220.948 256.108 C 220.370 257.039,219.020 258.621,217.948 259.624 C 215.639 261.786,215.845 259.618,215.974 280.400 L 216.065 295.000 214.799 296.505 L 213.533 298.010 199.882 297.905 L 186.232 297.800 185.316 296.441 L 184.400 295.082 184.400 278.721 C 184.400 260.491,184.525 261.372,181.538 258.570 C 180.582 257.674,179.440 256.345,179.000 255.617 C 178.560 254.889,177.480 253.898,176.600 253.414 C 175.720 252.931,174.611 251.920,174.136 251.168 C 173.039 249.433,172.155 248.552,170.406 247.452 C 169.639 246.970,168.822 246.196,168.590 245.731 C 167.920 244.387,167.121 243.560,165.509 242.543 C 164.682 242.021,163.564 240.893,163.023 240.037 C 162.483 239.181,161.274 237.965,160.337 237.336 C 159.400 236.706,158.148 235.473,157.555 234.596 C 156.963 233.718,155.696 232.446,154.739 231.768 C 153.783 231.090,152.532 229.848,151.960 229.008 C 151.388 228.168,150.223 227.007,149.371 226.429 C 148.520 225.850,147.340 224.662,146.751 223.788 C 146.161 222.915,144.896 221.646,143.939 220.968 C 142.983 220.290,141.732 219.048,141.160 218.208 C 140.588 217.368,139.423 216.207,138.571 215.629 C 137.720 215.050,136.540 213.862,135.951 212.988 C 135.361 212.115,134.096 210.846,133.139 210.170 C 132.183 209.493,130.891 208.184,130.268 207.262 C 129.646 206.339,128.421 205.219,127.547 204.773 C 126.592 204.286,125.549 203.286,124.933 202.267 C 124.323 201.257,123.039 200.021,121.755 199.208 C 119.435 197.739,119.171 197.053,120.350 195.554 L 121.101 194.600 200.050 194.690 L 279.000 194.780 279.919 195.834 M0.705 248.683 C 1.202 248.779,1.922 248.775,2.305 248.675 C 2.687 248.575,2.280 248.496,1.400 248.501 C 0.520 248.505,0.207 248.587,0.705 248.683 " stroke="none" fill="#ffc75c" fill-rule="evenodd"></path><path id="path4" d="M149.200 1.400 C 149.200 2.170,149.380 2.800,149.600 2.800 C 149.820 2.800,150.000 2.170,150.000 1.400 C 150.000 0.630,149.820 0.000,149.600 0.000 C 149.380 0.000,149.200 0.630,149.200 1.400 M133.377 3.367 C 132.950 3.679,132.736 4.069,132.901 4.234 C 133.065 4.399,133.200 4.313,133.200 4.043 C 133.200 3.773,133.380 3.664,133.600 3.800 C 133.820 3.936,134.000 3.846,134.000 3.600 C 134.000 3.354,134.144 3.242,134.319 3.350 C 134.495 3.458,134.900 3.382,135.219 3.180 C 135.682 2.887,135.633 2.811,134.976 2.806 C 134.524 2.803,133.804 3.055,133.377 3.367 M380.800 2.957 C 380.800 3.346,381.927 3.492,382.436 3.169 C 382.847 2.909,382.701 2.811,381.900 2.806 C 381.295 2.803,380.800 2.871,380.800 2.957 M383.403 3.595 C 383.258 3.830,383.437 3.884,383.845 3.727 C 384.307 3.550,384.438 3.615,384.245 3.927 C 384.052 4.240,384.183 4.305,384.649 4.126 C 385.184 3.921,385.279 4.016,385.074 4.551 C 384.895 5.017,384.960 5.148,385.273 4.955 C 385.585 4.762,385.650 4.893,385.473 5.355 C 385.316 5.763,385.370 5.942,385.605 5.797 C 386.190 5.435,386.085 4.542,385.371 3.829 C 384.658 3.115,383.765 3.010,383.403 3.595 M132.556 5.771 C 132.435 6.085,132.404 6.760,132.486 7.271 C 132.595 7.954,132.688 7.804,132.837 6.700 C 133.047 5.147,132.936 4.781,132.556 5.771 M124.305 8.283 C 124.802 8.379,125.522 8.375,125.905 8.275 C 126.287 8.175,125.880 8.096,125.000 8.101 C 124.120 8.105,123.807 8.187,124.305 8.283 M118.017 8.909 C 117.477 9.183,116.910 9.855,116.757 10.403 C 116.352 11.860,116.345 13.681,116.746 13.433 C 116.937 13.315,117.001 12.738,116.888 12.150 C 116.757 11.462,116.834 11.174,117.105 11.341 C 117.364 11.501,117.449 11.307,117.325 10.835 C 117.075 9.881,118.843 8.613,120.000 8.916 C 120.440 9.031,120.900 8.962,121.023 8.762 C 121.354 8.226,119.154 8.334,118.017 8.909 M389.600 8.756 C 389.600 8.951,389.915 9.086,390.300 9.056 C 390.739 9.021,390.979 9.261,390.944 9.700 C 390.914 10.085,391.049 10.400,391.244 10.400 C 391.759 10.400,391.681 9.441,391.120 8.880 C 390.559 8.319,389.600 8.241,389.600 8.756 M107.777 13.962 C 107.900 14.162,108.361 14.231,108.800 14.116 C 109.901 13.828,109.802 13.600,108.576 13.600 C 108.013 13.600,107.654 13.763,107.777 13.962 M105.989 14.821 C 105.747 15.272,105.630 15.947,105.728 16.321 C 105.861 16.823,105.919 16.773,105.954 16.129 C 105.979 15.649,106.283 14.974,106.629 14.629 C 106.974 14.283,107.071 14.000,106.843 14.000 C 106.615 14.000,106.230 14.369,105.989 14.821 M393.823 14.363 C 393.700 14.562,393.921 14.641,394.315 14.538 C 395.208 14.305,396.582 15.750,396.261 16.585 C 396.131 16.923,396.199 17.200,396.413 17.200 C 397.083 17.200,396.833 15.354,396.069 14.662 C 395.268 13.938,394.176 13.792,393.823 14.363 M101.700 19.076 C 102.085 19.176,102.715 19.176,103.100 19.076 C 103.485 18.975,103.170 18.893,102.400 18.893 C 101.630 18.893,101.315 18.975,101.700 19.076 M96.005 19.916 C 95.376 20.425,95.066 21.205,94.930 22.616 C 94.803 23.940,94.866 24.419,95.121 24.056 C 95.330 23.756,95.413 23.171,95.304 22.756 C 95.196 22.340,95.288 22.000,95.509 22.000 C 95.730 22.000,95.886 21.685,95.856 21.300 C 95.825 20.911,96.036 20.649,96.330 20.710 C 96.650 20.776,96.743 20.631,96.564 20.342 C 96.361 20.013,96.483 19.946,96.955 20.127 C 97.414 20.304,97.548 20.239,97.358 19.932 C 97.166 19.621,97.351 19.546,97.937 19.699 C 98.411 19.823,98.900 19.762,99.023 19.562 C 99.436 18.894,96.899 19.191,96.005 19.916 M89.611 24.987 C 89.343 25.309,89.186 25.742,89.262 25.950 C 89.338 26.157,89.723 25.893,90.119 25.363 C 90.885 24.336,90.431 23.999,89.611 24.987 M85.300 29.876 C 85.685 29.976,86.315 29.976,86.700 29.876 C 87.085 29.775,86.770 29.693,86.000 29.693 C 85.230 29.693,84.915 29.775,85.300 29.876 M79.500 30.432 C 79.115 30.656,78.805 31.146,78.812 31.520 C 78.823 32.143,78.859 32.140,79.237 31.492 C 79.464 31.102,79.846 30.905,80.086 31.053 C 80.369 31.228,80.407 31.136,80.196 30.794 C 79.960 30.411,80.050 30.334,80.522 30.515 C 80.881 30.652,81.281 30.593,81.411 30.383 C 81.722 29.879,80.391 29.913,79.500 30.432 M78.400 34.200 C 78.400 34.750,78.469 35.200,78.553 35.200 C 78.638 35.200,78.793 34.750,78.898 34.200 C 79.003 33.650,78.934 33.200,78.745 33.200 C 78.555 33.200,78.400 33.650,78.400 34.200 M70.705 40.683 C 71.202 40.779,71.922 40.775,72.305 40.675 C 72.687 40.575,72.280 40.496,71.400 40.501 C 70.520 40.505,70.207 40.587,70.705 40.683 M62.046 50.075 C 62.008 50.975,61.789 51.175,60.700 51.311 L 59.400 51.472 60.713 51.536 C 62.101 51.604,62.614 51.010,62.280 49.723 C 62.155 49.239,62.077 49.355,62.046 50.075 M51.254 60.673 C 51.209 61.738,51.020 61.974,50.100 62.113 L 49.000 62.280 50.113 62.340 C 51.335 62.406,51.763 61.780,51.486 60.329 C 51.348 59.607,51.297 59.684,51.254 60.673 M40.501 71.400 C 40.505 72.280,40.587 72.593,40.683 72.095 C 40.779 71.598,40.775 70.878,40.675 70.495 C 40.575 70.113,40.496 70.520,40.501 71.400 M35.619 73.777 C 35.347 74.105,35.217 74.604,35.331 74.887 C 35.466 75.223,35.548 75.170,35.568 74.733 C 35.586 74.367,35.825 73.986,36.100 73.888 C 36.375 73.790,36.491 73.591,36.357 73.445 C 36.223 73.300,35.891 73.449,35.619 73.777 M31.050 79.314 C 30.284 79.874,29.556 83.522,30.302 83.061 C 30.534 82.917,30.623 82.411,30.499 81.937 C 30.346 81.351,30.421 81.166,30.732 81.358 C 31.039 81.548,31.104 81.414,30.927 80.955 C 30.762 80.523,30.821 80.366,31.087 80.530 C 31.608 80.852,32.507 79.850,32.097 79.404 C 31.933 79.227,32.205 79.182,32.700 79.303 C 33.195 79.425,33.600 79.362,33.600 79.163 C 33.600 78.621,31.855 78.725,31.050 79.314 M22.669 95.188 C 20.604 95.587,19.716 96.613,19.370 98.999 C 19.115 100.755,19.153 100.937,19.684 100.496 C 20.045 100.197,20.212 99.599,20.100 99.011 C 19.835 97.624,22.025 95.435,23.413 95.700 C 24.071 95.826,24.400 95.708,24.400 95.345 C 24.400 95.045,24.355 94.821,24.300 94.846 C 24.245 94.871,23.511 95.025,22.669 95.188 M15.291 106.016 C 14.177 106.463,13.729 107.490,14.371 108.127 C 14.739 108.492,14.785 108.437,14.575 107.884 C 14.387 107.391,14.474 107.204,14.851 107.284 C 15.153 107.348,15.359 107.186,15.308 106.924 C 15.209 106.411,16.585 105.820,17.116 106.148 C 17.293 106.257,17.700 106.182,18.019 105.980 C 18.802 105.484,16.540 105.514,15.291 106.016 M13.606 109.900 C 13.603 110.615,13.669 111.200,13.753 111.200 C 14.117 111.200,14.272 109.641,13.957 109.144 C 13.723 108.774,13.610 109.016,13.606 109.900 M9.851 117.700 C 9.175 118.313,8.790 119.175,8.645 120.400 L 8.431 122.200 9.039 120.298 C 9.691 118.260,11.378 116.944,12.847 117.328 C 13.262 117.437,13.500 117.362,13.377 117.163 C 12.954 116.478,10.845 116.800,9.851 117.700 M8.101 125.400 C 8.105 126.280,8.187 126.593,8.283 126.095 C 8.379 125.598,8.375 124.878,8.275 124.495 C 8.175 124.113,8.096 124.520,8.101 125.400 M3.378 133.235 C 3.231 133.474,3.323 133.879,3.583 134.135 C 3.945 134.490,4.027 134.458,3.929 134.000 C 3.858 133.670,4.025 133.445,4.300 133.500 C 4.575 133.555,4.800 133.420,4.800 133.200 C 4.800 132.662,3.716 132.689,3.378 133.235 M0.705 149.483 C 1.202 149.579,1.922 149.575,2.305 149.475 C 2.687 149.375,2.280 149.296,1.400 149.301 C 0.520 149.305,0.207 149.387,0.705 149.483 M0.000 250.400 C 0.000 250.620,0.630 250.800,1.400 250.800 C 2.170 250.800,2.800 250.620,2.800 250.400 C 2.800 250.180,2.170 250.000,1.400 250.000 C 0.630 250.000,0.000 250.180,0.000 250.400 M396.533 266.229 C 396.281 266.763,396.226 267.200,396.411 267.200 C 396.758 267.200,397.381 265.647,397.132 265.399 C 397.055 265.322,396.785 265.695,396.533 266.229 M5.941 267.301 C 6.143 267.503,6.733 267.601,7.254 267.519 C 8.055 267.393,7.998 267.337,6.887 267.152 C 6.093 267.021,5.719 267.079,5.941 267.301 M393.300 267.476 C 393.685 267.576,394.315 267.576,394.700 267.476 C 395.085 267.375,394.770 267.293,394.000 267.293 C 393.230 267.293,392.915 267.375,393.300 267.476 M8.093 275.200 C 8.093 275.970,8.175 276.285,8.276 275.900 C 8.376 275.515,8.376 274.885,8.276 274.500 C 8.175 274.115,8.093 274.430,8.093 275.200 M391.693 276.000 C 391.693 276.770,391.775 277.085,391.876 276.700 C 391.976 276.315,391.976 275.685,391.876 275.300 C 391.775 274.915,391.693 275.230,391.693 276.000 M8.400 279.550 C 8.400 281.697,9.043 282.719,10.681 283.174 C 12.528 283.687,13.600 283.717,13.600 283.255 C 13.600 283.066,13.123 283.002,12.541 283.113 C 11.912 283.234,11.579 283.158,11.721 282.928 C 11.852 282.715,11.567 282.554,11.087 282.570 C 10.607 282.587,10.211 282.390,10.207 282.133 C 10.203 281.877,10.036 281.517,9.836 281.333 C 9.620 281.136,9.605 281.229,9.798 281.562 C 10.024 281.952,9.974 282.031,9.635 281.821 C 9.366 281.655,9.246 281.258,9.368 280.939 C 9.508 280.574,9.422 280.463,9.137 280.639 C 8.826 280.831,8.748 280.583,8.888 279.850 C 9.001 279.262,8.937 278.685,8.746 278.567 C 8.556 278.449,8.400 278.892,8.400 279.550 M390.978 281.164 C 391.358 281.779,390.731 282.859,390.128 282.628 C 389.815 282.507,389.661 282.575,389.786 282.777 C 389.911 282.980,389.516 283.221,388.907 283.313 L 387.800 283.480 388.900 283.540 C 389.532 283.575,390.340 283.260,390.800 282.800 C 391.657 281.943,391.872 280.800,391.176 280.800 C 390.943 280.800,390.854 280.964,390.978 281.164 M13.600 290.824 C 13.600 291.497,13.756 291.951,13.946 291.833 C 14.269 291.634,14.093 289.600,13.753 289.600 C 13.669 289.600,13.600 290.151,13.600 290.824 M14.006 292.886 C 13.998 293.748,15.363 294.504,16.521 294.280 C 17.249 294.138,17.212 294.100,16.300 294.054 C 15.695 294.025,15.245 293.865,15.300 293.700 C 15.355 293.535,15.240 293.370,15.045 293.334 C 14.849 293.298,14.537 293.028,14.351 292.734 C 14.090 292.322,14.011 292.357,14.006 292.886 M385.412 293.580 C 385.265 293.818,384.990 293.917,384.800 293.800 C 384.610 293.683,384.342 293.770,384.204 293.993 C 384.066 294.217,384.188 294.397,384.476 294.394 C 385.217 294.385,386.225 293.692,385.928 293.395 C 385.792 293.259,385.560 293.342,385.412 293.580 M19.468 301.800 C 19.682 303.848,20.553 304.670,22.800 304.941 C 23.790 305.060,24.283 305.064,23.895 304.949 C 23.507 304.834,23.287 304.584,23.404 304.393 C 23.522 304.203,23.124 304.081,22.519 304.123 C 21.909 304.166,21.415 303.992,21.410 303.733 C 21.404 303.477,21.236 303.117,21.036 302.933 C 20.824 302.740,20.792 302.810,20.959 303.100 C 21.118 303.375,21.069 303.600,20.851 303.600 C 20.317 303.600,19.876 302.124,20.236 301.542 C 20.408 301.263,20.350 301.184,20.090 301.344 C 19.852 301.491,19.577 301.294,19.479 300.906 C 19.382 300.518,19.377 300.920,19.468 301.800 M380.408 301.800 C 380.353 302.020,380.337 302.499,380.373 302.864 C 380.456 303.709,378.918 304.800,377.644 304.800 C 377.107 304.800,376.778 304.912,376.915 305.048 C 378.059 306.193,381.017 304.018,380.680 302.279 C 380.586 301.796,380.464 301.580,380.408 301.800 M30.040 318.926 C 29.951 320.552,31.513 321.912,32.197 320.805 C 32.342 320.570,32.163 320.516,31.755 320.673 C 31.283 320.854,31.161 320.787,31.364 320.458 C 31.539 320.175,31.457 320.025,31.165 320.090 C 30.893 320.151,30.538 319.750,30.375 319.200 C 30.170 318.505,30.068 318.421,30.040 318.926 M369.330 319.863 C 369.475 320.008,369.393 320.368,369.148 320.663 C 368.820 321.058,368.821 321.200,369.151 321.200 C 369.398 321.200,369.600 321.125,369.600 321.033 C 369.600 320.941,369.709 320.581,369.843 320.233 C 369.986 319.860,369.876 319.600,369.576 319.600 C 369.296 319.600,369.185 319.718,369.330 319.863 M33.377 321.238 C 33.254 321.437,33.613 321.600,34.176 321.600 C 35.402 321.600,35.501 321.372,34.400 321.084 C 33.961 320.969,33.500 321.038,33.377 321.238 M366.600 321.200 L 365.400 321.505 366.700 321.553 C 367.415 321.579,368.000 321.420,368.000 321.200 C 368.000 320.980,367.955 320.821,367.900 320.847 C 367.845 320.873,367.260 321.032,366.600 321.200 M40.493 328.800 C 40.493 329.570,40.575 329.885,40.676 329.500 C 40.776 329.115,40.776 328.485,40.676 328.100 C 40.575 327.715,40.493 328.030,40.493 328.800 M352.819 337.580 C 352.500 337.782,352.067 337.841,351.857 337.712 C 351.647 337.582,351.607 337.688,351.768 337.948 C 352.091 338.470,349.421 341.384,348.910 341.068 C 348.740 340.963,348.575 341.299,348.544 341.814 C 348.500 342.552,348.628 342.686,349.144 342.441 C 349.505 342.270,350.334 341.872,350.986 341.557 C 351.763 341.183,352.377 340.435,352.766 339.392 C 353.092 338.517,353.548 337.668,353.779 337.506 C 354.403 337.071,353.517 337.138,352.819 337.580 M49.976 337.824 C 50.873 337.994,51.191 338.304,51.314 339.124 C 51.459 340.095,51.471 340.083,51.437 339.000 C 51.404 337.942,51.246 337.788,50.100 337.700 C 48.862 337.605,48.856 337.611,49.976 337.824 M349.670 338.926 C 349.191 339.435,348.800 339.979,348.800 340.135 C 348.800 340.591,350.711 339.208,350.954 338.576 C 351.286 337.709,350.649 337.883,349.670 338.926 M347.512 344.253 C 347.636 344.900,347.314 345.547,346.431 346.431 C 345.547 347.314,344.900 347.636,344.253 347.512 C 343.684 347.403,343.333 347.530,343.333 347.845 C 343.333 348.387,345.177 348.205,346.491 347.534 C 347.727 346.903,348.878 343.333,347.845 343.333 C 347.530 343.333,347.403 343.684,347.512 344.253 M60.776 348.624 C 61.673 348.794,61.991 349.104,62.114 349.924 C 62.259 350.895,62.271 350.883,62.237 349.800 C 62.204 348.742,62.046 348.588,60.900 348.500 C 59.662 348.405,59.656 348.411,60.776 348.624 M342.267 348.667 C 342.120 348.813,342.000 349.277,342.000 349.697 C 342.000 350.695,339.883 352.800,338.880 352.800 C 338.450 352.800,337.886 353.055,337.627 353.367 C 337.220 353.857,337.413 353.858,339.034 353.370 C 341.463 352.639,341.904 352.240,342.423 350.313 C 342.846 348.743,342.789 348.144,342.267 348.667 M328.500 359.476 C 328.885 359.576,329.515 359.576,329.900 359.476 C 330.285 359.375,329.970 359.293,329.200 359.293 C 328.430 359.293,328.115 359.375,328.500 359.476 M78.400 366.800 C 78.400 367.460,78.549 368.000,78.731 368.000 C 78.913 368.000,78.982 367.460,78.885 366.800 C 78.788 366.140,78.640 365.600,78.555 365.600 C 78.470 365.600,78.400 366.140,78.400 366.800 M321.102 367.400 C 320.997 367.950,321.066 368.400,321.255 368.400 C 321.445 368.400,321.600 367.950,321.600 367.400 C 321.600 366.850,321.531 366.400,321.447 366.400 C 321.362 366.400,321.207 366.850,321.102 367.400 M78.800 369.108 C 78.800 369.332,79.085 369.624,79.433 369.757 C 80.303 370.091,80.400 370.068,80.400 369.533 C 80.400 369.277,80.282 369.185,80.137 369.330 C 79.992 369.475,79.632 369.393,79.337 369.148 C 78.999 368.867,78.800 368.853,78.800 369.108 M320.184 369.227 C 320.039 369.461,320.016 369.749,320.133 369.867 C 320.420 370.153,321.200 369.648,321.200 369.176 C 321.200 368.665,320.509 368.699,320.184 369.227 M84.900 370.276 C 85.285 370.376,85.915 370.376,86.300 370.276 C 86.685 370.175,86.370 370.093,85.600 370.093 C 84.830 370.093,84.515 370.175,84.900 370.276 M314.100 370.276 C 314.485 370.376,315.115 370.376,315.500 370.276 C 315.885 370.175,315.570 370.093,314.800 370.093 C 314.030 370.093,313.715 370.175,314.100 370.276 M94.806 378.471 C 94.803 379.061,95.083 379.826,95.429 380.171 C 96.126 380.869,97.200 381.015,97.200 380.413 C 97.200 380.199,96.923 380.132,96.584 380.262 C 96.191 380.412,96.010 380.298,96.084 379.949 C 96.148 379.647,95.953 379.452,95.651 379.516 C 95.325 379.585,95.188 379.408,95.314 379.080 C 95.431 378.776,95.365 378.274,95.169 377.964 C 94.908 377.551,94.811 377.688,94.806 378.471 M304.583 379.293 C 304.356 379.792,303.952 380.155,303.685 380.100 C 303.418 380.045,303.200 380.180,303.200 380.400 C 303.200 380.620,303.464 380.800,303.786 380.800 C 304.415 380.800,305.335 379.405,305.124 378.771 C 305.053 378.560,304.810 378.795,304.583 379.293 M105.600 384.682 C 105.600 385.439,106.796 386.400,107.729 386.394 C 108.414 386.389,108.476 386.309,108.019 386.020 C 107.700 385.818,107.307 385.734,107.146 385.833 C 106.986 385.932,106.572 385.610,106.227 385.118 C 105.882 384.625,105.600 384.429,105.600 384.682 M282.983 390.093 C 282.756 390.592,282.352 390.955,282.085 390.900 C 281.818 390.845,281.600 390.980,281.600 391.200 C 281.600 391.420,281.864 391.600,282.186 391.600 C 282.815 391.600,283.735 390.205,283.524 389.571 C 283.453 389.360,283.210 389.595,282.983 390.093 M116.976 390.438 C 116.683 390.913,117.451 391.583,118.300 391.594 C 118.575 391.597,118.800 391.426,118.800 391.213 C 118.800 390.999,118.500 390.940,118.134 391.081 C 117.706 391.245,117.566 391.179,117.741 390.896 C 117.891 390.653,117.843 390.350,117.634 390.221 C 117.426 390.092,117.130 390.190,116.976 390.438 M123.105 391.883 C 123.602 391.979,124.322 391.975,124.705 391.875 C 125.087 391.775,124.680 391.696,123.800 391.701 C 122.920 391.705,122.607 391.787,123.105 391.883 M275.905 391.883 C 276.402 391.979,277.122 391.975,277.505 391.875 C 277.887 391.775,277.480 391.696,276.600 391.701 C 275.720 391.705,275.407 391.787,275.905 391.883 M132.493 394.000 C 132.493 394.770,132.575 395.085,132.676 394.700 C 132.776 394.315,132.776 393.685,132.676 393.300 C 132.575 392.915,132.493 393.230,132.493 394.000 M267.152 394.313 C 267.021 395.107,267.079 395.481,267.301 395.259 C 267.503 395.057,267.601 394.467,267.519 393.946 C 267.393 393.145,267.337 393.202,267.152 394.313 M132.800 396.411 C 132.800 396.758,134.353 397.381,134.601 397.132 C 134.678 397.055,134.305 396.785,133.771 396.533 C 133.237 396.281,132.800 396.226,132.800 396.411 " stroke="none" fill="#ffff00" fill-rule="evenodd"></path></g></svg>
