<?xml version="1.0" encoding="utf-8"?>
<!-- Generator: Adobe Illustrator 22.0.1, SVG Export Plug-In . SVG Version: 6.00 Build 0)  -->
<svg version="1.1" id="Layer_1" xmlns="http://www.w3.org/2000/svg" xmlns:xlink="http://www.w3.org/1999/xlink" x="0px" y="0px"
	 viewBox="0 0 64 64" style="enable-background:new 0 0 64 64;" xml:space="preserve">
<style type="text/css">
	.st0{fill:#08C7FB;}
</style>
<title>FS Due Icon</title>
<desc>Created with Sketch.</desc>
<g id="Page-1">
	<g id="Authorization-UI-V9-_x28_ok_x29_-Copy" transform="translate(-408.000000, -310.000000)">
		<g id="Group-4" transform="translate(408.000000, 310.000000)">
			<g id="Group-7">
				<path id="FS-Due-Icon" class="st0" d="M31.6,60.3C16.3,60.3,4,48,4,32.7S16.3,5,31.6,5h20.8c3.9,0,7,3.1,7,7v20.7
					C59.3,48,47,60.3,31.6,60.3z M31.2,46.1c0.3,0.3,0.8,0.2,1.1-0.2l8.8-12.2l1.9-2.8c0.5-0.6,0-1.6-0.8-1.6h-3.9h-9.2l3.2-9.8
					c0.2-0.3,0-0.7-0.3-0.8c-0.3-0.3-0.8-0.2-1.1,0.2l-8.8,12.2l-1.9,2.6c-0.5,0.7,0,1.6,0.8,1.6h3.9h9.2l-3.2,9.8
					C30.9,45.5,30.9,46,31.2,46.1z"/>
			</g>
		</g>
	</g>
</g>
</svg>
