<?xml version="1.0" encoding="iso-8859-1"?>
<!-- Generator: Adobe Illustrator 16.0.0, SVG Export Plug-In . SVG Version: 6.00 Build 0)  -->
<!DOCTYPE svg PUBLIC "-//W3C//DTD SVG 1.1//EN" "http://www.w3.org/Graphics/SVG/1.1/DTD/svg11.dtd">
<svg version="1.1" id="Capa_1" xmlns="http://www.w3.org/2000/svg" xmlns:xlink="http://www.w3.org/1999/xlink" x="0px" y="0px"
	 width="18px" height="18px" viewBox="0 0 661.543 661.544" style="enable-background:new 0 0 661.543 661.544;"
	 xml:space="preserve">
<g>
	<g>
		<path d="M628.351,389.866l-49.869-49.868c-6.797-6.798-14.244-10.038-22.989-10.038c-7.447,0-14.196,2.963-20.075,8.746
			l-39.824,39.182L336.599,536.876c-2.915,3.564-4.407,6.507-4.856,8.096l-26.555,94.225c-0.552,1.969-0.967,3.883-0.967,5.831
			c0,8.096,7.771,16.517,17.809,16.517c2.266,0,3.896-0.276,5.181-0.649l93.583-27.203c3.171-0.919,5.823-1.948,7.771-3.883
			l159.962-159.637l39.175-39.183c5.181-5.181,8.097-11.66,9.07-19.425C636.772,402.819,633.857,395.372,628.351,389.866z
			 M406.867,601.313l-58.932,16.517l17.159-58.932l143.127-143.127l42.415,41.772L406.867,601.313z M575.892,432.281l-42.415-41.772
			l22.665-22.665l41.772,41.772L575.892,432.281z"/>
		<path d="M383.552,311.502H105.078c-10.038,0-17.809,7.771-17.809,17.809s7.771,18.133,17.809,18.133h278.475
			c10.037,0,17.809-8.096,17.809-18.133S393.589,311.502,383.552,311.502z"/>
		<path d="M401.361,409.616c0-10.037-7.771-17.809-17.809-17.809H105.078c-10.038,0-17.809,7.771-17.809,17.809
			s7.771,18.134,17.809,18.134h278.475C393.589,427.75,401.361,419.653,401.361,409.616z"/>
		<path d="M234.278,471.464h-129.2c-10.038,0-17.809,7.771-17.809,17.809s7.771,17.809,17.809,17.809h129.2
			c10.037,0,18.133-7.771,18.133-17.809S244.315,471.464,234.278,471.464z"/>
		<path d="M234.278,551.77h-129.2c-10.038,0-17.809,7.771-17.809,17.809s7.771,17.809,17.809,17.809h129.2
			c10.037,0,18.133-7.771,18.133-17.809S244.315,551.77,234.278,551.77z"/>
		<path d="M60.714,622.68V38.857c0-2.266,0.974-3.24,3.24-3.24h132.765v192.346c0,22.022,16.835,39.832,38.851,39.832h192.346v108.8
			h35.942v-108.8v-35.942h-0.649L232.336,0.649L231.687,0h-34.968H63.954C52.943,0,43.555,3.882,36.108,11.336
			c-7.454,7.447-11.336,16.835-11.336,27.521V622.68c0,22.022,17.16,38.857,39.182,38.857h211.447V625.92H63.954
			C61.688,625.92,60.714,624.952,60.714,622.68z M232.336,51.485l180.361,180.361H235.569c-2.266,0-3.233-1.299-3.233-3.882V51.485
			L232.336,51.485z"/>
	</g>
</g>
<g>
</g>
<g>
</g>
<g>
</g>
<g>
</g>
<g>
</g>
<g>
</g>
<g>
</g>
<g>
</g>
<g>
</g>
<g>
</g>
<g>
</g>
<g>
</g>
<g>
</g>
<g>
</g>
<g>
</g>
</svg>
