<!-- Generated by IcoMoon.io -->
<svg xmlns="http://www.w3.org/2000/svg" version="1.1" width="64" height="64" viewBox="0 0 32 32">
<title>jeff1</title>
<path d="M15.429 0.597c-0.082 0.067-0.173 0.122-0.202 0.122-0.246 0.001-0.394 0.849-0.219 1.248 0.119 0.27 0.175 0.323 0.58 0.56 0.188 0.11 0.262 0.31 0.263 0.707 0.001 0.55-0.115 0.643-0.868 0.691-0.3 0.019-0.59 0.063-0.645 0.098s-0.244 0.091-0.422 0.124c-0.177 0.034-0.433 0.113-0.568 0.177s-0.293 0.116-0.352 0.116c-0.059 0-0.146 0.043-0.194 0.096s-0.154 0.111-0.236 0.129c-0.082 0.018-0.191 0.075-0.242 0.126s-0.151 0.108-0.222 0.125c-0.071 0.018-0.182 0.085-0.247 0.15s-0.14 0.118-0.167 0.118-0.105 0.050-0.174 0.112c-0.236 0.212-0.465 0.385-0.512 0.385-0.026 0-0.073 0.056-0.104 0.124s-0.085 0.125-0.12 0.125c-0.035 0-0.13 0.082-0.212 0.182s-0.196 0.227-0.254 0.284c-0.153 0.151-0.465 0.568-0.465 0.622 0 0.025-0.039 0.076-0.088 0.111s-0.117 0.121-0.152 0.189-0.13 0.236-0.21 0.372c-0.080 0.136-0.179 0.326-0.22 0.422s-0.116 0.252-0.167 0.347c-0.051 0.095-0.108 0.263-0.128 0.372s-0.068 0.248-0.107 0.31c-0.039 0.061-0.117 0.363-0.173 0.67s-0.121 0.659-0.145 0.782-0.045 0.607-0.046 1.075c-0.004 1.056 0.003 1.045-0.722 1.16-0.278 0.044-0.439 0.098-0.537 0.179-0.077 0.064-0.163 0.116-0.191 0.116-0.264 0-0.985 1.021-1.058 1.498-0.054 0.352-0.186 0.387-1.439 0.387-1.174 0-1.357-0.040-1.443-0.313-0.019-0.060-0.084-0.176-0.144-0.258s-0.123-0.188-0.14-0.236c-0.017-0.048-0.059-0.087-0.095-0.087s-0.13-0.061-0.211-0.136c-0.142-0.132-0.166-0.136-0.697-0.136-0.527 0-0.556 0.006-0.712 0.136-0.089 0.075-0.194 0.136-0.233 0.136s-0.071 0.032-0.071 0.072c0 0.039-0.042 0.101-0.094 0.137-0.274 0.192-0.32 1.48-0.055 1.569 0.029 0.009 0.086 0.082 0.127 0.162s0.1 0.144 0.132 0.144c0.032 0 0.105 0.045 0.163 0.099 0.263 0.247 1.119 0.244 1.462-0.005 0.109-0.079 0.221-0.144 0.249-0.144s0.050-0.032 0.050-0.071 0.054-0.135 0.121-0.214c0.066-0.079 0.136-0.204 0.155-0.278 0.066-0.263 0.236-0.303 1.369-0.321 1.261-0.020 1.531 0.069 1.531 0.502 0 0.649 0.925 1.524 1.812 1.715 0.75 0.162 0.668-0.318 0.668 3.928 0 3.489 0.004 3.671 0.097 3.96 0.053 0.166 0.112 0.385 0.131 0.486s0.087 0.261 0.151 0.356 0.117 0.206 0.117 0.248c0 0.042 0.033 0.111 0.074 0.154s0.182 0.213 0.314 0.377 0.347 0.376 0.477 0.471c0.13 0.095 0.276 0.21 0.325 0.255s0.168 0.107 0.264 0.139 0.201 0.089 0.232 0.126c0.031 0.037 0.15 0.083 0.264 0.102s0.32 0.076 0.456 0.128c0.145 0.055 0.375 0.094 0.554 0.094 0.493 0 0.547 0.055 0.687 0.701 0.082 0.376 0.344 0.98 0.457 1.051 0.035 0.022 0.063 0.068 0.063 0.104 0 0.090 0.646 0.743 0.885 0.893 0.109 0.069 0.212 0.147 0.228 0.173s0.102 0.063 0.19 0.082c0.088 0.019 0.228 0.074 0.309 0.123 0.134 0.080 0.417 0.139 1.068 0.222 0.309 0.040 1.302-0.105 1.5-0.219 0.088-0.051 0.216-0.109 0.285-0.129s0.193-0.090 0.278-0.154c0.084-0.064 0.173-0.117 0.197-0.117 0.046 0 0.117-0.064 0.455-0.407 0.364-0.369 0.41-0.421 0.41-0.462 0-0.022 0.052-0.109 0.116-0.193s0.145-0.243 0.18-0.352 0.092-0.232 0.126-0.273c0.035-0.041 0.078-0.197 0.096-0.347 0.074-0.604 0.162-0.695 0.676-0.695 0.163 0 0.372-0.032 0.464-0.070s0.294-0.096 0.449-0.128c0.155-0.032 0.361-0.112 0.458-0.178s0.207-0.12 0.244-0.12c0.037 0 0.106-0.045 0.153-0.099s0.108-0.099 0.136-0.1c0.071-0.001 0.645-0.551 0.685-0.657 0.018-0.048 0.055-0.087 0.083-0.087s0.096-0.084 0.151-0.186 0.121-0.22 0.146-0.26c0.41-0.681 0.413-0.712 0.434-4.862 0.013-2.589 0.035-3.729 0.074-3.805 0.070-0.136 0.215-0.196 0.704-0.289 0.214-0.041 0.452-0.119 0.529-0.173s0.16-0.099 0.186-0.099c0.064 0 0.657-0.577 0.657-0.639 0-0.027 0.042-0.079 0.093-0.115s0.109-0.143 0.13-0.238c0.020-0.096 0.077-0.252 0.127-0.347s0.102-0.231 0.117-0.301c0.052-0.242 0.194-0.27 1.393-0.27h1.1l0.178 0.136c0.113 0.086 0.191 0.195 0.213 0.298 0.146 0.68 1.475 1.029 2.038 0.536 0.094-0.083 0.188-0.151 0.207-0.151s0.066-0.067 0.102-0.15 0.103-0.186 0.147-0.231c0.153-0.153 0.116-0.99-0.053-1.211-0.075-0.098-0.136-0.194-0.136-0.214 0-0.393-1.466-0.65-1.796-0.314-0.074 0.075-0.154 0.136-0.178 0.136s-0.069 0.056-0.1 0.124c-0.031 0.068-0.091 0.124-0.132 0.124-0.043 0-0.076 0.044-0.076 0.102 0 0.144-0.139 0.394-0.218 0.394-0.037 0-0.095 0.034-0.129 0.074-0.052 0.062-0.248 0.074-1.195 0.074h-1.133l-0.126-0.126c-0.069-0.069-0.126-0.155-0.126-0.189s-0.045-0.157-0.1-0.271c-0.055-0.114-0.114-0.276-0.131-0.358s-0.072-0.173-0.123-0.2-0.093-0.073-0.093-0.101c0-0.078-0.314-0.44-0.383-0.441-0.033-0.001-0.084-0.046-0.113-0.1s-0.083-0.099-0.119-0.099c-0.036 0-0.141-0.051-0.234-0.114-0.098-0.066-0.325-0.141-0.54-0.179-0.692-0.12-0.741-0.189-0.743-1.053s-0.126-2.034-0.246-2.326c-0.051-0.123-0.109-0.324-0.128-0.447s-0.076-0.274-0.125-0.336c-0.049-0.062-0.104-0.202-0.122-0.31s-0.049-0.197-0.069-0.197c-0.046 0-0.203-0.327-0.203-0.423 0-0.040-0.023-0.073-0.050-0.073s-0.089-0.084-0.136-0.186c-0.047-0.102-0.136-0.237-0.198-0.3s-0.112-0.141-0.112-0.174c0-0.033-0.045-0.088-0.099-0.122s-0.099-0.088-0.099-0.119c0-0.032-0.061-0.122-0.136-0.201-0.307-0.322-0.917-0.915-1.061-1.031-0.085-0.068-0.208-0.174-0.274-0.236s-0.149-0.112-0.183-0.112c-0.035 0-0.115-0.055-0.178-0.121s-0.178-0.136-0.257-0.153c-0.079-0.017-0.164-0.072-0.191-0.121s-0.126-0.104-0.221-0.122-0.208-0.067-0.251-0.11c-0.042-0.042-0.191-0.107-0.329-0.144s-0.29-0.101-0.337-0.144-0.14-0.078-0.206-0.078c-0.12-0-0.482-0.092-0.765-0.193-0.082-0.029-0.37-0.067-0.64-0.084-0.678-0.042-0.724-0.089-0.724-0.734 0-0.458 0.053-0.626 0.198-0.626 0.11 0 0.548-0.47 0.594-0.638 0.16-0.576 0.040-0.949-0.428-1.321-0.228-0.182-0.862-0.181-1.084 0.001zM16.468 0.972c0.508 0.557 0.215 1.237-0.532 1.235-0.354-0.001-0.371-0.009-0.576-0.267-0.546-0.687 0.518-1.616 1.109-0.968zM16.713 4.222c0.44 0.044 0.889 0.112 0.999 0.152s0.332 0.106 0.494 0.146 0.33 0.103 0.372 0.14c0.042 0.037 0.154 0.083 0.25 0.104s0.227 0.079 0.292 0.13 0.144 0.093 0.175 0.093c0.056 0 0.478 0.252 0.722 0.431 0.067 0.049 0.162 0.106 0.211 0.125s0.088 0.059 0.088 0.088c0 0.029 0.045 0.069 0.099 0.089 0.13 0.048 1.131 1.041 1.169 1.159 0.016 0.050 0.048 0.091 0.070 0.091s0.094 0.082 0.158 0.182c0.064 0.1 0.178 0.273 0.253 0.385s0.18 0.291 0.235 0.401c0.054 0.109 0.119 0.232 0.144 0.273 0.133 0.218 0.303 0.619 0.333 0.782 0.018 0.102 0.073 0.264 0.121 0.36s0.103 0.286 0.121 0.422c0.018 0.136 0.065 0.422 0.104 0.637 0.059 0.325 0.070 1.574 0.070 7.489v7.099l-0.107 0.449c-0.059 0.247-0.135 0.482-0.169 0.523s-0.099 0.168-0.145 0.281c-0.045 0.114-0.114 0.219-0.153 0.234s-0.071 0.060-0.071 0.1c0 0.040-0.041 0.102-0.091 0.138s-0.118 0.115-0.151 0.177c-0.032 0.061-0.090 0.112-0.128 0.112s-0.083 0.044-0.1 0.097c-0.017 0.053-0.075 0.111-0.129 0.128s-0.152 0.085-0.219 0.151-0.151 0.12-0.189 0.12c-0.038 0-0.109 0.044-0.158 0.098s-0.17 0.111-0.268 0.128c-0.099 0.016-0.269 0.078-0.378 0.137l-0.198 0.108h-4.564c-4.633 0-4.616 0.001-4.887-0.171-0.041-0.026-0.159-0.061-0.263-0.077s-0.232-0.074-0.285-0.127c-0.053-0.053-0.126-0.096-0.162-0.096s-0.118-0.056-0.182-0.124-0.141-0.124-0.17-0.124c-0.115-0-0.822-0.841-0.822-0.978 0-0.035-0.020-0.063-0.046-0.063s-0.083-0.106-0.13-0.236c-0.046-0.13-0.126-0.34-0.178-0.468-0.091-0.224-0.094-0.491-0.094-7.625 0-7.209 0.011-7.787 0.148-7.968 0.021-0.027 0.053-0.184 0.073-0.347s0.074-0.366 0.123-0.449c0.048-0.083 0.103-0.232 0.121-0.33s0.075-0.231 0.125-0.295c0.050-0.064 0.107-0.188 0.126-0.274s0.067-0.185 0.106-0.217c0.040-0.033 0.115-0.157 0.168-0.276s0.119-0.217 0.148-0.217c0.029 0 0.052-0.030 0.052-0.066 0-0.256 1.658-1.968 1.906-1.968 0.030 0 0.082-0.045 0.116-0.099s0.094-0.099 0.132-0.099c0.039 0 0.133-0.053 0.21-0.117s0.196-0.135 0.264-0.156c0.068-0.021 0.177-0.080 0.242-0.131s0.155-0.092 0.199-0.092c0.044 0 0.181-0.053 0.303-0.117s0.312-0.133 0.421-0.151c0.109-0.019 0.31-0.078 0.447-0.131 0.15-0.059 0.522-0.123 0.943-0.164 0.382-0.037 0.714-0.071 0.738-0.074s0.403 0.029 0.843 0.073zM14.881 5.974c-0.064 0.061-0.557 0.203-0.706 0.203-0.066 0-0.177 0.045-0.246 0.1s-0.215 0.114-0.322 0.131c-0.107 0.017-0.206 0.060-0.219 0.094s-0.095 0.091-0.182 0.126c-0.087 0.035-0.221 0.115-0.298 0.178s-0.16 0.115-0.184 0.115c-0.024 0-0.098 0.050-0.164 0.112-0.374 0.346-0.765 0.738-0.851 0.854-0.055 0.073-0.144 0.181-0.198 0.24s-0.131 0.164-0.169 0.233c-0.038 0.069-0.133 0.236-0.21 0.373s-0.16 0.293-0.184 0.347c-0.455 1.033-0.466 1.128-0.488 4.422l-0.019 2.834 0.123 0.375c0.067 0.206 0.163 0.42 0.212 0.474s0.168 0.19 0.263 0.301c0.095 0.111 0.194 0.202 0.22 0.202s0.093 0.043 0.149 0.096c0.255 0.238 0.509 0.252 4.576 0.252 4.128 0 4.2-0.004 4.556-0.276 0.087-0.066 0.174-0.121 0.192-0.121 0.045 0 0.378-0.334 0.378-0.378 0-0.019 0.052-0.103 0.116-0.188 0.212-0.281 0.232-0.571 0.232-3.409 0-2.679-0.042-3.582-0.177-3.788-0.037-0.056-0.092-0.221-0.124-0.367s-0.11-0.344-0.176-0.44c-0.065-0.096-0.119-0.212-0.119-0.256s-0.045-0.119-0.099-0.166c-0.055-0.047-0.099-0.116-0.099-0.153s-0.067-0.144-0.148-0.236c-0.081-0.092-0.148-0.188-0.149-0.212s-0.051-0.095-0.112-0.156-0.198-0.204-0.303-0.316c-0.105-0.112-0.21-0.203-0.232-0.203s-0.055-0.045-0.073-0.099c-0.017-0.055-0.064-0.099-0.103-0.099s-0.12-0.056-0.179-0.124-0.134-0.124-0.166-0.124c-0.032 0-0.118-0.056-0.192-0.124s-0.164-0.124-0.202-0.124-0.131-0.053-0.208-0.118c-0.077-0.065-0.212-0.133-0.299-0.152s-0.21-0.074-0.273-0.121c-0.063-0.048-0.268-0.114-0.456-0.148s-0.405-0.094-0.481-0.133c-0.16-0.083-2.122-0.107-2.205-0.027zM17.247 6.362c0.121 0.054 0.309 0.114 0.417 0.134s0.275 0.078 0.37 0.13 0.257 0.126 0.36 0.167c0.102 0.041 0.186 0.097 0.186 0.126s0.028 0.052 0.062 0.052c0.123 0 0.616 0.381 1.005 0.777 0.392 0.399 0.453 0.47 0.692 0.811 0.148 0.211 0.474 0.856 0.474 0.937 0 0.032 0.042 0.142 0.094 0.243 0.455 0.895 0.445 6.683-0.013 7.266-0.258 0.329-0.485 0.521-0.668 0.566-0.073 0.018-0.187 0.068-0.254 0.111-0.187 0.122-7.807 0.12-7.993-0.001-0.067-0.044-0.195-0.096-0.283-0.115s-0.188-0.074-0.223-0.121c-0.034-0.047-0.103-0.102-0.154-0.12s-0.103-0.077-0.116-0.13c-0.014-0.053-0.055-0.107-0.093-0.121s-0.135-0.171-0.218-0.349l-0.151-0.323v-2.819c0-2.38 0.012-2.862 0.076-3.090 0.042-0.149 0.108-0.414 0.148-0.589s0.102-0.353 0.139-0.397c0.037-0.044 0.094-0.176 0.128-0.293s0.093-0.226 0.133-0.241c0.039-0.015 0.072-0.067 0.072-0.115 0-0.085 0.181-0.356 0.392-0.586 0.057-0.062 0.104-0.13 0.104-0.151 0-0.126 1.171-1.15 1.315-1.15 0.034 0 0.088-0.032 0.121-0.072s0.142-0.098 0.242-0.131c0.1-0.033 0.233-0.099 0.295-0.147s0.207-0.104 0.322-0.123c0.115-0.019 0.274-0.068 0.352-0.108 0.366-0.187 2.26-0.207 2.666-0.027zM13.371 9.749c-0.029 0.055-0.083 0.099-0.12 0.099-0.107 0-0.339 0.344-0.382 0.565-0.083 0.437-0.009 0.692 0.295 1.008l0.276 0.287h0.461c0.421 0 0.467-0.010 0.539-0.112 0.043-0.061 0.111-0.112 0.151-0.112s0.093-0.054 0.118-0.12c0.025-0.066 0.086-0.143 0.135-0.17 0.15-0.084 0.132-0.968-0.022-1.076-0.061-0.043-0.112-0.108-0.112-0.144s-0.065-0.093-0.145-0.126c-0.080-0.033-0.157-0.092-0.172-0.13-0.047-0.124-0.954-0.098-1.022 0.029zM17.354 9.886c-0.682 0.622-0.354 1.754 0.533 1.835 0.377 0.034 0.603-0.013 0.758-0.157 0.070-0.065 0.145-0.126 0.167-0.135 0.203-0.089 0.401-0.95 0.247-1.077-0.036-0.030-0.096-0.145-0.132-0.254s-0.092-0.199-0.125-0.199c-0.032 0-0.124-0.056-0.203-0.124-0.129-0.111-0.187-0.124-0.566-0.123l-0.422 0.001-0.258 0.235zM14.216 9.998c0.282 0.151 0.367 0.293 0.387 0.644l0.019 0.34-0.2 0.202c-0.288 0.291-0.74 0.301-1.035 0.023-0.585-0.551 0.125-1.586 0.829-1.209zM18.561 10.153c0.49 0.49 0.177 1.233-0.52 1.233-0.405 0-0.548-0.101-0.702-0.496-0.273-0.7 0.683-1.276 1.222-0.737zM8.332 13.183c0.118 0.169 0.116 3.754-0.003 3.935-0.093 0.142-0.421 0.172-0.591 0.055-0.054-0.037-0.178-0.082-0.277-0.1s-0.219-0.077-0.268-0.131-0.117-0.098-0.151-0.098c-0.070 0-0.568-0.528-0.568-0.601 0-0.026-0.046-0.11-0.102-0.185-0.266-0.359-0.226-1.893 0.048-1.893 0.023 0 0.055-0.051 0.071-0.113 0.034-0.136 0.501-0.632 0.595-0.632 0.037 0 0.107-0.045 0.156-0.099s0.125-0.1 0.169-0.102c0.044-0.002 0.157-0.032 0.253-0.068 0.29-0.11 0.577-0.096 0.667 0.033zM24.335 13.17c1.251 0.321 1.877 2.206 1.055 3.179-0.268 0.317-0.451 0.494-0.512 0.494-0.040 0-0.099 0.044-0.132 0.097s-0.142 0.112-0.243 0.131c-0.1 0.019-0.24 0.064-0.311 0.101-0.139 0.073-0.393 0.088-0.481 0.030-0.201-0.133-0.218-0.294-0.218-2.062 0-2.212-0.010-2.189 0.843-1.97zM13.322 13.566c-0.074 0.224 0.035 0.987 0.162 1.138 0.038 0.045 0.097 0.152 0.131 0.239s0.193 0.288 0.353 0.447c0.409 0.406 0.479 0.461 0.684 0.546 0.1 0.041 0.215 0.104 0.256 0.14 0.091 0.078 0.682 0.174 1.076 0.173 0.857-0.001 1.584-0.332 2.050-0.933 0.095-0.122 0.212-0.264 0.259-0.314s0.087-0.122 0.087-0.158 0.055-0.174 0.122-0.307c0.142-0.28 0.211-0.823 0.132-1.029l-0.053-0.136h-5.196l-0.065 0.195zM18.241 13.8c0.303 0.274-0.494 1.681-1.013 1.788-0.075 0.015-0.136 0.049-0.136 0.074 0 0.065-0.318 0.19-0.485 0.19-0.077 0-0.164 0.024-0.193 0.052-0.097 0.097-0.594 0.116-0.823 0.033-0.116-0.043-0.305-0.092-0.419-0.11s-0.235-0.066-0.269-0.106c-0.034-0.040-0.135-0.104-0.225-0.142-0.588-0.246-1.237-1.452-0.96-1.785 0.099-0.119 4.392-0.113 4.524 0.007zM2.12 14.186c0.075 0.016 0.213 0.107 0.308 0.202 0.455 0.455 0.356 1.467-0.163 1.669-0.399 0.155-0.672 0.186-0.774 0.088-0.026-0.025-0.098-0.045-0.161-0.045-0.344 0-0.879-1.050-0.617-1.212 0.024-0.015 0.056-0.093 0.073-0.174 0.065-0.322 0.742-0.698 1.075-0.596 0.068 0.021 0.185 0.051 0.259 0.068zM30.536 14.168c0.708 0.162 0.949 1.108 0.433 1.698-0.331 0.379-1.113 0.407-1.463 0.052-0.318-0.322-0.479-0.948-0.285-1.109 0.041-0.034 0.074-0.093 0.074-0.13 0-0.35 0.694-0.636 1.24-0.511zM10.94 20.936c-0.064 0.068-0.143 0.124-0.174 0.124-0.086 0-0.198 0.386-0.195 0.67 0.014 1.157 1.736 1.133 1.756-0.025 0.004-0.222-0.147-0.645-0.229-0.645-0.035 0-0.1-0.056-0.145-0.124-0.076-0.116-0.109-0.124-0.489-0.124-0.37 0-0.418 0.011-0.524 0.124zM11.699 21.156c0.167 0.064 0.357 0.385 0.338 0.572-0.052 0.499-0.758 0.749-1.012 0.358-0.374-0.575 0.055-1.166 0.674-0.93zM16.599 21.453c-0.114 0.161-0.154 1.302-0.054 1.564l0.048 0.127h2.377c2.122 0 2.381-0.008 2.407-0.078 0.040-0.103 0.039-1.428-0.001-1.532-0.083-0.215-0.197-0.226-2.494-0.226h-2.182l-0.103 0.144zM20.991 21.76c0.117 0.129 0.139 0.887 0.030 0.997-0.124 0.124-4.054 0.091-4.148-0.035-0.187-0.25-0.138-0.836 0.082-0.991 0.197-0.138 3.909-0.112 4.036 0.028zM11.152 23.758c-0.181 0.032-0.268 0.072-0.288 0.135-0.016 0.049-0.069 0.103-0.119 0.119-0.131 0.042-0.216 0.505-0.149 0.81 0.217 0.991 1.721 0.8 1.731-0.22 0.006-0.635-0.458-0.968-1.175-0.844zM11.651 24.062c0.118 0.049 0.221 0.149 0.308 0.297l0.131 0.223-0.104 0.211c-0.272 0.55-0.877 0.527-1.076-0.041-0.068-0.193-0.063-0.224 0.078-0.517 0.093-0.192 0.416-0.277 0.664-0.174zM19.015 28.381c0.167 0.117 0.095 0.834-0.107 1.057-0.044 0.049-0.081 0.121-0.081 0.16 0 0.083-0.387 0.641-0.445 0.641-0.022 0-0.052 0.045-0.066 0.099s-0.067 0.115-0.117 0.134c-0.050 0.019-0.132 0.086-0.182 0.149s-0.111 0.114-0.136 0.114-0.091 0.045-0.147 0.101c-0.055 0.055-0.166 0.114-0.245 0.13s-0.155 0.058-0.169 0.095c-0.028 0.073-0.332 0.17-0.532 0.171-0.071 0-0.203 0.037-0.294 0.083-0.212 0.106-0.794 0.107-1.065 0.002-0.109-0.042-0.297-0.088-0.417-0.102s-0.28-0.071-0.355-0.126c-0.075-0.055-0.196-0.116-0.269-0.134s-0.159-0.075-0.191-0.126c-0.032-0.051-0.084-0.093-0.117-0.093-0.083 0-0.662-0.589-0.662-0.674 0-0.039-0.031-0.070-0.070-0.070s-0.093-0.068-0.122-0.15c-0.029-0.083-0.086-0.184-0.128-0.226s-0.099-0.169-0.128-0.284c-0.029-0.115-0.087-0.289-0.129-0.386-0.109-0.253-0.075-0.499 0.080-0.577 0.205-0.103 5.943-0.091 6.091 0.013z"/>
<path d="M15.474 0.443c-0.843 0.367-0.9 1.574-0.098 2.087 0.513 0.328 0.526 1.131 0.020 1.236-0.064 0.013-0.375 0.060-0.693 0.103s-0.702 0.123-0.855 0.176c-0.153 0.054-0.302 0.098-0.333 0.098-0.066 0-0.654 0.252-1.064 0.456-0.302 0.151-0.55 0.302-0.899 0.548-0.106 0.075-0.248 0.174-0.317 0.221-0.271 0.186-1.238 1.204-1.498 1.578-1.017 1.461-1.425 2.869-1.428 4.921-0.001 0.652-0.046 0.758-0.322 0.76-0.138 0.001-0.856 0.254-1.062 0.373-0.444 0.258-0.995 0.993-1.076 1.434-0.076 0.413-0.114 0.425-1.379 0.425-1.292 0-1.239 0.012-1.401-0.309-0.719-1.419-2.828-0.967-2.81 0.603 0.018 1.562 2.127 2.026 2.801 0.615 0.167-0.35 0.212-0.361 1.389-0.362 1.272-0.001 1.294 0.007 1.409 0.52 0.181 0.81 1.135 1.586 2.14 1.741 0.321 0.049 0.304-0.156 0.322 3.891l0.016 3.744 0.14 0.422c0.492 1.478 1.678 2.477 3.132 2.637 0.656 0.072 0.684 0.084 0.734 0.315 0.347 1.596 1.329 2.654 2.788 3.004 1.917 0.46 3.954-0.775 4.361-2.644 0.098-0.448 0.16-0.578 0.289-0.603 0.062-0.012 0.314-0.046 0.56-0.076 1.471-0.179 2.696-1.223 3.119-2.658 0.098-0.334 0.103-0.494 0.129-4.104 0.023-3.253 0.036-3.766 0.101-3.825 0.041-0.038 0.273-0.116 0.516-0.174 0.933-0.223 1.915-1.166 1.915-1.837 0-0.303 0.096-0.329 1.268-0.346 1.285-0.018 1.308-0.012 1.511 0.389 0.76 1.506 2.968 0.783 2.757-0.903-0.146-1.17-1.698-1.639-2.505-0.756-0.139 0.152-0.252 0.306-0.252 0.341s-0.065 0.134-0.144 0.219l-0.144 0.154h-1.142c-1.281 0-1.253 0.007-1.351-0.362-0.251-0.943-1.341-1.871-2.198-1.871-0.269 0-0.301-0.12-0.333-1.233-0.039-1.352-0.21-2.202-0.618-3.068-0.067-0.142-0.121-0.268-0.121-0.281s-0.081-0.165-0.181-0.338c-0.099-0.173-0.205-0.359-0.236-0.414-0.268-0.483-1.176-1.481-1.748-1.92-0.371-0.286-1.158-0.784-1.238-0.784-0.032 0-0.084-0.031-0.116-0.070s-0.115-0.084-0.185-0.101c-0.070-0.018-0.22-0.074-0.333-0.124-0.404-0.182-1.063-0.356-1.683-0.445-0.85-0.122-0.879-0.144-0.879-0.652 0-0.438-0.001-0.436 0.436-0.766 1.075-0.81 0.029-2.528-1.211-1.988zM16.514 0.596c0.467 0.373 0.588 0.745 0.428 1.321-0.047 0.168-0.484 0.638-0.594 0.638-0.145 0-0.198 0.168-0.198 0.626 0 0.645 0.046 0.691 0.724 0.734 0.27 0.017 0.558 0.055 0.64 0.084 0.283 0.101 0.645 0.192 0.765 0.193 0.066 0 0.159 0.036 0.206 0.078s0.199 0.107 0.337 0.144c0.139 0.036 0.287 0.101 0.329 0.144s0.155 0.092 0.251 0.11 0.195 0.073 0.221 0.122c0.026 0.049 0.112 0.104 0.191 0.121s0.194 0.086 0.257 0.153c0.063 0.067 0.143 0.121 0.178 0.121s0.117 0.050 0.183 0.112 0.189 0.167 0.274 0.236c0.144 0.116 0.755 0.709 1.061 1.031 0.075 0.079 0.136 0.169 0.136 0.201s0.045 0.085 0.099 0.119c0.055 0.034 0.099 0.089 0.099 0.122s0.050 0.112 0.112 0.174c0.061 0.063 0.15 0.198 0.198 0.3s0.109 0.186 0.136 0.186c0.028 0 0.050 0.033 0.050 0.073 0 0.096 0.157 0.423 0.203 0.423 0.020 0 0.051 0.089 0.069 0.197s0.073 0.248 0.122 0.31c0.049 0.062 0.105 0.214 0.125 0.336s0.078 0.324 0.128 0.447c0.12 0.292 0.244 1.461 0.246 2.326s0.051 0.933 0.743 1.053c0.216 0.037 0.443 0.113 0.54 0.179 0.093 0.063 0.198 0.114 0.234 0.114s0.090 0.045 0.119 0.099 0.080 0.1 0.113 0.1c0.069 0.001 0.383 0.363 0.383 0.441 0 0.028 0.042 0.074 0.093 0.101s0.106 0.117 0.123 0.2c0.017 0.083 0.075 0.244 0.131 0.358s0.1 0.236 0.1 0.271 0.057 0.12 0.126 0.189l0.126 0.126h1.133c0.946 0 1.143-0.012 1.195-0.074 0.034-0.041 0.092-0.074 0.129-0.074 0.080 0 0.218-0.25 0.218-0.394 0-0.058 0.032-0.102 0.076-0.102 0.041 0 0.101-0.056 0.132-0.124s0.076-0.124 0.1-0.124c0.024 0 0.104-0.061 0.178-0.136 0.331-0.336 1.796-0.079 1.796 0.314 0 0.020 0.061 0.116 0.136 0.214 0.169 0.222 0.206 1.058 0.053 1.211-0.045 0.045-0.111 0.149-0.147 0.231s-0.082 0.15-0.102 0.15c-0.020 0-0.113 0.068-0.207 0.151-0.562 0.494-1.892 0.144-2.038-0.536-0.022-0.102-0.1-0.212-0.213-0.298l-0.178-0.136h-1.1c-1.2 0-1.342 0.027-1.393 0.27-0.015 0.070-0.068 0.206-0.117 0.301s-0.107 0.252-0.127 0.347c-0.020 0.096-0.078 0.203-0.13 0.238s-0.093 0.087-0.093 0.115c0 0.063-0.593 0.639-0.657 0.639-0.026 0-0.11 0.045-0.186 0.099s-0.314 0.132-0.529 0.173c-0.49 0.093-0.635 0.153-0.704 0.289-0.039 0.076-0.061 1.216-0.074 3.805-0.021 4.15-0.023 4.181-0.434 4.862-0.025 0.041-0.090 0.158-0.146 0.26s-0.123 0.186-0.151 0.186c-0.028 0-0.065 0.039-0.083 0.087-0.040 0.106-0.614 0.656-0.685 0.657-0.028 0-0.089 0.045-0.136 0.1s-0.116 0.099-0.153 0.099c-0.037 0-0.147 0.054-0.244 0.12s-0.303 0.146-0.458 0.178c-0.155 0.032-0.357 0.090-0.449 0.128s-0.301 0.070-0.464 0.070c-0.513 0-0.601 0.090-0.676 0.695-0.018 0.15-0.062 0.306-0.096 0.347s-0.091 0.164-0.126 0.273-0.116 0.268-0.18 0.352c-0.064 0.084-0.116 0.171-0.116 0.193 0 0.041-0.046 0.093-0.41 0.462-0.338 0.343-0.41 0.407-0.455 0.407-0.024 0-0.112 0.053-0.197 0.117s-0.209 0.134-0.278 0.154c-0.068 0.020-0.196 0.078-0.285 0.129-0.198 0.114-1.191 0.258-1.5 0.219-0.651-0.083-0.933-0.142-1.068-0.222-0.082-0.049-0.221-0.104-0.309-0.123s-0.174-0.055-0.19-0.082-0.119-0.104-0.228-0.173c-0.238-0.15-0.885-0.803-0.885-0.893 0-0.035-0.028-0.082-0.063-0.104-0.112-0.071-0.375-0.675-0.457-1.051-0.141-0.646-0.194-0.701-0.687-0.701-0.179 0-0.409-0.039-0.554-0.094-0.136-0.051-0.342-0.109-0.456-0.128s-0.233-0.065-0.264-0.102c-0.031-0.037-0.135-0.094-0.232-0.126s-0.215-0.094-0.264-0.139c-0.049-0.045-0.195-0.159-0.325-0.255s-0.345-0.307-0.477-0.471c-0.132-0.164-0.274-0.333-0.314-0.377s-0.074-0.113-0.074-0.154-0.053-0.153-0.117-0.248c-0.064-0.095-0.132-0.255-0.151-0.356s-0.078-0.32-0.131-0.486c-0.092-0.289-0.097-0.471-0.097-3.96 0-4.245 0.082-3.766-0.668-3.928-0.888-0.191-1.812-1.066-1.812-1.715 0-0.433-0.27-0.521-1.531-0.502-1.133 0.018-1.303 0.058-1.369 0.321-0.019 0.074-0.088 0.199-0.155 0.278s-0.121 0.175-0.121 0.214-0.023 0.071-0.050 0.071c-0.028 0-0.14 0.065-0.249 0.144-0.344 0.249-1.2 0.252-1.462 0.005-0.058-0.055-0.131-0.099-0.163-0.099s-0.091-0.065-0.132-0.144-0.098-0.152-0.127-0.162c-0.265-0.088-0.219-1.377 0.055-1.569 0.052-0.036 0.094-0.098 0.094-0.137s0.032-0.072 0.071-0.072 0.144-0.061 0.233-0.136c0.156-0.131 0.185-0.136 0.712-0.136 0.531 0 0.555 0.005 0.697 0.136 0.081 0.075 0.176 0.136 0.211 0.136s0.078 0.039 0.095 0.087c0.017 0.048 0.080 0.154 0.14 0.236s0.125 0.198 0.144 0.258c0.086 0.273 0.269 0.313 1.443 0.313 1.252 0 1.385-0.036 1.439-0.387 0.073-0.477 0.795-1.498 1.058-1.498 0.028 0 0.113-0.052 0.191-0.116 0.098-0.081 0.26-0.135 0.537-0.179 0.726-0.115 0.719-0.103 0.722-1.16 0.002-0.469 0.022-0.953 0.046-1.075s0.089-0.475 0.145-0.782c0.056-0.307 0.134-0.609 0.173-0.67s0.087-0.2 0.107-0.31 0.077-0.277 0.128-0.372c0.051-0.095 0.126-0.252 0.167-0.347s0.14-0.285 0.22-0.422c0.080-0.136 0.174-0.304 0.21-0.372s0.104-0.153 0.152-0.189c0.048-0.036 0.088-0.086 0.088-0.111 0-0.054 0.312-0.471 0.465-0.622 0.058-0.057 0.172-0.185 0.254-0.284s0.177-0.181 0.212-0.182c0.035-0.001 0.088-0.057 0.12-0.125s0.078-0.124 0.104-0.124c0.047 0 0.276-0.172 0.512-0.385 0.068-0.061 0.146-0.112 0.174-0.112s0.103-0.053 0.167-0.118c0.065-0.065 0.176-0.132 0.247-0.15s0.171-0.074 0.222-0.125 0.16-0.108 0.242-0.126c0.082-0.018 0.188-0.076 0.236-0.129s0.135-0.096 0.194-0.096c0.059 0 0.217-0.052 0.352-0.116s0.391-0.144 0.568-0.177 0.367-0.089 0.422-0.124c0.055-0.035 0.345-0.079 0.645-0.098 0.753-0.048 0.869-0.14 0.868-0.691-0.001-0.398-0.075-0.598-0.263-0.707-0.405-0.237-0.46-0.29-0.58-0.56-0.176-0.398-0.027-1.246 0.219-1.248 0.029-0 0.12-0.055 0.202-0.122 0.223-0.182 0.856-0.183 1.084-0.001zM15.643 0.831c-0.242 0.113-0.437 0.418-0.437 0.683 0 0.767 1.083 1.004 1.421 0.312 0.302-0.617-0.36-1.287-0.984-0.994zM16.285 0.975c0.42 0.26 0.396 0.885-0.043 1.112-0.462 0.239-1.051-0.25-0.89-0.739 0.138-0.419 0.575-0.594 0.933-0.373zM15.132 4.224c-0.421 0.041-0.792 0.106-0.943 0.164-0.136 0.053-0.337 0.112-0.447 0.131s-0.299 0.087-0.421 0.151-0.259 0.117-0.303 0.117c-0.044 0-0.134 0.042-0.199 0.092s-0.174 0.11-0.242 0.131c-0.068 0.021-0.187 0.091-0.264 0.156s-0.172 0.117-0.21 0.117c-0.039 0-0.098 0.045-0.132 0.099s-0.086 0.099-0.116 0.099c-0.248 0-1.906 1.712-1.906 1.968 0 0.036-0.024 0.066-0.052 0.066s-0.096 0.098-0.148 0.217-0.128 0.244-0.168 0.276c-0.039 0.033-0.087 0.131-0.106 0.217s-0.076 0.21-0.126 0.274c-0.050 0.064-0.106 0.197-0.125 0.295s-0.073 0.246-0.121 0.33c-0.048 0.083-0.104 0.286-0.123 0.449s-0.052 0.32-0.073 0.347c-0.138 0.181-0.148 0.76-0.148 7.968 0 7.134 0.003 7.401 0.094 7.625 0.052 0.128 0.132 0.338 0.178 0.468s0.104 0.236 0.13 0.236c0.025 0 0.046 0.029 0.046 0.063 0 0.137 0.707 0.978 0.822 0.978 0.029 0 0.106 0.056 0.17 0.124s0.146 0.124 0.182 0.124c0.036 0 0.109 0.043 0.162 0.096s0.181 0.11 0.285 0.127c0.104 0.017 0.222 0.051 0.263 0.077 0.271 0.172 0.254 0.171 4.887 0.171h4.564l0.198-0.108c0.109-0.060 0.279-0.121 0.378-0.137s0.219-0.073 0.268-0.128 0.12-0.098 0.158-0.098c0.038 0 0.123-0.054 0.189-0.12s0.164-0.134 0.219-0.151c0.054-0.017 0.112-0.075 0.129-0.128s0.062-0.097 0.1-0.097c0.038 0 0.096-0.050 0.128-0.112s0.1-0.141 0.151-0.177c0.050-0.036 0.091-0.098 0.091-0.138s0.032-0.085 0.071-0.1 0.108-0.12 0.153-0.234c0.045-0.114 0.11-0.241 0.145-0.281s0.11-0.276 0.169-0.523l0.107-0.449v-7.099c0-5.915-0.012-7.164-0.070-7.489-0.039-0.214-0.085-0.501-0.104-0.637s-0.073-0.325-0.121-0.422c-0.048-0.096-0.103-0.258-0.121-0.36-0.030-0.163-0.2-0.564-0.333-0.782-0.025-0.041-0.090-0.164-0.144-0.273s-0.16-0.29-0.235-0.401c-0.075-0.111-0.188-0.284-0.253-0.385s-0.135-0.182-0.158-0.182c-0.023 0-0.054-0.041-0.070-0.091-0.037-0.118-1.039-1.111-1.169-1.159-0.054-0.020-0.099-0.060-0.099-0.089s-0.040-0.069-0.088-0.088c-0.049-0.020-0.143-0.076-0.211-0.125-0.244-0.179-0.666-0.431-0.722-0.431-0.031 0-0.11-0.042-0.175-0.093s-0.196-0.109-0.292-0.13c-0.096-0.020-0.208-0.067-0.25-0.104s-0.209-0.1-0.372-0.14c-0.163-0.040-0.385-0.106-0.494-0.146-0.164-0.060-1.696-0.247-1.842-0.224-0.024 0.004-0.356 0.037-0.738 0.074zM17.687 4.483c2.783 0.745 4.916 3.071 5.306 5.787 0.069 0.479 0.070 14.749 0.001 15.113-0.196 1.037-1.156 2.030-2.306 2.386-0.386 0.12-8.345 0.203-8.962 0.094-1.435-0.254-2.38-1.076-2.779-2.415l-0.117-0.394-0.014-6.832c-0.014-6.827-0.006-7.222 0.162-8.151 0.113-0.623 0.422-1.544 0.625-1.86 0.026-0.041 0.087-0.153 0.135-0.248 1.354-2.703 4.956-4.28 7.948-3.48zM15.38 5.839c-0.273 0.021-0.608 0.070-0.744 0.109s-0.374 0.107-0.529 0.15c-1.633 0.461-3.051 2-3.605 3.912l-0.133 0.458v6.152l0.138 0.29c0.263 0.554 0.651 0.918 1.204 1.133l0.295 0.115h7.938l0.328-0.139c0.611-0.259 1.035-0.719 1.229-1.335 0.159-0.505 0.162-5.458 0.004-6.283-0.285-1.483-1.182-2.885-2.305-3.601-0.164-0.104-0.354-0.228-0.422-0.275-0.736-0.503-2.129-0.784-3.398-0.686zM17.086 6c0.076 0.039 0.293 0.099 0.481 0.133s0.394 0.1 0.456 0.148c0.063 0.048 0.185 0.102 0.273 0.121s0.222 0.088 0.299 0.152c0.077 0.065 0.171 0.118 0.208 0.118s0.128 0.056 0.202 0.124c0.074 0.068 0.16 0.124 0.192 0.124s0.107 0.056 0.166 0.124c0.059 0.068 0.14 0.124 0.179 0.124s0.086 0.045 0.103 0.099 0.050 0.099 0.073 0.099c0.023 0 0.127 0.091 0.232 0.203s0.241 0.254 0.303 0.316 0.112 0.132 0.112 0.156c0 0.024 0.067 0.119 0.149 0.212s0.148 0.199 0.148 0.236 0.045 0.106 0.099 0.153c0.055 0.047 0.099 0.122 0.099 0.166s0.053 0.16 0.119 0.256c0.065 0.096 0.144 0.294 0.176 0.44s0.087 0.311 0.124 0.367c0.135 0.206 0.177 1.109 0.177 3.788 0 2.839-0.020 3.128-0.232 3.41-0.064 0.084-0.116 0.169-0.116 0.188 0 0.045-0.334 0.378-0.378 0.378-0.019 0-0.105 0.054-0.192 0.121-0.356 0.272-0.428 0.276-4.556 0.276-4.067 0-4.321-0.014-4.576-0.252-0.056-0.053-0.123-0.096-0.149-0.096s-0.125-0.091-0.22-0.202c-0.095-0.111-0.214-0.246-0.263-0.301s-0.145-0.268-0.212-0.474l-0.123-0.375 0.019-2.834c0.022-3.294 0.032-3.389 0.488-4.422 0.024-0.055 0.107-0.211 0.184-0.347s0.172-0.304 0.21-0.373 0.115-0.173 0.169-0.233c0.055-0.059 0.144-0.167 0.198-0.24 0.087-0.116 0.477-0.508 0.851-0.854 0.066-0.061 0.14-0.112 0.164-0.112s0.107-0.052 0.184-0.115 0.211-0.143 0.298-0.178c0.087-0.035 0.169-0.091 0.182-0.126s0.112-0.077 0.219-0.094c0.107-0.017 0.252-0.076 0.322-0.131s0.181-0.1 0.246-0.1c0.149 0 0.642-0.142 0.706-0.203 0.083-0.080 2.045-0.056 2.205 0.027zM15.052 6.274c-0.18 0.023-0.393 0.075-0.471 0.115s-0.237 0.089-0.352 0.108c-0.115 0.019-0.26 0.074-0.322 0.123s-0.195 0.115-0.295 0.147c-0.1 0.033-0.209 0.092-0.242 0.131s-0.087 0.072-0.121 0.072c-0.144 0-1.315 1.024-1.315 1.15 0 0.021-0.047 0.089-0.104 0.151-0.211 0.231-0.392 0.502-0.392 0.586 0 0.048-0.032 0.099-0.072 0.115s-0.099 0.124-0.133 0.241c-0.034 0.117-0.091 0.249-0.128 0.293s-0.099 0.222-0.139 0.397c-0.040 0.175-0.106 0.439-0.148 0.589-0.064 0.229-0.076 0.711-0.076 3.090v2.819l0.151 0.323c0.083 0.177 0.181 0.334 0.218 0.349s0.079 0.069 0.093 0.121c0.014 0.052 0.066 0.111 0.116 0.13s0.119 0.073 0.154 0.12c0.034 0.047 0.134 0.102 0.223 0.121s0.216 0.071 0.283 0.115c0.185 0.122 7.805 0.123 7.993 0.001 0.067-0.043 0.181-0.094 0.254-0.111 0.183-0.045 0.409-0.237 0.668-0.566 0.458-0.583 0.469-6.371 0.013-7.266-0.051-0.101-0.094-0.21-0.094-0.243 0-0.082-0.326-0.727-0.474-0.937-0.239-0.341-0.3-0.412-0.692-0.811-0.388-0.395-0.882-0.777-1.005-0.777-0.034 0-0.062-0.023-0.062-0.052s-0.084-0.085-0.186-0.126-0.264-0.116-0.36-0.167c-0.096-0.051-0.262-0.109-0.37-0.13s-0.296-0.080-0.417-0.134c-0.252-0.112-1.589-0.165-2.195-0.088zM17.215 6.469c2.056 0.573 3.561 2.229 3.798 4.179 0.097 0.798 0.039 5.838-0.070 6.057-0.152 0.307-0.465 0.62-0.766 0.767l-0.284 0.139-3.646 0.015c-4.096 0.017-4.3 0.006-4.674-0.256-0.321-0.225-0.508-0.472-0.631-0.837-0.158-0.467-0.159-5.174-0.001-6.016 0.276-1.476 1.109-2.696 2.358-3.454 0.561-0.341 0.894-0.463 1.93-0.708 0.289-0.068 1.6 0.007 1.985 0.114zM13.62 9.554c-0.879 0.176-1.195 1.355-0.528 1.97 0.741 0.683 1.964 0.171 1.965-0.823 0.001-0.782-0.653-1.304-1.437-1.147zM17.761 9.548c-1.338 0.357-1.108 2.285 0.273 2.285 1.476 0 1.592-2.14 0.124-2.298-0.136-0.015-0.315-0.009-0.397 0.013zM14.393 9.719c0.015 0.038 0.092 0.097 0.172 0.13s0.145 0.090 0.145 0.126c0 0.036 0.050 0.101 0.112 0.144 0.154 0.108 0.172 0.992 0.022 1.076-0.049 0.028-0.11 0.104-0.135 0.17s-0.078 0.12-0.118 0.12-0.108 0.050-0.151 0.112c-0.072 0.102-0.117 0.112-0.539 0.112h-0.461l-0.276-0.287c-0.303-0.316-0.378-0.571-0.295-1.008 0.042-0.222 0.274-0.565 0.382-0.565 0.037 0 0.091-0.045 0.12-0.099 0.068-0.127 0.975-0.153 1.022-0.029zM18.6 9.774c0.079 0.068 0.171 0.124 0.203 0.124s0.088 0.090 0.125 0.199c0.036 0.11 0.096 0.224 0.132 0.254 0.154 0.128-0.043 0.989-0.247 1.077-0.022 0.010-0.097 0.071-0.167 0.135-0.155 0.144-0.382 0.191-0.758 0.157-0.886-0.080-1.215-1.213-0.533-1.835l0.258-0.235 0.422-0.001c0.379-0.001 0.436 0.012 0.566 0.123zM13.588 9.996c-0.452 0.183-0.566 0.868-0.202 1.211 0.295 0.278 0.747 0.268 1.035-0.023l0.2-0.202-0.019-0.34c-0.031-0.554-0.501-0.853-1.014-0.646zM17.712 9.992c-0.315 0.139-0.497 0.578-0.373 0.898 0.349 0.894 1.629 0.543 1.432-0.393-0.084-0.399-0.668-0.678-1.059-0.505zM14.319 10.234c0.35 0.326 0.269 0.801-0.173 1.021-0.63 0.313-1.188-0.531-0.676-1.022 0.278-0.267 0.562-0.266 0.849 0.001zM18.302 10.094c0.212 0.081 0.395 0.411 0.363 0.655-0.068 0.505-0.675 0.752-1.025 0.416-0.532-0.51-0.024-1.332 0.662-1.071zM7.665 13.15c-0.096 0.036-0.209 0.067-0.253 0.068s-0.12 0.047-0.169 0.102-0.12 0.099-0.156 0.099c-0.094 0-0.561 0.496-0.595 0.632-0.016 0.062-0.047 0.113-0.071 0.113-0.275 0-0.314 1.534-0.048 1.893 0.056 0.076 0.102 0.159 0.102 0.185 0 0.074 0.498 0.601 0.568 0.601 0.034 0 0.102 0.044 0.151 0.098s0.17 0.113 0.268 0.131c0.099 0.018 0.223 0.063 0.277 0.1 0.17 0.117 0.498 0.087 0.591-0.055 0.119-0.181 0.121-3.766 0.003-3.935-0.090-0.129-0.377-0.143-0.667-0.033zM23.699 13.113c-0.194 0.13-0.208 0.263-0.208 2.027 0 1.768 0.017 1.93 0.218 2.062 0.089 0.059 0.342 0.043 0.481-0.030 0.071-0.037 0.211-0.083 0.311-0.101s0.21-0.078 0.243-0.131 0.093-0.097 0.132-0.097c0.061 0 0.245-0.177 0.512-0.494 0.706-0.836 0.392-2.319-0.633-2.992-0.291-0.191-0.92-0.336-1.058-0.244zM8.248 13.281c0.088 0.073 0.091 3.663 0.003 3.751-0.074 0.074-0.405 0.071-0.635-0.007-1.338-0.452-1.775-2.181-0.811-3.211 0.467-0.499 1.17-0.759 1.443-0.532zM24.211 13.246c0.703 0.118 1.386 0.954 1.451 1.773 0.075 0.952-0.717 1.967-1.604 2.059-0.436 0.045-0.417 0.137-0.417-1.953v-1.799l0.11-0.077c0.061-0.042 0.144-0.068 0.186-0.057s0.165 0.035 0.274 0.054zM13.291 13.359c-0.19 0.127-0.208 0.383-0.065 0.901 0.708 2.559 4.073 2.892 5.294 0.524 0.258-0.501 0.334-1.355 0.128-1.434-0.111-0.043-5.292-0.034-5.357 0.009zM18.635 13.507c0.080 0.206 0.010 0.748-0.132 1.029-0.067 0.132-0.122 0.271-0.122 0.307s-0.039 0.107-0.087 0.158c-0.048 0.051-0.164 0.192-0.259 0.314-0.466 0.601-1.193 0.932-2.050 0.933-0.394 0-0.986-0.095-1.076-0.173-0.041-0.035-0.156-0.098-0.256-0.14-0.205-0.085-0.275-0.14-0.684-0.546-0.16-0.159-0.319-0.36-0.353-0.447s-0.093-0.194-0.131-0.239c-0.127-0.15-0.236-0.914-0.162-1.138l0.065-0.195h5.196l0.053 0.136zM13.717 13.793c-0.277 0.334 0.372 1.539 0.96 1.785 0.090 0.038 0.192 0.102 0.225 0.142s0.155 0.088 0.269 0.106c0.114 0.018 0.303 0.067 0.419 0.11 0.228 0.084 0.726 0.064 0.823-0.033 0.029-0.029 0.116-0.052 0.193-0.052 0.167 0 0.485-0.124 0.485-0.19 0-0.025 0.061-0.059 0.136-0.074 0.519-0.107 1.316-1.513 1.013-1.788-0.132-0.12-4.425-0.126-4.524-0.007zM18.099 13.879c0.13 0.096 0.114 0.28-0.056 0.65-0.656 1.429-2.585 1.77-3.701 0.654-0.455-0.455-0.74-1.181-0.519-1.321 0.115-0.073 4.177-0.057 4.276 0.017zM1.454 14.159c-0.33 0.093-0.625 0.337-0.668 0.554-0.016 0.081-0.049 0.159-0.073 0.174-0.262 0.162 0.272 1.212 0.617 1.212 0.063 0 0.135 0.020 0.161 0.045 0.102 0.098 0.375 0.068 0.774-0.088 0.519-0.202 0.618-1.214 0.163-1.669-0.095-0.095-0.234-0.186-0.308-0.202s-0.191-0.047-0.259-0.068c-0.076-0.023-0.234-0.007-0.406 0.041zM29.842 14.172c-0.181 0.051-0.546 0.389-0.546 0.507 0 0.037-0.034 0.096-0.074 0.13-0.194 0.161-0.033 0.787 0.285 1.109 0.35 0.354 1.132 0.326 1.463-0.052 0.738-0.844-0.032-2.001-1.128-1.694zM2.075 14.27c0.824 0.423 0.738 1.588-0.131 1.782-1.111 0.249-1.62-1.234-0.604-1.76 0.174-0.090 0.579-0.102 0.735-0.022zM30.727 14.357c0.771 0.549 0.423 1.711-0.512 1.711-1 0-1.291-1.298-0.398-1.779 0.219-0.118 0.7-0.082 0.91 0.068zM11.361 20.689c-0.027 0.009-0.13 0.030-0.227 0.046-1.163 0.193-0.751 2.070 0.427 1.949 1.064-0.11 1.217-1.774 0.179-1.948-0.099-0.017-0.214-0.038-0.255-0.047s-0.097-0.009-0.124 0zM11.952 20.936c0.045 0.068 0.11 0.124 0.145 0.124 0.083 0 0.233 0.423 0.229 0.645-0.020 1.158-1.742 1.182-1.756 0.025-0.003-0.284 0.109-0.67 0.195-0.67 0.032 0 0.11-0.056 0.174-0.124 0.106-0.113 0.154-0.124 0.524-0.124 0.38 0 0.413 0.008 0.489 0.124zM11.153 21.16c-0.060 0.024-0.155 0.139-0.211 0.255-0.306 0.633 0.504 1.189 0.936 0.643 0.406-0.513-0.106-1.148-0.725-0.898zM11.686 21.273c0.322 0.254 0.285 0.679-0.074 0.85-0.191 0.091-0.293 0.064-0.511-0.134-0.364-0.332 0.199-1.020 0.585-0.715zM16.496 21.37c-0.229 0.246-0.216 1.605 0.017 1.805l0.141 0.121 4.664-0.028 0.095-0.117c0.11-0.136 0.141-1.397 0.042-1.681-0.074-0.213-0.026-0.209-2.562-0.21l-2.293-0.001-0.103 0.111zM21.206 21.381c0.077 0.040 0.154 0.109 0.171 0.153 0.040 0.104 0.040 1.428 0.001 1.532-0.027 0.070-0.285 0.078-2.407 0.078h-2.377l-0.048-0.127c-0.1-0.262-0.060-1.404 0.054-1.564l0.103-0.144h2.182c1.818 0 2.206 0.012 2.322 0.073zM16.955 21.732c-0.221 0.155-0.27 0.741-0.082 0.991 0.094 0.126 4.024 0.159 4.148 0.035 0.109-0.11 0.087-0.868-0.030-0.997-0.127-0.14-3.839-0.166-4.036-0.028zM20.751 21.785c0.252 0.050 0.375 0.654 0.178 0.872-0.12 0.133-3.799 0.141-3.945 0.009-0.154-0.139-0.101-0.76 0.074-0.871 0.070-0.044 3.476-0.053 3.694-0.009zM11.113 23.645c-0.614 0.253-0.846 0.843-0.557 1.421 0.394 0.79 1.523 0.696 1.848-0.154 0.291-0.763-0.538-1.576-1.29-1.267zM12.054 23.916c0.424 0.424 0.332 1.198-0.172 1.446-0.559 0.274-1.163 0.020-1.286-0.541-0.067-0.306 0.018-0.769 0.149-0.81 0.050-0.016 0.103-0.069 0.119-0.119 0.071-0.224 0.961-0.206 1.191 0.024zM11.192 24.077c-0.093 0.047-0.185 0.118-0.205 0.159-0.142 0.293-0.146 0.324-0.078 0.517 0.2 0.568 0.804 0.591 1.076 0.041l0.104-0.211-0.131-0.223c-0.196-0.335-0.464-0.434-0.767-0.282zM11.691 24.19c0.13 0.070 0.238 0.332 0.206 0.501-0.099 0.519-0.864 0.455-0.899-0.075-0.025-0.387 0.342-0.613 0.692-0.426zM12.924 28.368c-0.155 0.078-0.189 0.324-0.080 0.577 0.042 0.098 0.1 0.272 0.129 0.386s0.087 0.242 0.128 0.284c0.041 0.041 0.099 0.143 0.128 0.226s0.084 0.15 0.122 0.15c0.038 0 0.070 0.032 0.070 0.070 0 0.085 0.579 0.674 0.662 0.674 0.032 0 0.085 0.042 0.117 0.093s0.118 0.108 0.191 0.126c0.073 0.018 0.194 0.079 0.269 0.134s0.235 0.112 0.355 0.126c0.12 0.014 0.308 0.060 0.417 0.102 0.271 0.105 0.853 0.104 1.065-0.002 0.091-0.046 0.224-0.083 0.294-0.083 0.2-0 0.504-0.098 0.532-0.171 0.014-0.036 0.090-0.079 0.169-0.095s0.19-0.074 0.245-0.13c0.055-0.055 0.121-0.101 0.147-0.101s0.087-0.051 0.136-0.114c0.050-0.063 0.132-0.13 0.182-0.149s0.103-0.079 0.117-0.134c0.014-0.054 0.044-0.099 0.066-0.099 0.058 0 0.445-0.558 0.445-0.641 0-0.039 0.036-0.111 0.081-0.16 0.202-0.223 0.274-0.94 0.107-1.057-0.149-0.104-5.886-0.117-6.091-0.013zM18.95 28.47c0.124 0.091 0.081 0.448-0.102 0.851-0.99 2.175-3.731 2.602-5.251 0.819-0.523-0.613-0.843-1.533-0.587-1.683 0.144-0.084 5.824-0.071 5.939 0.014z"/>
<path d="M15.596 0.296c-0.674 0.186-1.058 0.945-0.842 1.665 0.061 0.203 0.465 0.659 0.63 0.712 0.143 0.045 0.218 0.234 0.218 0.548 0 0.376-0.031 0.391-1.191 0.577-1.956 0.314-4.209 1.942-5.18 3.743-0.044 0.082-0.102 0.182-0.128 0.223-0.067 0.103-0.348 0.721-0.348 0.764 0 0.019-0.042 0.129-0.094 0.243s-0.121 0.342-0.154 0.506-0.080 0.335-0.105 0.381c-0.083 0.158-0.155 0.859-0.186 1.825l-0.031 0.966-0.124 0.034c-0.946 0.259-1.261 0.413-1.66 0.812-0.292 0.292-0.596 0.799-0.649 1.083-0.069 0.369-0.108 0.381-1.26 0.38-1.224-0.001-1.217 0.001-1.341-0.279-0.416-0.941-1.755-1.203-2.499-0.49-1.263 1.21 0.018 3.269 1.632 2.623 0.39-0.156 0.785-0.526 0.872-0.816 0.080-0.268 0.194-0.293 1.313-0.293 1.152 0 1.168 0.005 1.279 0.404 0.198 0.713 0.921 1.517 1.491 1.659 0.080 0.020 0.203 0.066 0.273 0.103s0.172 0.067 0.227 0.067c0.055 0 0.183 0.024 0.285 0.052l0.186 0.052 0 3.458c0 2.018 0.021 3.641 0.051 3.898 0.194 1.691 1.639 3.097 3.361 3.27l0.559 0.056 0.051 0.2c0.196 0.772 0.402 1.23 0.771 1.718 0.232 0.305 0.752 0.789 0.85 0.789 0.034 0 0.062 0.020 0.062 0.044s0.11 0.091 0.245 0.149c0.135 0.058 0.258 0.126 0.273 0.15s0.145 0.073 0.288 0.107c0.143 0.034 0.339 0.095 0.434 0.135 0.653 0.275 2.032 0.003 2.927-0.577 0.594-0.385 1.439-1.49 1.439-1.883 0-0.030 0.057-0.234 0.126-0.454l0.126-0.399 0.209-0.001c0.33-0.002 0.884-0.094 1.045-0.174 0.081-0.040 0.174-0.073 0.206-0.073 0.117 0 0.75-0.365 1.042-0.601 0.645-0.521 1.042-1.121 1.304-1.97l0.133-0.43 0.051-7.441 0.298-0.057c0.754-0.144 1.25-0.452 1.769-1.097 0.141-0.176 0.389-0.724 0.389-0.861 0-0.249 0.075-0.266 1.235-0.28 1.205-0.014 1.161-0.026 1.357 0.361 0.119 0.235 0.54 0.667 0.654 0.67 0.029 0.001 0.142 0.045 0.251 0.098 0.128 0.062 0.303 0.096 0.496 0.096s0.368-0.034 0.496-0.096c0.109-0.053 0.227-0.097 0.262-0.098 0.15-0.004 0.65-0.598 0.722-0.86 0.122-0.44 0.129-0.556 0.054-0.883-0.332-1.436-2.274-1.676-2.949-0.365-0.168 0.326-0.172 0.327-1.392 0.31-1.161-0.016-1.184-0.021-1.186-0.263-0.006-0.749-1.395-1.96-2.248-1.96-0.201 0-0.219-0.082-0.252-1.116-0.126-3.993-2.702-7.032-6.499-7.665-0.911-0.152-0.889-0.137-0.866-0.588 0.015-0.292 0.038-0.381 0.109-0.424 1.419-0.848 0.698-2.87-0.869-2.438zM16.426 0.438c0.801 0.304 0.952 1.47 0.258 1.993-0.438 0.33-0.436 0.328-0.436 0.766 0 0.508 0.029 0.529 0.879 0.652 0.62 0.089 1.279 0.264 1.683 0.445 0.113 0.051 0.263 0.107 0.333 0.124s0.154 0.063 0.185 0.101c0.032 0.038 0.084 0.070 0.116 0.070 0.080 0 0.867 0.498 1.238 0.784 0.571 0.44 1.479 1.437 1.748 1.92 0.030 0.055 0.136 0.241 0.236 0.414s0.181 0.325 0.181 0.338c0 0.013 0.055 0.139 0.121 0.281 0.408 0.866 0.579 1.716 0.618 3.068 0.032 1.113 0.064 1.233 0.333 1.233 0.857 0 1.947 0.928 2.198 1.871 0.098 0.369 0.071 0.362 1.351 0.362h1.142l0.144-0.154c0.079-0.085 0.144-0.183 0.144-0.219s0.114-0.19 0.252-0.341c0.807-0.883 2.359-0.415 2.505 0.756 0.211 1.686-1.997 2.409-2.757 0.903-0.202-0.401-0.225-0.407-1.511-0.389-1.172 0.017-1.268 0.043-1.268 0.346 0 0.671-0.983 1.614-1.915 1.837-0.243 0.058-0.475 0.136-0.516 0.174-0.064 0.059-0.078 0.572-0.101 3.825-0.025 3.609-0.030 3.77-0.129 4.104-0.424 1.435-1.649 2.479-3.119 2.658-0.246 0.030-0.497 0.064-0.56 0.076-0.129 0.025-0.192 0.155-0.289 0.603-0.407 1.869-2.443 3.104-4.361 2.644-1.459-0.35-2.441-1.409-2.788-3.004-0.050-0.231-0.079-0.243-0.734-0.315-1.454-0.16-2.64-1.159-3.132-2.637l-0.14-0.422-0.016-3.744c-0.018-4.047-0.001-3.842-0.322-3.891-1.005-0.155-1.959-0.931-2.14-1.741-0.114-0.513-0.137-0.521-1.409-0.52-1.178 0.001-1.222 0.012-1.389 0.362-0.674 1.41-2.783 0.947-2.801-0.615-0.018-1.569 2.091-2.022 2.81-0.603 0.163 0.321 0.109 0.309 1.401 0.309 1.265 0 1.304-0.012 1.379-0.425 0.081-0.441 0.632-1.176 1.076-1.434 0.206-0.12 0.924-0.372 1.062-0.373 0.276-0.002 0.321-0.108 0.322-0.76 0.003-2.052 0.411-3.46 1.428-4.921 0.26-0.374 1.227-1.393 1.498-1.578 0.068-0.047 0.211-0.146 0.317-0.221 0.348-0.246 0.597-0.397 0.899-0.548 0.41-0.204 0.997-0.456 1.064-0.456 0.030 0 0.18-0.044 0.333-0.098s0.537-0.133 0.855-0.176 0.629-0.090 0.693-0.103c0.506-0.105 0.492-0.908-0.020-1.236-1.221-0.781-0.305-2.606 1.050-2.092zM15.752 0.903c-0.285 0.104-0.49 0.502-0.4 0.776 0.177 0.536 0.86 0.635 1.146 0.167 0.3-0.493-0.21-1.138-0.746-0.943zM16.294 1.117c0.384 0.329 0.13 0.981-0.361 0.923-0.499-0.059-0.648-0.589-0.262-0.936 0.2-0.18 0.402-0.176 0.623 0.013zM14.784 4.362c-2.194 0.428-4.159 1.83-5.046 3.601-0.048 0.095-0.108 0.207-0.135 0.248-0.203 0.317-0.512 1.238-0.625 1.86-0.168 0.928-0.176 1.323-0.162 8.151l0.014 6.832 0.117 0.394c0.399 1.339 1.344 2.161 2.779 2.415 0.616 0.109 8.576 0.026 8.962-0.094 1.15-0.357 2.11-1.35 2.306-2.386 0.069-0.363 0.068-14.633-0.001-15.113-0.335-2.334-2.069-4.522-4.327-5.463-1.085-0.452-2.821-0.651-3.881-0.444zM16.893 4.439c0.561 0.076 1.811 0.444 2.008 0.591 0.028 0.021 0.129 0.068 0.224 0.106 0.177 0.069 0.246 0.11 0.653 0.387 0.127 0.087 0.244 0.158 0.259 0.158 0.042 0 0.201 0.146 0.825 0.756s0.625 0.611 0.93 1.079c0.115 0.177 0.228 0.345 0.249 0.372s0.070 0.128 0.108 0.223c0.038 0.095 0.096 0.207 0.129 0.248s0.098 0.186 0.144 0.321c0.046 0.136 0.102 0.27 0.126 0.298s0.075 0.185 0.115 0.349c0.040 0.163 0.114 0.442 0.165 0.62 0.089 0.309 0.093 0.649 0.093 7.888v7.566l-0.154 0.347c-0.464 1.047-1.25 1.724-2.247 1.934-0.559 0.118-8.609 0.113-9.14-0.006-1.149-0.256-2.053-1.163-2.328-2.339-0.154-0.656-0.149-14.069 0.005-15.032 0.196-1.222 0.672-2.315 1.411-3.236 0.443-0.553 0.519-0.634 0.851-0.912 0.511-0.428 0.527-0.439 1.185-0.851 0.247-0.155 0.784-0.41 0.943-0.448 0.082-0.020 0.205-0.064 0.273-0.1 0.553-0.286 2.2-0.452 3.175-0.321zM15.146 5.756c-1.986 0.241-3.77 1.619-4.494 3.472-0.408 1.045-0.383 0.762-0.383 4.291v3.15l0.154 0.322c0.163 0.341 0.576 0.843 0.694 0.843 0.038 0 0.070 0.023 0.070 0.052s0.084 0.085 0.186 0.126 0.253 0.112 0.335 0.159c0.137 0.079 0.463 0.085 4.242 0.085h4.093l0.276-0.132c0.478-0.228 0.642-0.361 1.013-0.82 0.070-0.087 0.183-0.32 0.25-0.517l0.122-0.359v-2.847c0-2.693-0.005-2.872-0.102-3.303-0.688-3.069-3.308-4.905-6.457-4.523zM16.918 5.882c0.541 0.065 1.5 0.397 1.86 0.643 0.068 0.047 0.258 0.17 0.422 0.275 1.123 0.716 2.020 2.119 2.305 3.601 0.158 0.826 0.156 5.778-0.004 6.283-0.194 0.616-0.618 1.076-1.229 1.335l-0.328 0.139h-7.938l-0.295-0.115c-0.554-0.215-0.941-0.579-1.204-1.133l-0.138-0.29v-6.152l0.133-0.458c0.554-1.912 1.972-3.45 3.605-3.912 0.154-0.044 0.392-0.111 0.529-0.15 0.501-0.143 1.42-0.17 2.282-0.066zM15.231 6.355c-1.037 0.245-1.369 0.367-1.93 0.708-1.249 0.759-2.082 1.979-2.358 3.454-0.158 0.842-0.157 5.549 0.001 6.016 0.123 0.365 0.31 0.612 0.631 0.837 0.374 0.262 0.578 0.273 4.674 0.256l3.646-0.015 0.284-0.139c0.301-0.148 0.613-0.461 0.766-0.767 0.109-0.219 0.167-5.259 0.070-6.057-0.203-1.671-1.458-3.276-3.079-3.937-0.753-0.307-2.138-0.49-2.704-0.356zM17.042 6.552c0.573 0.14 1.094 0.33 1.298 0.474 0.072 0.051 0.151 0.093 0.174 0.093s0.144 0.073 0.269 0.161c1.174 0.836 1.942 2.056 2.126 3.378 0.071 0.513 0.073 5.446 0.002 5.773-0.065 0.301-0.321 0.653-0.628 0.867l-0.238 0.165h-8.138l-0.237-0.157c-0.309-0.205-0.513-0.467-0.605-0.777-0.090-0.304-0.11-5.262-0.023-5.921 0.17-1.296 1.034-2.631 2.17-3.353 0.129-0.082 0.291-0.188 0.359-0.234s0.213-0.114 0.322-0.149c0.109-0.035 0.254-0.095 0.322-0.132 0.561-0.308 1.956-0.402 2.828-0.189zM13.432 9.484c-0.834 0.295-1.085 1.438-0.456 2.078 0.204 0.208 0.262 0.24 0.646 0.363 0.53 0.169 1.269-0.224 1.457-0.774 0.367-1.076-0.587-2.041-1.646-1.666zM17.567 9.502c-1.123 0.439-1.068 2.009 0.084 2.391 1.286 0.427 2.24-1.206 1.256-2.152-0.342-0.328-0.87-0.423-1.34-0.239zM14.45 9.658c0.681 0.321 0.821 1.28 0.267 1.834-0.616 0.616-1.687 0.369-1.923-0.444-0.302-1.038 0.671-1.854 1.656-1.39zM18.555 9.626c0.403 0.174 0.635 0.564 0.635 1.066 0 1.256-1.701 1.6-2.218 0.448-0.444-0.989 0.565-1.954 1.583-1.514zM13.47 10.233c-0.28 0.268-0.29 0.59-0.028 0.867 0.415 0.44 1.091 0.163 1.082-0.442-0.008-0.552-0.651-0.811-1.053-0.425zM17.682 10.16c-0.501 0.337-0.25 1.152 0.355 1.152 0.214 0 0.266-0.022 0.422-0.178 0.555-0.555-0.128-1.41-0.777-0.974zM14.26 10.315c0.487 0.503-0.211 1.212-0.714 0.725-0.236-0.228-0.243-0.467-0.022-0.719 0.218-0.248 0.498-0.251 0.735-0.006zM18.378 10.298c0.286 0.286 0.213 0.679-0.161 0.873-0.497 0.257-0.957-0.524-0.522-0.885 0.234-0.194 0.48-0.19 0.682 0.013zM7.744 13.227c-1.433 0.343-1.945 2.221-0.897 3.289 0.455 0.464 1.187 0.733 1.404 0.516 0.088-0.088 0.085-3.678-0.003-3.751-0.1-0.083-0.296-0.105-0.504-0.055zM23.75 13.249l-0.11 0.077v1.799c0 2.089-0.020 1.998 0.417 1.953 0.888-0.092 1.679-1.107 1.604-2.059-0.064-0.819-0.748-1.654-1.451-1.773-0.109-0.018-0.233-0.043-0.274-0.054s-0.126 0.014-0.186 0.057zM13.145 13.344c-0.206 0.206-0.074 1.229 0.202 1.565 0.034 0.041 0.098 0.146 0.142 0.234 0.11 0.216 0.664 0.774 0.876 0.882 0.095 0.048 0.206 0.115 0.246 0.15 0.339 0.285 1.553 0.414 2.097 0.223 0.155-0.055 0.309-0.099 0.343-0.099 0.112 0 0.719-0.391 0.94-0.605 0.739-0.716 1.143-1.951 0.773-2.359l-0.101-0.112h-5.395l-0.122 0.122zM8.199 15.143l0.013 1.797-0.126 0.032c-0.479 0.12-1.25-0.43-1.564-1.117-0.479-1.050 0.384-2.558 1.44-2.518l0.223 0.009 0.013 1.797zM18.648 13.35c0.207 0.079 0.131 0.934-0.128 1.434-1.221 2.368-4.586 2.035-5.294-0.524-0.143-0.518-0.125-0.775 0.065-0.901 0.064-0.043 5.245-0.051 5.357-0.009zM24.509 13.475c1.015 0.525 1.349 1.763 0.729 2.7-0.344 0.519-1.18 0.97-1.423 0.768-0.078-0.065-0.118-3.512-0.042-3.589 0.085-0.085 0.455-0.024 0.736 0.121zM13.823 13.862c-0.221 0.14 0.064 0.866 0.519 1.321 1.116 1.116 3.045 0.775 3.701-0.654 0.17-0.37 0.186-0.554 0.056-0.65-0.1-0.074-4.161-0.090-4.276-0.017zM17.986 14.007l0.112 0.090-0.106 0.284c-0.125 0.334-0.144 0.361-0.512 0.729-1.058 1.058-2.805 0.753-3.486-0.608-0.297-0.594-0.348-0.579 1.989-0.583 1.759-0.003 1.9 0.003 2.004 0.087zM1.34 14.292c-0.41 0.212-0.607 0.603-0.526 1.039 0.209 1.116 1.841 0.935 1.841-0.204 0-0.641-0.759-1.123-1.315-0.834zM29.817 14.289c-0.893 0.481-0.602 1.779 0.398 1.779 0.935 0 1.283-1.162 0.512-1.711-0.211-0.15-0.692-0.186-0.91-0.068zM2.221 14.508c0.46 0.419 0.43 1.028-0.068 1.35-0.531 0.344-1.238-0.053-1.243-0.696-0.006-0.713 0.802-1.116 1.31-0.654zM30.676 14.463c0.724 0.536 0.238 1.689-0.63 1.494-0.812-0.182-0.882-1.237-0.107-1.606 0.155-0.074 0.572-0.010 0.737 0.112zM11.138 20.611c-0.654 0.199-1.004 0.889-0.747 1.471 0.513 1.16 2.161 0.857 2.161-0.398 0-0.749-0.71-1.288-1.414-1.073zM11.741 20.735c1.038 0.174 0.885 1.838-0.179 1.948-1.178 0.122-1.59-1.755-0.427-1.949 0.098-0.016 0.2-0.037 0.227-0.046s0.083-0.009 0.124-0c0.041 0.009 0.156 0.030 0.255 0.047zM16.502 21.229c-0.22 0.122-0.25 0.249-0.252 1.080l-0.002 0.778 0.149 0.149c0.205 0.205 0.37 0.216 2.836 0.197l2.067-0.016 0.128-0.12c0.181-0.17 0.226-0.388 0.227-1.086 0-0.622-0.025-0.733-0.213-0.939l-0.102-0.112-2.36 0.002c-1.864 0.001-2.385 0.016-2.479 0.067zM11.134 21.354c-0.264 0.264-0.183 0.601 0.191 0.794 0.129 0.067 0.43-0.046 0.503-0.188 0.266-0.523-0.29-1.008-0.693-0.605zM21.293 21.289c0.233 0.062 0.331 1.6 0.119 1.862l-0.095 0.117-4.664 0.028-0.141-0.121c-0.233-0.2-0.246-1.559-0.017-1.805l0.103-0.111 2.293 0.001c1.261 0 2.341 0.014 2.401 0.030zM11.614 21.346c0.16 0.107 0.214 0.418 0.1 0.57-0.186 0.245-0.626 0.087-0.626-0.224 0-0.272 0.321-0.483 0.526-0.346zM17.057 21.794c-0.175 0.111-0.228 0.732-0.074 0.871 0.146 0.132 3.825 0.124 3.945-0.009 0.197-0.218 0.074-0.821-0.178-0.872-0.218-0.044-3.624-0.035-3.694 0.009zM20.863 22.003c0.061 0.097 0.061 0.357-0 0.518l-0.049 0.128-3.748-0.026-0.046-0.236c-0.034-0.176-0.029-0.268 0.022-0.361l0.067-0.126 1.853 0.014c1.583 0.012 1.86 0.025 1.9 0.089zM11.187 23.488c-0.731 0.222-1.079 0.959-0.753 1.59 0.53 1.025 2.026 0.749 2.129-0.394 0.066-0.731-0.704-1.4-1.376-1.196zM11.882 23.695c0.8 0.344 0.744 1.506-0.088 1.86-0.429 0.182-1.020-0.051-1.238-0.489-0.447-0.896 0.398-1.77 1.326-1.371zM11.108 24.261c-0.178 0.178-0.156 0.539 0.042 0.686 0.395 0.294 0.896-0.093 0.706-0.547-0.122-0.292-0.522-0.367-0.749-0.14zM11.651 24.298c0.131 0.096 0.165 0.415 0.057 0.534-0.197 0.218-0.619 0.070-0.619-0.218 0-0.309 0.324-0.491 0.562-0.317zM13.011 28.457c-0.257 0.149 0.064 1.069 0.587 1.683 1.519 1.784 4.261 1.356 5.251-0.819 0.183-0.402 0.226-0.76 0.102-0.851-0.116-0.085-5.795-0.098-5.939-0.014zM18.898 28.626c0.031 0.125-0.004 0.354-0.069 0.447-0.019 0.027-0.071 0.142-0.114 0.254-0.709 1.828-3.158 2.396-4.698 1.090-0.544-0.461-1.058-1.415-0.964-1.789l0.032-0.126h5.783l0.031 0.124z"/>
<path d="M15.496 0.169c-0.073 0.057-0.166 0.104-0.207 0.104-0.184 0-0.627 0.53-0.631 0.753-0.001 0.063-0.034 0.158-0.074 0.211-0.096 0.127-0.095 0.493 0.002 0.574 0.041 0.034 0.074 0.116 0.074 0.183 0 0.228 0.302 0.608 0.562 0.707 0.162 0.062 0.232 0.226 0.232 0.546 0 0.264-0.060 0.296-0.571 0.302-0.109 0.002-0.288 0.037-0.397 0.079s-0.332 0.097-0.496 0.122c-0.321 0.049-0.571 0.134-0.571 0.193 0 0.020-0.109 0.052-0.241 0.069-0.146 0.019-0.276 0.071-0.33 0.13-0.049 0.054-0.138 0.098-0.198 0.098s-0.191 0.056-0.291 0.123c-0.1 0.068-0.237 0.137-0.304 0.154s-0.123 0.052-0.123 0.078c0 0.026-0.098 0.090-0.218 0.143s-0.231 0.13-0.247 0.171c-0.016 0.041-0.053 0.074-0.083 0.074-0.070 0-0.375 0.244-0.891 0.714-0.309 0.281-0.794 0.855-0.794 0.94 0 0.046-0.034 0.083-0.076 0.083s-0.097 0.055-0.122 0.122-0.091 0.167-0.146 0.222c-0.055 0.055-0.115 0.162-0.134 0.238s-0.073 0.166-0.121 0.2c-0.048 0.034-0.102 0.131-0.121 0.216s-0.075 0.195-0.125 0.245c-0.050 0.050-0.107 0.176-0.125 0.28s-0.074 0.233-0.123 0.288-0.105 0.209-0.125 0.344c-0.020 0.134-0.077 0.313-0.126 0.397-0.057 0.097-0.102 0.306-0.122 0.574-0.018 0.232-0.063 0.517-0.101 0.634-0.046 0.143-0.069 0.459-0.070 0.967-0.001 0.995 0.013 0.958-0.363 0.997-0.177 0.018-0.359 0.071-0.432 0.124-0.069 0.051-0.199 0.109-0.288 0.128s-0.188 0.078-0.221 0.13c-0.033 0.052-0.086 0.095-0.118 0.095-0.082 0-0.662 0.588-0.662 0.671 0 0.037-0.030 0.086-0.067 0.108-0.096 0.057-0.181 0.236-0.181 0.384 0 0.070-0.019 0.127-0.042 0.127-0.055 0-0.157 0.227-0.157 0.35 0 0.093-0.042 0.097-1.049 0.097-1.171 0-1.089 0.024-1.289-0.382-0.113-0.23-0.495-0.61-0.613-0.61-0.042 0-0.118-0.043-0.17-0.095-0.194-0.194-1.117-0.194-1.363 0-0.066 0.052-0.154 0.095-0.195 0.095-0.092 0-0.58 0.463-0.58 0.55 0 0.035-0.050 0.117-0.112 0.182-0.185 0.197-0.168 1.245 0.025 1.524 0.075 0.109 0.136 0.226 0.136 0.261s0.054 0.089 0.12 0.119 0.13 0.096 0.144 0.146c0.013 0.050 0.088 0.106 0.165 0.124s0.194 0.081 0.257 0.139c0.182 0.165 1.324 0.16 1.435-0.006 0.041-0.061 0.118-0.112 0.171-0.112 0.113 0 0.51-0.398 0.617-0.618 0.203-0.416 0.064-0.375 1.246-0.375h1.055v0.122c0 0.136 0.096 0.374 0.15 0.374 0.019 0 0.050 0.089 0.067 0.198 0.019 0.119 0.071 0.223 0.13 0.26 0.054 0.034 0.099 0.096 0.099 0.139 0 0.108 0.545 0.643 0.655 0.643 0.049 0 0.090 0.033 0.090 0.073 0 0.082 0.148 0.175 0.279 0.175 0.048 0 0.14 0.050 0.204 0.11 0.092 0.086 0.191 0.114 0.456 0.129l0.339 0.019 0.030 0.181c0.017 0.099 0.030 1.74 0.030 3.646 0 2.869 0.013 3.492 0.070 3.622 0.038 0.086 0.083 0.279 0.098 0.428s0.069 0.328 0.119 0.397c0.050 0.069 0.118 0.22 0.152 0.336s0.084 0.211 0.112 0.211c0.028 0 0.083 0.078 0.123 0.174s0.106 0.174 0.146 0.174c0.041 0 0.074 0.036 0.074 0.080 0 0.109 0.549 0.664 0.657 0.664 0.048 0 0.087 0.034 0.087 0.076s0.061 0.102 0.136 0.134 0.2 0.11 0.277 0.173c0.077 0.063 0.184 0.114 0.238 0.114s0.162 0.048 0.241 0.106c0.089 0.066 0.244 0.115 0.407 0.128 0.145 0.012 0.334 0.054 0.42 0.092s0.222 0.070 0.303 0.070c0.361 0 0.442 0.074 0.476 0.432 0.020 0.219 0.062 0.363 0.124 0.432 0.052 0.057 0.108 0.178 0.125 0.27s0.087 0.233 0.156 0.314c0.068 0.081 0.124 0.178 0.124 0.215s0.041 0.097 0.090 0.133c0.050 0.036 0.106 0.106 0.124 0.156s0.077 0.103 0.129 0.116 0.106 0.069 0.12 0.123c0.014 0.054 0.067 0.109 0.118 0.122s0.114 0.073 0.14 0.133c0.026 0.060 0.096 0.115 0.154 0.124s0.117 0.056 0.13 0.106c0.014 0.055 0.090 0.105 0.191 0.126 0.092 0.019 0.201 0.078 0.243 0.131s0.164 0.11 0.273 0.127c0.108 0.017 0.26 0.078 0.338 0.135 0.132 0.097 0.204 0.103 1.199 0.103s1.067-0.006 1.199-0.103c0.077-0.057 0.23-0.118 0.339-0.135s0.236-0.077 0.281-0.132 0.119-0.101 0.163-0.101c0.045 0 0.137-0.056 0.205-0.124s0.146-0.124 0.174-0.124c0.12 0 0.988-1 0.988-1.139 0-0.034 0.056-0.129 0.124-0.21s0.124-0.196 0.124-0.255c0-0.059 0.037-0.175 0.082-0.257s0.108-0.272 0.14-0.422l0.058-0.273 0.304-0.030c0.167-0.016 0.333-0.053 0.368-0.081s0.203-0.061 0.373-0.073c0.23-0.016 0.339-0.049 0.425-0.13 0.064-0.060 0.177-0.109 0.251-0.109 0.081 0 0.182-0.050 0.251-0.124 0.063-0.068 0.153-0.124 0.198-0.124s0.133-0.052 0.193-0.115c0.060-0.063 0.15-0.13 0.201-0.149s0.103-0.076 0.116-0.128c0.014-0.052 0.069-0.106 0.123-0.12s0.11-0.072 0.125-0.129c0.015-0.057 0.054-0.103 0.087-0.103 0.068 0 0.284-0.289 0.402-0.541 0.044-0.093 0.111-0.2 0.15-0.239s0.083-0.13 0.098-0.204 0.059-0.2 0.098-0.282c0.039-0.082 0.098-0.216 0.132-0.298 0.046-0.111 0.068-1.117 0.088-3.994l0.027-3.845 0.391-0.028c0.323-0.023 0.407-0.047 0.479-0.136 0.050-0.062 0.144-0.109 0.219-0.109 0.073 0 0.18-0.051 0.24-0.115s0.15-0.13 0.201-0.149 0.103-0.076 0.116-0.128c0.014-0.052 0.069-0.106 0.123-0.12s0.11-0.071 0.125-0.127c0.015-0.056 0.069-0.115 0.12-0.131s0.094-0.058 0.094-0.093c0-0.035 0.067-0.162 0.148-0.282s0.148-0.268 0.149-0.329c0-0.061 0.037-0.2 0.081-0.31l0.080-0.199 2.098 0.001 0.087 0.186c0.126 0.268 0.254 0.48 0.302 0.501 0.023 0.010 0.099 0.082 0.169 0.161s0.162 0.143 0.203 0.143c0.042 0 0.129 0.050 0.194 0.112 0.11 0.103 0.164 0.112 0.739 0.112 0.584 0 0.626-0.007 0.711-0.112 0.050-0.061 0.133-0.112 0.186-0.112 0.11 0 0.608-0.518 0.608-0.631 0-0.042 0.050-0.157 0.112-0.256 0.18-0.29 0.157-0.877-0.051-1.271-0.164-0.311-0.576-0.769-0.692-0.769-0.037 0-0.135-0.050-0.218-0.112-0.219-0.162-1.102-0.167-1.318-0.007-0.078 0.058-0.187 0.119-0.243 0.137-0.142 0.045-0.446 0.333-0.487 0.461-0.019 0.059-0.064 0.119-0.101 0.133s-0.094 0.106-0.126 0.203l-0.058 0.177h-1.051c-1.199 0-1.135 0.024-1.226-0.461-0.027-0.142-0.079-0.282-0.117-0.31s-0.103-0.134-0.146-0.236c-0.042-0.101-0.101-0.184-0.13-0.184s-0.076-0.058-0.102-0.129c-0.027-0.071-0.093-0.14-0.148-0.155s-0.099-0.057-0.099-0.096c0-0.038-0.055-0.091-0.122-0.116s-0.167-0.091-0.222-0.146c-0.055-0.055-0.162-0.115-0.238-0.134s-0.195-0.076-0.264-0.127c-0.083-0.061-0.251-0.104-0.484-0.123l-0.357-0.030-0.001-0.625c-0.002-1.012-0.081-2.010-0.173-2.189-0.045-0.086-0.103-0.294-0.13-0.462s-0.079-0.339-0.116-0.38-0.093-0.175-0.126-0.297c-0.032-0.122-0.102-0.275-0.154-0.342s-0.094-0.157-0.094-0.203c0-0.046-0.056-0.159-0.124-0.251s-0.124-0.196-0.124-0.23c0-0.034-0.056-0.122-0.124-0.196s-0.124-0.161-0.124-0.194c0-0.061-0.195-0.331-0.422-0.583-0.068-0.076-0.123-0.159-0.123-0.186s-0.034-0.049-0.074-0.049c-0.041 0-0.074-0.021-0.074-0.046 0-0.052-0.624-0.698-0.674-0.698-0.017 0-0.075-0.056-0.129-0.124s-0.13-0.124-0.168-0.124-0.071-0.022-0.071-0.049c0-0.048-0.266-0.244-0.542-0.399-0.074-0.042-0.198-0.126-0.275-0.186s-0.182-0.11-0.234-0.11c-0.052 0-0.107-0.033-0.123-0.074s-0.121-0.1-0.234-0.132c-0.113-0.032-0.251-0.098-0.305-0.147s-0.2-0.104-0.322-0.124c-0.123-0.019-0.279-0.076-0.347-0.125s-0.257-0.104-0.422-0.121c-0.164-0.017-0.376-0.066-0.471-0.109s-0.352-0.095-0.571-0.116-0.402-0.040-0.409-0.041c-0.025-0.006-0.011-0.492 0.019-0.642 0.021-0.104 0.060-0.155 0.119-0.155 0.090 0 0.445-0.321 0.445-0.402 0-0.025 0.045-0.089 0.099-0.144 0.165-0.165 0.147-1.126-0.025-1.33-0.068-0.081-0.124-0.163-0.124-0.183 0-0.064-0.364-0.372-0.44-0.372-0.040 0-0.116-0.039-0.169-0.087-0.156-0.141-0.815-0.152-0.987-0.017zM16.347 0.302c1.131 0.317 1.203 1.784 0.119 2.432-0.072 0.043-0.095 0.131-0.109 0.424-0.023 0.452-0.045 0.436 0.866 0.588 3.797 0.633 6.374 3.672 6.499 7.665 0.032 1.035 0.051 1.116 0.252 1.116 0.853 0 2.242 1.211 2.248 1.96 0.002 0.242 0.025 0.247 1.186 0.263 1.22 0.017 1.224 0.016 1.392-0.31 0.675-1.312 2.617-1.072 2.949 0.365 0.076 0.328 0.069 0.443-0.054 0.883-0.073 0.262-0.572 0.856-0.722 0.86-0.035 0.001-0.153 0.045-0.262 0.098-0.128 0.062-0.303 0.096-0.496 0.096s-0.368-0.034-0.496-0.096c-0.109-0.053-0.222-0.097-0.251-0.098-0.114-0.004-0.535-0.435-0.654-0.67-0.196-0.387-0.152-0.376-1.357-0.361-1.16 0.014-1.235 0.031-1.235 0.28 0 0.138-0.247 0.685-0.389 0.861-0.519 0.645-1.015 0.953-1.769 1.097l-0.298 0.057-0.051 7.441-0.133 0.43c-0.262 0.849-0.659 1.449-1.304 1.97-0.292 0.236-0.925 0.601-1.042 0.601-0.033 0-0.125 0.033-0.206 0.073-0.161 0.080-0.714 0.172-1.045 0.174l-0.209 0.001-0.126 0.399c-0.069 0.22-0.126 0.424-0.126 0.454 0 0.393-0.845 1.498-1.439 1.883-0.895 0.58-2.274 0.852-2.927 0.577-0.095-0.040-0.291-0.101-0.434-0.135s-0.273-0.082-0.288-0.107-0.138-0.092-0.273-0.15c-0.135-0.058-0.245-0.125-0.245-0.149s-0.028-0.044-0.062-0.044c-0.097-0-0.618-0.484-0.85-0.789-0.37-0.487-0.575-0.945-0.771-1.718l-0.051-0.2-0.559-0.056c-1.722-0.173-3.167-1.579-3.361-3.27-0.029-0.257-0.051-1.88-0.051-3.898l-0-3.458-0.186-0.052c-0.102-0.028-0.231-0.052-0.285-0.052s-0.157-0.030-0.227-0.067c-0.070-0.036-0.193-0.083-0.273-0.103-0.57-0.142-1.293-0.946-1.491-1.659-0.111-0.399-0.127-0.404-1.279-0.404-1.118 0-1.232 0.025-1.313 0.293-0.087 0.29-0.482 0.66-0.872 0.816-1.614 0.646-2.894-1.413-1.632-2.623 0.744-0.713 2.083-0.451 2.499 0.49 0.124 0.28 0.116 0.278 1.341 0.279 1.152 0.001 1.191-0.011 1.26-0.38 0.053-0.284 0.357-0.791 0.649-1.083 0.399-0.399 0.714-0.553 1.66-0.812l0.124-0.034 0.031-0.966c0.031-0.966 0.103-1.668 0.186-1.825 0.024-0.046 0.071-0.218 0.105-0.381s0.103-0.391 0.154-0.506c0.052-0.114 0.094-0.224 0.094-0.243 0-0.043 0.281-0.661 0.348-0.764 0.026-0.041 0.084-0.141 0.128-0.223 0.971-1.801 3.224-3.428 5.18-3.743 1.16-0.186 1.191-0.201 1.191-0.577 0-0.314-0.075-0.503-0.218-0.548-0.166-0.052-0.57-0.509-0.63-0.712-0.313-1.043 0.557-1.95 1.593-1.659zM15.671 1.104c-0.385 0.347-0.237 0.877 0.262 0.936 0.491 0.058 0.745-0.594 0.361-0.923-0.221-0.189-0.423-0.193-0.623-0.013zM16.266 1.269c0.374 0.294-0.052 0.727-0.536 0.543-0.182-0.069-0.195-0.577-0.016-0.611 0.262-0.050 0.427-0.030 0.551 0.068zM14.983 4.439c-0.345 0.048-1.116 0.243-1.265 0.32-0.068 0.035-0.191 0.080-0.273 0.1-0.158 0.038-0.695 0.293-0.943 0.448-0.657 0.412-0.673 0.423-1.185 0.851-0.332 0.278-0.408 0.359-0.851 0.912-0.738 0.921-1.215 2.014-1.411 3.236-0.154 0.963-0.159 14.376-0.005 15.032 0.276 1.176 1.179 2.083 2.328 2.339 0.532 0.118 8.581 0.124 9.14 0.006 0.997-0.21 1.783-0.886 2.247-1.934l0.154-0.347v-7.566c0-7.239-0.004-7.58-0.093-7.888-0.051-0.177-0.125-0.456-0.165-0.62s-0.092-0.32-0.115-0.349-0.080-0.162-0.126-0.298c-0.046-0.136-0.11-0.28-0.144-0.321s-0.092-0.153-0.129-0.248c-0.038-0.095-0.086-0.196-0.108-0.223s-0.134-0.195-0.249-0.372c-0.305-0.468-0.306-0.469-0.93-1.079s-0.784-0.756-0.825-0.756c-0.015 0-0.131-0.071-0.259-0.158-0.407-0.277-0.476-0.318-0.653-0.387-0.096-0.037-0.196-0.085-0.224-0.106-0.572-0.429-2.74-0.756-3.918-0.591zM16.597 4.54c0.163 0.055 0.503 0.114 0.755 0.13 0.347 0.023 0.484 0.053 0.561 0.123 0.056 0.051 0.212 0.107 0.347 0.124s0.293 0.075 0.352 0.128c0.059 0.053 0.196 0.109 0.306 0.124 0.136 0.018 0.206 0.055 0.223 0.117 0.015 0.056 0.089 0.102 0.198 0.123 0.096 0.018 0.221 0.086 0.278 0.152s0.137 0.119 0.177 0.119c0.040 0 0.097 0.045 0.126 0.099s0.084 0.099 0.122 0.099c0.038 0 0.136 0.067 0.218 0.149s0.166 0.149 0.186 0.149c0.062 0 0.819 0.805 0.945 1.005 0.065 0.102 0.14 0.186 0.167 0.186s0.049 0.035 0.049 0.077c0 0.042 0.053 0.126 0.118 0.186s0.134 0.183 0.153 0.273c0.020 0.090 0.078 0.19 0.13 0.223s0.095 0.1 0.095 0.149c0 0.114 0.137 0.383 0.195 0.383 0.024 0 0.059 0.111 0.078 0.247s0.075 0.299 0.125 0.363c0.058 0.073 0.104 0.246 0.126 0.475 0.019 0.198 0.077 0.441 0.128 0.541 0.127 0.248 0.147 14.937 0.021 15.042-0.039 0.033-0.099 0.186-0.133 0.341s-0.113 0.345-0.176 0.422c-0.063 0.077-0.115 0.16-0.115 0.185 0 0.069-0.759 0.841-0.827 0.841-0.033 0-0.090 0.041-0.125 0.092s-0.146 0.107-0.246 0.125c-0.1 0.018-0.244 0.083-0.321 0.144l-0.14 0.11h-9.478l-0.107-0.107c-0.059-0.059-0.181-0.123-0.273-0.143s-0.229-0.089-0.307-0.154c-0.077-0.065-0.171-0.118-0.21-0.118s-0.106-0.056-0.151-0.124c-0.045-0.068-0.109-0.124-0.142-0.124s-0.086-0.056-0.117-0.124c-0.031-0.068-0.079-0.124-0.106-0.124s-0.093-0.085-0.146-0.189c-0.053-0.104-0.132-0.219-0.175-0.254s-0.078-0.107-0.078-0.159c0-0.052-0.061-0.211-0.136-0.354l-0.136-0.26-0.014-6.933c-0.015-7.162 0.007-8.35 0.157-8.578 0.046-0.071 0.098-0.248 0.114-0.395s0.083-0.358 0.147-0.47c0.064-0.111 0.117-0.248 0.117-0.303s0.042-0.154 0.094-0.22c0.051-0.066 0.129-0.203 0.172-0.306s0.112-0.221 0.154-0.263c0.042-0.042 0.076-0.117 0.076-0.167s0.033-0.103 0.072-0.118c0.040-0.015 0.117-0.115 0.172-0.222s0.134-0.208 0.176-0.224 0.077-0.061 0.077-0.1c0-0.039 0.056-0.107 0.124-0.152s0.124-0.112 0.124-0.149c0-0.037 0.046-0.080 0.103-0.094s0.114-0.071 0.129-0.125 0.070-0.11 0.124-0.124c0.054-0.014 0.11-0.070 0.124-0.124s0.078-0.112 0.142-0.128c0.064-0.016 0.13-0.074 0.147-0.128s0.073-0.099 0.124-0.099 0.135-0.055 0.188-0.121c0.052-0.067 0.157-0.137 0.233-0.156s0.149-0.076 0.162-0.127c0.015-0.056 0.069-0.092 0.139-0.092 0.063 0 0.178-0.053 0.255-0.117s0.223-0.132 0.325-0.151c0.101-0.019 0.213-0.074 0.248-0.124 0.040-0.057 0.152-0.099 0.304-0.117 0.132-0.015 0.304-0.074 0.382-0.132 0.097-0.071 0.217-0.105 0.379-0.106 0.296-0.002 0.967-0.119 1.089-0.19 0.156-0.091 0.785-0.066 1.11 0.044zM15.157 5.563c-0.068 0.012-0.202 0.054-0.298 0.092s-0.301 0.084-0.456 0.101c-0.156 0.017-0.334 0.071-0.397 0.121s-0.207 0.105-0.321 0.124c-0.114 0.019-0.245 0.077-0.292 0.129s-0.162 0.109-0.257 0.127c-0.094 0.018-0.183 0.064-0.198 0.102s-0.1 0.101-0.19 0.138c-0.162 0.067-0.216 0.107-0.483 0.348-0.076 0.068-0.182 0.148-0.236 0.176s-0.098 0.083-0.098 0.119c0 0.037-0.046 0.079-0.103 0.094s-0.115 0.073-0.13 0.13c-0.015 0.057-0.057 0.103-0.094 0.103s-0.101 0.064-0.141 0.143c-0.041 0.079-0.108 0.156-0.15 0.172s-0.076 0.059-0.076 0.096c0 0.037-0.067 0.142-0.149 0.234s-0.149 0.202-0.149 0.245c0 0.043-0.044 0.106-0.097 0.139s-0.112 0.142-0.131 0.242c-0.019 0.1-0.074 0.222-0.124 0.271s-0.104 0.175-0.121 0.279c-0.017 0.104-0.073 0.268-0.124 0.365s-0.108 0.331-0.125 0.521c-0.017 0.19-0.064 0.49-0.104 0.667-0.093 0.41-0.081 5.493 0.013 5.611 0.030 0.038 0.067 0.177 0.081 0.308 0.015 0.14 0.067 0.284 0.125 0.347 0.055 0.060 0.116 0.164 0.137 0.233s0.084 0.173 0.142 0.232c0.386 0.398 0.456 0.455 0.602 0.492 0.080 0.020 0.183 0.083 0.229 0.14 0.191 0.236 9.122 0.17 9.122-0.068 0-0.029 0.045-0.052 0.1-0.052s0.17-0.067 0.255-0.149c0.086-0.082 0.172-0.149 0.191-0.149 0.047 0 0.446-0.536 0.446-0.599 0-0.027 0.050-0.117 0.112-0.201l0.112-0.151v-3.359c0-3.16-0.005-3.367-0.090-3.496-0.049-0.075-0.11-0.262-0.135-0.414s-0.080-0.316-0.123-0.363c-0.043-0.048-0.102-0.173-0.13-0.278s-0.092-0.237-0.141-0.291c-0.049-0.055-0.106-0.155-0.126-0.223s-0.079-0.153-0.13-0.189c-0.051-0.036-0.092-0.092-0.092-0.125 0-0.076-0.512-0.706-0.744-0.916-0.423-0.382-0.518-0.457-0.578-0.457-0.035 0-0.087-0.043-0.115-0.096s-0.101-0.112-0.163-0.131c-0.061-0.019-0.175-0.088-0.252-0.152s-0.176-0.117-0.22-0.117c-0.044 0-0.128-0.046-0.188-0.101s-0.195-0.115-0.301-0.132c-0.106-0.017-0.249-0.072-0.317-0.122-0.073-0.053-0.256-0.104-0.447-0.123-0.177-0.018-0.389-0.067-0.471-0.11-0.147-0.077-1.538-0.133-1.86-0.075zM16.786 5.756c2.058 0.255 3.853 1.693 4.568 3.661 0.347 0.956 0.352 1.009 0.352 4.165v2.847l-0.122 0.359c-0.206 0.607-0.596 1.019-1.264 1.338l-0.276 0.132h-4.093c-3.779 0-4.104-0.007-4.242-0.085-0.082-0.047-0.233-0.118-0.335-0.159s-0.186-0.097-0.186-0.126c0-0.029-0.031-0.052-0.070-0.052-0.117 0-0.53-0.502-0.694-0.843l-0.154-0.322v-3.15c0-3.529-0.025-3.247 0.383-4.291 0.941-2.411 3.411-3.809 6.133-3.472zM14.834 6.554c-0.273 0.065-0.552 0.149-0.62 0.187s-0.213 0.097-0.322 0.132c-0.109 0.035-0.254 0.102-0.322 0.149s-0.23 0.152-0.359 0.234c-1.136 0.722-2 2.057-2.17 3.353-0.086 0.659-0.067 5.618 0.023 5.921 0.092 0.31 0.296 0.572 0.605 0.777l0.237 0.157h8.138l0.238-0.165c0.307-0.213 0.563-0.566 0.628-0.867 0.071-0.327 0.069-5.26-0.002-5.773-0.184-1.322-0.952-2.542-2.126-3.378-0.125-0.089-0.245-0.161-0.269-0.161s-0.101-0.042-0.174-0.093c-0.728-0.515-2.389-0.739-3.505-0.472zM17.43 6.774c0.053 0.065 0.166 0.114 0.307 0.133 0.126 0.016 0.284 0.080 0.363 0.146 0.077 0.064 0.174 0.117 0.216 0.117s0.142 0.056 0.223 0.124c0.081 0.068 0.188 0.124 0.237 0.124s0.101 0.044 0.115 0.099c0.014 0.054 0.084 0.121 0.155 0.148s0.129 0.072 0.129 0.101 0.056 0.077 0.124 0.108c0.068 0.031 0.124 0.077 0.124 0.101s0.1 0.144 0.223 0.265 0.223 0.242 0.223 0.268c0 0.026 0.055 0.102 0.122 0.17s0.137 0.18 0.154 0.252c0.018 0.071 0.071 0.157 0.119 0.19s0.102 0.15 0.122 0.259c0.020 0.109 0.076 0.243 0.123 0.298 0.051 0.058 0.111 0.258 0.145 0.485 0.032 0.212 0.091 0.451 0.132 0.531 0.083 0.161 0.116 5.706 0.034 5.706-0.049 0-0.208 0.322-0.208 0.42 0 0.038-0.044 0.083-0.097 0.1s-0.11 0.074-0.127 0.127c-0.017 0.053-0.060 0.097-0.095 0.097s-0.146 0.056-0.247 0.124l-0.183 0.124h-3.934c-3.871 0-3.936-0.002-4.024-0.099-0.049-0.055-0.117-0.099-0.149-0.099-0.084 0-0.316-0.225-0.479-0.465l-0.139-0.205-0.001-3.051c-0.001-2.942 0.003-3.057 0.096-3.21 0.053-0.088 0.112-0.271 0.13-0.408 0.019-0.14 0.084-0.319 0.151-0.409 0.065-0.088 0.118-0.198 0.118-0.245s0.056-0.152 0.124-0.233c0.068-0.081 0.124-0.171 0.124-0.2s0.050-0.107 0.112-0.175 0.179-0.206 0.26-0.31c0.194-0.244 0.568-0.615 0.621-0.615 0.023 0 0.085-0.056 0.139-0.124s0.133-0.124 0.178-0.124 0.127-0.054 0.184-0.119c0.057-0.066 0.179-0.134 0.272-0.151s0.19-0.072 0.216-0.122c0.032-0.060 0.125-0.099 0.273-0.116 0.123-0.014 0.286-0.067 0.361-0.118 0.294-0.2 2.772-0.214 2.932-0.017zM13.28 9.4c-0.263 0.137-0.604 0.449-0.604 0.552 0 0.030-0.045 0.111-0.099 0.18-0.162 0.206-0.12 1.155 0.051 1.155 0.019 0 0.049 0.069 0.066 0.153 0.019 0.095 0.068 0.163 0.129 0.179 0.054 0.014 0.111 0.068 0.128 0.119s0.090 0.108 0.163 0.125c0.073 0.017 0.179 0.073 0.235 0.124 0.201 0.182 0.927 0.181 1.11-0.003 0.049-0.049 0.15-0.104 0.225-0.123s0.148-0.078 0.162-0.131c0.014-0.053 0.055-0.097 0.091-0.097 0.141 0 0.394-0.644 0.391-0.993-0.011-1.003-1.164-1.702-2.047-1.241zM17.524 9.352c-0.069 0.055-0.161 0.099-0.204 0.099s-0.114 0.056-0.159 0.124c-0.045 0.068-0.111 0.124-0.147 0.124s-0.081 0.049-0.1 0.109c-0.019 0.060-0.081 0.146-0.137 0.192-0.204 0.165-0.165 1.386 0.045 1.386 0.039 0 0.071 0.034 0.071 0.076 0 0.101 0.322 0.42 0.425 0.42 0.044 0 0.121 0.050 0.171 0.111 0.136 0.168 0.925 0.168 1.103 0 0.065-0.061 0.147-0.112 0.182-0.112 0.103 0 0.55-0.496 0.552-0.612 0.001-0.059 0.034-0.163 0.073-0.231 0.078-0.136 0.1-0.623 0.031-0.666-0.024-0.015-0.068-0.122-0.097-0.239-0.058-0.229-0.447-0.683-0.585-0.683-0.042 0-0.134-0.045-0.203-0.099-0.101-0.080-0.201-0.099-0.51-0.099s-0.408 0.019-0.51 0.099zM14.384 9.504c1.096 0.41 1.004 2.067-0.132 2.397-0.379 0.11-0.41 0.108-0.936-0.078-0.256-0.091-0.544-0.45-0.641-0.801-0.289-1.043 0.679-1.903 1.71-1.518zM18.46 9.474c0.516 0.153 0.834 0.616 0.836 1.217 0.006 1.359-1.799 1.758-2.416 0.533-0.505-1.001 0.469-2.080 1.579-1.751zM13.524 10.321c-0.221 0.252-0.214 0.491 0.022 0.719 0.503 0.487 1.201-0.222 0.714-0.725-0.237-0.245-0.517-0.243-0.735 0.006zM17.695 10.286c-0.436 0.361 0.024 1.142 0.522 0.885 0.193-0.1 0.304-0.233 0.318-0.38 0.050-0.545-0.437-0.838-0.839-0.505zM14.156 10.388c0.084 0.053 0.095 0.485 0.014 0.566-0.033 0.033-0.158 0.060-0.278 0.060-0.278 0-0.339-0.065-0.335-0.352 0.004-0.268 0.055-0.316 0.335-0.316 0.109 0 0.228 0.019 0.265 0.042zM18.265 10.374c0.201 0.054 0.191 0.516-0.014 0.609-0.199 0.091-0.345 0.064-0.512-0.092-0.324-0.302 0.031-0.65 0.527-0.517zM13.208 13.131c-0.271 0.147-0.3 0.232-0.274 0.82 0.019 0.416 0.042 0.541 0.124 0.651 0.056 0.075 0.116 0.206 0.135 0.291s0.077 0.194 0.13 0.242c0.053 0.048 0.096 0.114 0.096 0.147 0 0.049 0.197 0.295 0.385 0.482 0.171 0.17 0.394 0.336 0.451 0.336 0.039 0 0.122 0.056 0.185 0.124 0.069 0.074 0.17 0.124 0.251 0.124 0.075 0 0.189 0.050 0.254 0.112 0.114 0.107 0.154 0.112 1.004 0.112 0.84 0 0.893-0.006 1.036-0.112 0.083-0.061 0.209-0.112 0.279-0.112s0.184-0.056 0.252-0.124c0.068-0.068 0.155-0.124 0.193-0.124s0.113-0.056 0.166-0.124c0.054-0.068 0.114-0.124 0.133-0.124 0.060 0 0.372-0.362 0.372-0.431 0-0.036 0.032-0.065 0.071-0.065s0.086-0.047 0.104-0.104c0.018-0.057 0.087-0.183 0.152-0.28s0.119-0.223 0.119-0.281c0-0.058 0.048-0.194 0.107-0.303 0.136-0.25 0.163-0.967 0.042-1.084-0.295-0.284-0.252-0.28-3.026-0.276-2.476 0.003-2.562 0.006-2.743 0.105zM18.763 13.333c0.37 0.408-0.034 1.643-0.773 2.359-0.222 0.215-0.828 0.605-0.94 0.605-0.033 0-0.187 0.045-0.343 0.099-0.544 0.191-1.757 0.062-2.097-0.223-0.041-0.034-0.152-0.102-0.246-0.15-0.212-0.107-0.766-0.666-0.876-0.882-0.044-0.088-0.108-0.193-0.142-0.234-0.276-0.336-0.408-1.359-0.202-1.565l0.122-0.122h5.395l0.101 0.112zM7.64 13.363c-0.978 0.342-1.533 1.581-1.118 2.492 0.313 0.687 1.084 1.237 1.564 1.117l0.126-0.032-0.026-3.595-0.223-0.009c-0.123-0.005-0.268 0.007-0.322 0.026zM23.773 13.354c-0.077 0.077-0.037 3.524 0.042 3.589 0.243 0.202 1.080-0.249 1.423-0.768 0.621-0.937 0.286-2.175-0.729-2.7-0.281-0.145-0.651-0.206-0.736-0.121zM8.031 13.482c0.017 0.061 0.030 0.854 0.031 1.761l0.001 1.65h-0.141c-0.078 0-0.18-0.042-0.226-0.094s-0.161-0.109-0.254-0.126c-0.093-0.017-0.197-0.072-0.232-0.121s-0.114-0.116-0.175-0.149c-0.061-0.032-0.112-0.088-0.112-0.124s-0.045-0.105-0.099-0.155c-0.055-0.049-0.122-0.181-0.15-0.293s-0.084-0.276-0.124-0.366c-0.094-0.209-0.093-0.457 0.002-0.638 0.041-0.078 0.088-0.223 0.105-0.322s0.080-0.235 0.142-0.301c0.062-0.067 0.128-0.17 0.147-0.229s0.062-0.108 0.097-0.108c0.034 0 0.113-0.054 0.175-0.119s0.185-0.133 0.275-0.15c0.089-0.017 0.203-0.075 0.252-0.129 0.118-0.131 0.253-0.125 0.29 0.013zM24.216 13.495c0.101 0.068 0.223 0.124 0.273 0.124s0.152 0.057 0.229 0.127c0.076 0.070 0.191 0.176 0.255 0.236s0.139 0.17 0.166 0.245 0.079 0.136 0.115 0.136c0.178 0 0.156 1.446-0.024 1.572-0.056 0.039-0.101 0.102-0.101 0.141 0 0.109-0.504 0.573-0.654 0.603-0.074 0.015-0.173 0.069-0.219 0.12-0.051 0.056-0.151 0.094-0.251 0.094h-0.166v-1.665c0-1.965 0.005-1.986 0.377-1.733zM13.985 13.965c-0.173 0.070-0.172 0.179 0.008 0.537 0.681 1.361 2.428 1.666 3.486 0.608 0.369-0.368 0.388-0.395 0.512-0.729l0.106-0.284-0.112-0.090c-0.122-0.099-3.766-0.137-4.001-0.042zM17.901 14.271c-0.017 0.086-0.072 0.197-0.122 0.247s-0.104 0.146-0.121 0.213c-0.017 0.067-0.084 0.158-0.15 0.201s-0.119 0.111-0.119 0.151-0.038 0.073-0.084 0.073c-0.046 0-0.141 0.052-0.211 0.115s-0.254 0.153-0.41 0.2c-0.156 0.047-0.297 0.107-0.313 0.133-0.055 0.089-0.729 0.056-0.893-0.044-0.082-0.050-0.233-0.107-0.335-0.126-0.191-0.036-0.26-0.085-0.612-0.435-0.328-0.326-0.369-0.383-0.443-0.628-0.039-0.128-0.071-0.238-0.071-0.245s0.881-0.012 1.958-0.012h1.958l-0.031 0.157zM1.414 14.366c-0.719 0.302-0.655 1.381 0.094 1.583 0.357 0.096 0.661-0.026 0.906-0.364 0.444-0.613-0.295-1.515-1-1.219zM29.939 14.351c-0.775 0.369-0.705 1.424 0.107 1.606 0.667 0.15 1.237-0.618 0.892-1.202-0.2-0.339-0.706-0.543-0.999-0.404zM1.996 14.549c0.061 0.034 0.145 0.062 0.186 0.062s0.075 0.040 0.075 0.089c0 0.049 0.024 0.113 0.053 0.142 0.071 0.071 0.071 0.413 0.001 0.619-0.104 0.304-0.646 0.548-0.802 0.36-0.036-0.044-0.118-0.099-0.181-0.123s-0.135-0.098-0.16-0.163-0.071-0.128-0.102-0.139c-0.099-0.033-0.069-0.467 0.040-0.576 0.053-0.053 0.105-0.117 0.116-0.141 0.045-0.105 0.514-0.302 0.589-0.247 0.041 0.030 0.124 0.083 0.185 0.117zM30.437 14.512c0.107 0.055 0.224 0.099 0.261 0.099 0.112 0 0.192 0.51 0.126 0.798-0.031 0.134-0.081 0.244-0.111 0.244s-0.137 0.056-0.237 0.124c-0.221 0.15-0.334 0.156-0.485 0.025-0.063-0.055-0.139-0.099-0.169-0.099-0.253 0-0.433-0.683-0.228-0.868 0.055-0.049 0.099-0.116 0.099-0.147 0-0.049 0.389-0.254 0.511-0.269 0.022-0.003 0.127 0.040 0.234 0.094zM10.976 20.515c-0.069 0.055-0.149 0.099-0.177 0.099-0.073 0-0.356 0.247-0.356 0.311 0 0.030-0.050 0.108-0.112 0.173-0.1 0.107-0.112 0.169-0.112 0.617 0 0.462 0.008 0.504 0.112 0.572 0.061 0.041 0.112 0.1 0.112 0.133 0 0.098 0.32 0.376 0.434 0.376 0.059 0 0.12 0.022 0.136 0.048 0.099 0.159 0.819 0.159 0.819-0.001 0-0.026 0.064-0.048 0.142-0.048 0.147 0 0.305-0.128 0.543-0.439 0.146-0.19 0.191-1.012 0.068-1.234-0.319-0.575-1.221-0.917-1.611-0.61zM11.788 20.622c0.855 0.29 1.043 1.344 0.349 1.958-0.376 0.333-1.142 0.276-1.505-0.111-0.797-0.85 0.060-2.218 1.156-1.847zM16.744 20.994c-0.591 0.202-0.606 0.237-0.586 1.371l0.015 0.886 0.324 0.289h4.915l0.171-0.186c0.216-0.235 0.232-0.329 0.212-1.216-0.027-1.203 0.029-1.18-2.869-1.174-1.16 0.002-2.142 0.015-2.183 0.030zM21.442 21.271c0.188 0.207 0.213 0.317 0.213 0.939-0 0.698-0.046 0.916-0.227 1.086l-0.128 0.12-2.067 0.016c-2.466 0.019-2.632 0.008-2.836-0.197l-0.149-0.149 0.002-0.778c0.003-1.248-0.24-1.146 2.731-1.148l2.36-0.002 0.102 0.112zM11.196 21.423c-0.155 0.165-0.143 0.396 0.028 0.53 0.232 0.183 0.553 0.045 0.557-0.239 0.005-0.361-0.353-0.539-0.585-0.291zM11.605 21.537c0.141 0.054 0.1 0.302-0.055 0.331-0.205 0.039-0.362-0.040-0.362-0.183 0-0.147 0.218-0.225 0.418-0.148zM17.043 22.026c-0.050 0.094-0.056 0.185-0.022 0.361l0.046 0.236 3.748 0.026 0.049-0.128c0.027-0.070 0.048-0.199 0.048-0.286-0.002-0.32 0.087-0.305-1.948-0.321l-1.853-0.014-0.067 0.126zM20.713 22.205c0 0.362 0.096 0.344-1.832 0.344-1.913 0-1.79 0.023-1.79-0.327v-0.17h3.622v0.152zM11.039 23.375c-0.14 0.057-0.546 0.332-0.546 0.369 0 0.021-0.061 0.11-0.136 0.2-0.185 0.221-0.21 1.134-0.035 1.276 0.056 0.045 0.117 0.122 0.135 0.17s0.073 0.103 0.122 0.122c0.048 0.018 0.124 0.078 0.168 0.133 0.263 0.325 1.681 0.085 1.681-0.284 0-0.019 0.041-0.075 0.092-0.126 0.205-0.205 0.188-1.128-0.025-1.325-0.064-0.059-0.117-0.133-0.117-0.163s-0.050-0.081-0.112-0.112c-0.061-0.032-0.162-0.103-0.223-0.16-0.114-0.104-0.823-0.175-1.004-0.101zM11.857 23.559c0.493 0.232 0.75 0.64 0.706 1.125-0.104 1.143-1.6 1.419-2.129 0.394-0.468-0.906 0.509-1.948 1.423-1.519zM11.287 24.27c-0.219 0.078-0.275 0.452-0.088 0.583 0.29 0.203 0.621 0.024 0.567-0.306-0.043-0.265-0.222-0.369-0.479-0.277zM11.67 24.657c-0.016 0.21-0.273 0.241-0.423 0.051l-0.101-0.128 0.264-0.272 0.135 0.1c0.102 0.075 0.133 0.137 0.124 0.249zM13.052 28.628c-0.094 0.374 0.421 1.328 0.964 1.789 1.54 1.306 3.989 0.737 4.698-1.090 0.044-0.113 0.095-0.227 0.114-0.254 0.065-0.092 0.1-0.322 0.069-0.447l-0.031-0.124h-5.783l-0.032 0.126zM18.669 28.713c0.078 0.094-0.034 0.582-0.171 0.748-0.064 0.077-0.116 0.171-0.116 0.209s-0.050 0.121-0.112 0.186-0.179 0.2-0.26 0.299c-0.082 0.099-0.176 0.181-0.209 0.182s-0.084 0.046-0.113 0.1-0.083 0.099-0.119 0.099c-0.036 0-0.142 0.052-0.236 0.116s-0.279 0.143-0.412 0.176c-0.133 0.034-0.288 0.093-0.344 0.133-0.165 0.116-1.069 0.099-1.281-0.024-0.090-0.052-0.269-0.111-0.396-0.129s-0.244-0.064-0.258-0.101c-0.014-0.037-0.099-0.099-0.189-0.137-0.188-0.080-0.692-0.568-0.862-0.835-0.064-0.1-0.139-0.196-0.167-0.214s-0.052-0.081-0.052-0.141c-0-0.060-0.033-0.164-0.072-0.233-0.133-0.23-0.172-0.346-0.143-0.421 0.039-0.102 5.431-0.115 5.515-0.013z"/>
</svg>