<svg xmlns="http://www.w3.org/2000/svg" width="32" height="32" viewBox="0 0 32 32" class="nav-icon"><title>admin</title><path style="fill:#FFF;" d="M23.493 24.692a4.186 4.186 0 0 1 .026-4.238 4.3 4.3 0 0 1 3.694-2.098h1.161v-4.361h-.851a4.56 4.56 0 0 1-3.959-2.295 4.584 4.584 0 0 1 .013-4.569l.427-.737-3.76-2.165-.483.835c-.787 1.36-2.242 2.197-3.817 2.196s-3.028-.839-3.815-2.199l-.486-.839-3.786 2.18.433.748a4.57 4.57 0 0 1 .015 4.555 4.54 4.54 0 0 1-3.946 2.29h-.734v4.361h1.028c1.521 0 2.929.799 3.707 2.103.78 1.308.79 2.934.027 4.252l-.518.895 3.76 2.165.483-.835c.787-1.36 2.242-2.197 3.817-2.196s3.028.839 3.815 2.199l.486.839 3.786-2.18-.524-.906zm2.37.053c.509.88.207 2.005-.675 2.512l-4.102 2.362a1.847 1.847 0 0 1-2.519-.673l-.577-.997a2.381 2.381 0 0 0-4.122-.003l-.574.992a1.846 1.846 0 0 1-2.519.673l-4.076-2.347a1.836 1.836 0 0 1-.675-2.512l.609-1.052a2.18 2.18 0 0 0-.014-2.208 2.288 2.288 0 0 0-1.965-1.115H3.443a1.842 1.842 0 0 1-1.844-1.839v-4.725c0-1.016.826-1.839 1.844-1.839h.916c.904 0 1.738-.484 2.184-1.268.45-.79.447-1.759-.009-2.546l-.524-.906a1.837 1.837 0 0 1 .675-2.513l4.102-2.362a1.846 1.846 0 0 1 2.519.673l.577.997a2.381 2.381 0 0 0 4.122.003l.574-.992a1.846 1.846 0 0 1 2.519-.673l4.076 2.347a1.837 1.837 0 0 1 .675 2.513l-.518.895a2.565 2.565 0 0 0-.008 2.558 2.53 2.53 0 0 0 2.198 1.274h1.034c1.018 0 1.844.823 1.844 1.839v4.725a1.842 1.842 0 0 1-1.844 1.839h-1.344a2.27 2.27 0 0 0-1.951 1.108 2.169 2.169 0 0 0-.013 2.196l.616 1.064zm-9.926-2.966c-3.206 0-5.807-2.587-5.807-5.779s2.6-5.779 5.807-5.779c3.206 0 5.807 2.587 5.807 5.779s-2.6 5.779-5.807 5.779zm0-2.021c2.088 0 3.78-1.683 3.78-3.758s-1.692-3.758-3.78-3.758-3.78 1.683-3.78 3.758 1.692 3.758 3.78 3.758z"></path></svg>