<?xml version="1.0" encoding="UTF-8" standalone="no"?>
<svg
   xmlns:dc="http://purl.org/dc/elements/1.1/"
   xmlns:cc="http://creativecommons.org/ns#"
   xmlns:rdf="http://www.w3.org/1999/02/22-rdf-syntax-ns#"
   xmlns:svg="http://www.w3.org/2000/svg"
   xmlns="http://www.w3.org/2000/svg"
   id="svg8"
   xml:space="preserve"
   enable-background="new 0 0 1000 1000"
   viewBox="0 0 1000 1000"
   width="64px" height="64px"
   y="0px"
   x="0px"
   version="1.1"><defs
     id="defs12" /><metadata
     id="metadata2"> Svg Vector Icons : http://www.onlinewebfonts.com/icon <rdf:RDF><cc:Work
     rdf:about=""><dc:format>image/svg+xml</dc:format><dc:type
       rdf:resource="http://purl.org/dc/dcmitype/StillImage" /></cc:Work></rdf:RDF></metadata><g
     id="g6"><path
       id="path4"
       d="M345.8,801.7c-57.7-14.4-89.8-60.3-89.9-128.3c0-21.7,1.5-32.2,7-46.2c13.3-34.3,48.5-60.2,94.9-69.7c23.1-4.7,30.2-9.8,30.2-21.6c0-3.7,2.8-14.7,6.1-24.5c15.3-44.3,43.5-81.2,73.6-96.4c31.6-15.8,47.5-19.4,85.7-19.2c54.2,0.3,81.3,12.1,119.1,51.8l20.8,21.9l18.7-6.5C802.2,432,892.2,485.1,899.5,574l2,24.3l17.8,6.4c50.7,18.2,74.6,56.4,70.3,112.5c-2.8,36.7-20,66-47.2,80.6l-12.8,6.8l-284.1,0.6C427.2,805.5,357.8,804.7,345.8,801.7L345.8,801.7L345.8,801.7z M108.8,761.1c-34.6-8.7-71.3-41-88.5-78c-9.8-21-10.3-24-10.3-61.1c0-35.3,0.8-40.9,8.6-58.5c16.4-36.9,47.7-63.6,87.1-74.1c8.3-2.2,16.1-5.8,17.4-7.8c1.3-2.1,2.6-13.6,3-25.4c2.8-73.9,48.6-139,112.6-159.9c34.6-11.3,80-12.3,117.6,3.6c11.9,5.1,10.6,6.1,35.8-28.8c14.9-20.7,43.2-42.6,67.9-55.7c26.6-14.1,54.4-20.7,87.5-20.6c92.6,0.2,172.4,61.5,201.9,154.9c9.4,29.9,9,38.2-2.2,38.5c-4.9,0.1-18.8,2.9-30.9,6.3l-22.1,6.1l-20.2-21.3c-56.8-60-149.5-73-228.3-32c-31.5,16.4-56.8,40-75.9,70.6c-13.6,21.9-31,62.7-31,72.8c0,7.2-5.5,10.8-29,18.9c-72.8,25.2-115.3,83.5-115.3,158.1c0,27.2,6.6,60.4,15.8,79.4c3.5,7.2,5.4,14,4.3,15.2C211.9,765.3,121.3,764.3,108.8,761.1L108.8,761.1L108.8,761.1z" /></g></svg>