<svg height="2288" viewBox="18 18.72 350.12595639 322.62" width="2500" xmlns="http://www.w3.org/2000/svg" xmlns:xlink="http://www.w3.org/1999/xlink"><linearGradient id="a" gradientUnits="userSpaceOnUse" x1="73.61" x2="73.61" y1="177.24" y2="37.97"><stop offset=".04" stop-color="#24c737"/><stop offset=".15" stop-color="#45d02e"/><stop offset=".4" stop-color="#98e816"/><stop offset=".63" stop-color="#e7ff00"/></linearGradient><linearGradient id="b" x1="162.12" x2="162.12" xlink:href="#a" y1="161.22" y2="26.82"/><linearGradient id="c" x1="260.14" x2="260.14" xlink:href="#a" y1="159.62" y2="29.66"/><path d="m341.85 227.26c0-2.23-.09-4.34-.11-6.33-.2-17.87-5.12-32.3-14.63-42.91l-.68-.76a109.88 109.88 0 0 0 -11.43-10.48l9-.63 5.39-137.45-8.87 1.18.35-8.36-53.46 7.09v21.32l-7.41-17.93-5.09.55-3.43-8.28-32.76 3.56v-1.39l-8.57.6v-8.32l-94.71 6.58-.15 15.06a31 31 0 0 0 -13.44-7.92c-9.49-2.88-20-2-27-1.45-1.58.13-2.94.24-4.06.29l-49.09 3.18 1.2 151.07 7.56-.7v2.72l-12.46 4.24 7 65 7.46-2.13 1.06 9.86 19.43-5.52 1.17 74.61 8.39-.78.13 8.51 93.78-8.76 1-27.24a55.72 55.72 0 0 0 5 4 28.61 28.61 0 0 0 2.94 3.17c12.3 11.36 27.09 15.85 53.39 15.85q2.83 0 5.84-.07c31.34-.71 58.92-5.84 72.35-10.61 6.14-2.18 14.1-5.39 21.24-10.92a54.52 54.52 0 0 0 17.3-23.36c7.15-17.82 6.7-39.97 6.37-56.14z"/><path d="m87.65 172s30.11 1.08 30.11-32.41a25.27 25.27 0 0 0 .11-4 33.38 33.38 0 0 0 -12.05-24.28l-4.8-4 6.21-7.43s13.1-12 9.18-39.7-33.62-21.88-45.23-21.34l-41.86 2.7 1.08 135.7zm-5.58-95.35c1.43 11.6-5.63 13.5-14.13 16.35l-.81-26.6s13.41-2.13 14.94 10.25zm.32 57.25c-1.42 13.1-15 10.33-15 10.33l-.3-23c2.74-.16 16.71-.43 15.29 12.67z" fill="url(#a)"/><path d="m201.88 113.83-43.66 5.49.18-14.59 39.43-4.05.47-18.5-38.73 3.06.05-15.93 42.71-3.15.23-39.34-79.62 5.54-1.27 128.86 79.76-8.33z" fill="url(#b)"/><path d="m250.04 154.51-3.51-59.5 25.83 58.87 35.83-2.52 4.77-121.7-37.99 5.04v65.98l-28.35-68.32-39.29 4.27 1.03 122.99z" fill="url(#c)"/><path d="m26.17 197 5.4 50.05 28.62-8.19 1.35 86.41 79.04-7.38 5.13-141.32-81.47 7.47zm299.48 16.29a74.6 74.6 0 0 0 -4.73-25.52 37.31 37.31 0 0 0 -8.72-13.26c-1.55-1.46-10-10.25-34.21-11.72-26.7-1.62-78.5 4.19-93.54 10.94-17.15 7.7-24.71 16.88-29.3 35.11 0 0-5.54 22.64-4 57.86 0 0 .1 22.62 10.77 32.47s24 14.45 53.93 13.77 56.81-5.49 70-10.17 26.5-11.38 34.06-30c5.19-12.78 6.05-29.29 6-43.08 0-6.29-.2-11.26-.26-16.4zm-47.08-24.16a6.61 6.61 0 1 1 -6.61 6.61 6.61 6.61 0 0 1 6.61-6.61zm-77.73 89.53a10.51 10.51 0 1 1 10.51-10.51 10.51 10.51 0 0 1 -10.5 10.51zm14.58 11.89a5.93 5.93 0 1 1 5.93-5.93 5.93 5.93 0 0 1 -5.92 5.93zm73-19a10.48 10.48 0 0 1 -10.51-10.55v-.66a6.62 6.62 0 1 1 7.27-9.32 10.48 10.48 0 1 1 3.19 20.46zm3.85-43.93a15.74 15.74 0 0 1 -29.85 9 17.68 17.68 0 0 1 -3.58 1.06 7.52 7.52 0 0 1 4.38 5.56 9.89 9.89 0 1 1 -12.05 15.18 17.81 17.81 0 0 1 -35.3-3.42 11.74 11.74 0 0 1 -9.45-5.9 10.51 10.51 0 1 1 -14.42-13.92 14.25 14.25 0 0 1 12.16-20.91 7.15 7.15 0 0 1 -.55-2.76 7.22 7.22 0 0 1 .09-1.14h-.14a9.19 9.19 0 1 1 8.59-5.91 7.17 7.17 0 0 1 5 10.27 9.89 9.89 0 0 1 8.2 5.34 5.93 5.93 0 1 1 0 9.06 9.94 9.94 0 0 1 -3.31 3.7 11.78 11.78 0 0 1 3 2.3 9 9 0 0 1 13.13 2.61 17.84 17.84 0 0 1 10.07 7.08v-.31a7.51 7.51 0 0 1 4.34-6.81 17.81 17.81 0 1 1 19.9-22.89 15.75 15.75 0 0 1 4.15-.56c.49 0 1 0 1.45.07a11.79 11.79 0 1 1 14.11 13.26z" fill="#fff"/></svg>