<?xml version="1.0" encoding="UTF-8"?>
<svg xmlns="http://www.w3.org/2000/svg" xmlns:xlink="http://www.w3.org/1999/xlink" width="64pt" height="64pt" viewBox="0 0 64 64" version="1.1">
<g id="surface1">
<path style=" stroke:none;fill-rule:nonzero;fill:rgb(38.039216%,71.372549%,21.176471%);fill-opacity:1;" d="M 56.925781 17.769531 L 46.230469 7.074219 C 42.132812 2.976562 35.484375 2.976562 31.386719 7.074219 L 4.585938 33.871094 C 3.804688 34.652344 3.804688 35.921875 4.585938 36.703125 L 10.894531 43.011719 C 11.6875 43.761719 12.929688 43.761719 13.722656 43.011719 C 15.757812 41.070312 18.957031 41.070312 20.988281 43.011719 C 22.992188 45.019531 22.992188 48.269531 20.988281 50.277344 C 20.210938 51.058594 20.210938 52.324219 20.988281 53.105469 L 27.296875 59.414062 C 28.078125 60.195312 29.347656 60.195312 30.128906 59.414062 L 56.925781 32.617188 C 61.019531 28.511719 61.019531 21.871094 56.925781 17.769531 Z M 56.925781 17.769531 "/>
<path style=" stroke:none;fill-rule:nonzero;fill:rgb(93.333333%,92.54902%,92.941176%);fill-opacity:1;" d="M 41.71875 32.074219 L 38.222656 29.601562 L 38.28125 25.320312 C 38.289062 24.558594 37.867188 23.859375 37.1875 23.511719 C 36.511719 23.167969 35.695312 23.238281 35.085938 23.691406 L 31.652344 26.253906 L 27.597656 24.878906 C 26.875 24.632812 26.078125 24.820312 25.539062 25.355469 C 25 25.894531 24.8125 26.691406 25.058594 27.414062 L 26.433594 31.46875 L 23.875 34.902344 C 23.421875 35.507812 23.351562 36.320312 23.691406 36.996094 C 24.027344 37.671875 24.722656 38.097656 25.476562 38.097656 L 25.503906 38.097656 L 29.785156 38.042969 L 32.253906 41.539062 C 32.695312 42.160156 33.449219 42.480469 34.203125 42.359375 C 34.953125 42.242188 35.574219 41.707031 35.796875 40.980469 L 37.070312 36.890625 L 41.160156 35.621094 C 41.886719 35.394531 42.421875 34.773438 42.542969 34.023438 C 42.660156 33.269531 42.34375 32.515625 41.71875 32.078125 Z M 41.71875 32.074219 "/>
<path style=" stroke:none;fill-rule:nonzero;fill:rgb(93.333333%,92.54902%,92.941176%);fill-opacity:1;" d="M 28.421875 10.058594 L 31.242188 7.238281 L 56.78125 32.78125 L 53.960938 35.601562 Z M 28.421875 10.058594 "/>
<path style=" stroke:none;fill-rule:nonzero;fill:rgb(0%,0%,0%);fill-opacity:1;" d="M 56.925781 17.769531 L 46.230469 7.074219 C 42.132812 2.976562 35.484375 2.976562 31.386719 7.074219 L 29.824219 8.636719 L 29.820312 8.636719 L 29.820312 8.640625 L 4.585938 33.871094 C 3.804688 34.652344 3.804688 35.921875 4.585938 36.703125 L 10.894531 43.011719 C 11.6875 43.761719 12.929688 43.761719 13.722656 43.011719 C 15.757812 41.070312 18.957031 41.070312 20.988281 43.011719 C 22.992188 45.019531 22.992188 48.269531 20.988281 50.277344 C 20.210938 51.058594 20.210938 52.324219 20.988281 53.105469 L 27.296875 59.414062 C 28.078125 60.195312 29.347656 60.195312 30.128906 59.414062 L 56.925781 32.617188 C 61.019531 28.511719 61.019531 21.871094 56.925781 17.769531 Z M 28.710938 55.171875 L 25.078125 51.535156 C 27.363281 47.921875 26.835938 43.207031 23.8125 40.183594 C 20.789062 37.160156 16.074219 36.636719 12.460938 38.921875 L 8.828125 35.289062 L 31.238281 12.878906 L 51.121094 32.765625 Z M 54.097656 29.789062 L 53.949219 29.9375 L 34.066406 10.050781 L 34.210938 9.902344 C 36.785156 7.445312 40.832031 7.445312 43.402344 9.902344 L 54.097656 20.597656 C 56.628906 23.136719 56.628906 27.25 54.097656 29.789062 Z M 54.097656 29.789062 "/>
<path style=" stroke:none;fill-rule:nonzero;fill:rgb(0%,0%,0%);fill-opacity:1;" d="M 41.71875 32.074219 L 38.222656 29.601562 L 38.28125 25.320312 C 38.289062 24.558594 37.867188 23.859375 37.1875 23.511719 C 36.511719 23.167969 35.695312 23.238281 35.085938 23.691406 L 31.652344 26.253906 L 27.597656 24.878906 C 26.875 24.632812 26.078125 24.820312 25.539062 25.355469 C 25 25.894531 24.8125 26.691406 25.058594 27.414062 L 26.433594 31.46875 L 23.875 34.902344 C 23.421875 35.507812 23.351562 36.320312 23.691406 36.996094 C 24.027344 37.671875 24.722656 38.097656 25.476562 38.097656 L 25.503906 38.097656 L 29.785156 38.042969 L 32.253906 41.539062 C 32.695312 42.160156 33.449219 42.480469 34.203125 42.359375 C 34.953125 42.242188 35.574219 41.707031 35.796875 40.980469 L 37.070312 36.890625 L 41.160156 35.621094 C 41.886719 35.394531 42.421875 34.773438 42.542969 34.023438 C 42.660156 33.269531 42.34375 32.515625 41.71875 32.078125 Z M 34.878906 33.382812 C 34.25 33.578125 33.757812 34.070312 33.5625 34.699219 L 33.179688 35.921875 L 32.441406 34.875 C 32.066406 34.34375 31.460938 34.03125 30.808594 34.03125 L 30.785156 34.03125 L 29.5 34.046875 L 30.269531 33.019531 C 30.660156 32.492188 30.769531 31.804688 30.558594 31.179688 L 30.148438 29.96875 L 31.359375 30.378906 C 31.984375 30.589844 32.671875 30.480469 33.199219 30.085938 L 34.226562 29.320312 L 34.210938 30.601562 C 34.203125 31.261719 34.519531 31.878906 35.054688 32.261719 L 36.101562 33 Z M 34.878906 33.382812 "/>
</g>
</svg>
