<?xml version="1.0" encoding="UTF-8"?>
<svg width="20px" height="20px" viewBox="0 0 23 22" version="1.1" xmlns="http://www.w3.org/2000/svg" xmlns:xlink="http://www.w3.org/1999/xlink">
    <!-- Generator: Sketch 52.6 (67491) - http://www.bohemiancoding.com/sketch -->
    <title>settings</title>
    <desc>Created with Sketch.</desc>
    <g id="Symbols" stroke="none" stroke-width="1" fill="none" fill-rule="evenodd">
        <g id="settings" transform="translate(0.120462, 0.000000)" fill="#5D657A" fill-rule="nonzero">
            <path d="M10.978885,7.390625 C9.00026861,7.390625 7.390625,9.00026861 7.390625,10.978885 C7.390625,12.9575013 9.00026861,14.5671449 10.978885,14.5671449 C12.9575013,14.5671449 14.5671449,12.9575013 14.5671449,10.978885 C14.5671449,9.00026861 12.9575013,7.390625 10.978885,7.390625 Z M10.978885,12.7637906 C9.99649502,12.7637906 9.1939793,11.9612749 9.1939793,10.978885 C9.1939793,9.99649502 9.99649502,9.1939793 10.978885,9.1939793 C11.9612749,9.1939793 12.7637906,9.99649502 12.7637906,10.978885 C12.7637906,11.9612749 11.9612749,12.7637906 10.978885,12.7637906 Z" id="Shape"></path>
            <path d="M20.3949686,8.73081761 L18.8406709,8.47253669 C18.7023061,8.02976939 18.5224319,7.59622642 18.3102725,7.18574423 L19.2280922,5.89895178 C19.827673,5.28553459 19.8230608,4.29392034 19.2142558,3.6851153 L18.2595388,2.73039832 C17.6507338,2.12159329 16.6637317,2.12159329 16.0503145,2.721174 L14.763522,3.63899371 C14.3530398,3.42683438 13.9194969,3.24696017 13.4767296,3.10859539 L13.2184486,1.54968553 C13.2138365,1.13459119 13.0524109,0.747169811 12.7572327,0.456603774 C12.4620545,0.161425577 12.0654088,0 11.6503145,0 C11.6503145,0 11.6503145,0 11.6503145,0 L10.3035639,0 C9.88385744,0 9.4918239,0.166037736 9.19203354,0.461215933 C8.90146751,0.751781971 8.74004193,1.13920335 8.73542977,1.55429769 L8.47714885,3.10859539 C8.03438155,3.24696017 7.60083857,3.42683438 7.19035639,3.63899371 L5.90356394,2.721174 C5.29014675,2.12159329 4.29853249,2.12620545 3.68972746,2.73501048 L2.73501048,3.68972746 C2.43983229,3.98490566 2.27379455,4.38155136 2.27840671,4.80125786 C2.27840671,5.2163522 2.43983229,5.60377358 2.72578616,5.89895178 L3.64360587,7.18574423 C3.43144654,7.59622642 3.25157233,8.02976939 3.11320755,8.47253669 L1.55429769,8.73081761 C0.691823899,8.74004193 0,9.44109015 0,10.3035639 L0,11.6503145 C0,12.070021 0.166037736,12.4620545 0.461215933,12.7618449 C0.751781971,13.0524109 1.13920335,13.2138365 1.55429769,13.2184486 L3.10859539,13.4767296 C3.24696017,13.9194969 3.42683438,14.3530398 3.63899371,14.763522 L2.72578616,16.0503145 C2.12620545,16.6637317 2.13081761,17.6553459 2.73962264,18.2641509 L3.68972746,19.2142558 L3.69433962,19.2188679 C4.30314465,19.827673 5.29014675,19.827673 5.90356394,19.2280922 L7.19496855,18.3102725 C7.60545073,18.5224319 8.03899371,18.7023061 8.48176101,18.8406709 L8.74004193,20.3995807 C8.74926625,21.2574423 9.45031447,21.9538784 10.3127883,21.9538784 C10.3127883,21.9538784 10.3127883,21.9538784 10.3127883,21.9538784 L11.6595388,21.9538784 C12.5174004,21.9538784 13.2184486,21.2574423 13.227673,20.3995807 L13.4859539,18.845283 C13.9287212,18.7069182 14.3622642,18.527044 14.7727463,18.3148847 L16.0595388,19.2327044 C16.672956,19.8322851 17.6645702,19.827673 18.2733753,19.2188679 L19.2234801,18.2733753 L19.2280922,18.2687631 C19.5232704,17.9735849 19.684696,17.5769392 19.684696,17.1572327 C19.684696,16.7421384 19.5232704,16.354717 19.2373166,16.0595388 L18.3194969,14.7727463 C18.5316562,14.3622642 18.7115304,13.9287212 18.8498952,13.4859539 L20.408805,13.227673 C20.8238994,13.2230608 21.2113208,13.0570231 21.506499,12.7618449 C21.8016771,12.4620545 21.9631027,12.070021 21.9584906,11.6503145 L21.9584906,10.3035639 C21.9492662,9.44109015 21.2528302,8.74004193 20.3949686,8.73081761 Z M17.3740042,11.954717 C17.2171908,12.9740042 16.8113208,13.9563941 16.1979036,14.7865828 L16.0964361,14.9203354 L17.4477987,16.8113208 L17.4570231,16.8251572 C17.6184486,16.9958071 17.6184486,17.2633124 17.4570231,17.4339623 C17.3740042,17.5169811 17.2679245,17.5677149 17.1480084,17.572327 C17.0327044,17.5769392 16.9174004,17.5308176 16.8343816,17.4477987 L16.8205451,17.4385744 L14.9295597,16.0872117 L14.7958071,16.1840671 C13.9656184,16.7928721 12.9878407,17.1987421 11.9685535,17.3555556 L11.8025157,17.3832285 L11.4150943,19.684696 L11.4150943,19.7031447 C11.4150943,19.9475891 11.2167715,20.1459119 10.972327,20.1459119 C10.7278826,20.1459119 10.5295597,19.9475891 10.5295597,19.7031447 L10.5295597,19.684696 L10.1421384,17.3832285 L9.97610063,17.3555556 C8.95681342,17.19413 7.97903564,16.7928721 7.14884696,16.1840671 L7.01509434,16.0872117 L5.12410901,17.4385744 L5.11027254,17.4477987 C4.93962264,17.6092243 4.6721174,17.6092243 4.50146751,17.4477987 C4.32620545,17.281761 4.32159329,17.0004193 4.48763103,16.8251572 L4.49685535,16.8113208 L5.84821803,14.9203354 L5.74675052,14.7865828 C5.13333333,13.9563941 4.72746331,12.9740042 4.5706499,11.954717 L4.5475891,11.7886792 L2.25534591,11.40587 L2.23689727,11.40587 C1.99706499,11.40587 1.79874214,11.2075472 1.79874214,10.9677149 C1.79874214,10.7278826 1.99706499,10.5295597 2.23689727,10.5295597 L2.25534591,10.5295597 L4.5475891,10.1467505 L4.5706499,9.98071279 C4.72746331,8.96142558 5.13333333,7.97903564 5.74675052,7.14884696 L5.84821803,7.01509434 L4.49685535,5.12410901 L4.48763103,5.11027254 C4.32620545,4.93962264 4.32620545,4.6721174 4.48763103,4.50146751 C4.65366876,4.32620545 4.93501048,4.32159329 5.11027254,4.48763103 L5.12410901,4.49685535 L7.01509434,5.84821803 L7.14884696,5.75136268 C7.97903564,5.14255765 8.95681342,4.73668763 9.97610063,4.57987421 L10.1421384,4.55220126 L10.5295597,2.25073375 L10.5295597,2.23228512 C10.5295597,1.98784067 10.7278826,1.78951782 10.972327,1.78951782 C10.972327,1.78951782 10.972327,1.78951782 10.972327,1.78951782 C11.0922432,1.78951782 11.202935,1.83563941 11.2859539,1.91865828 C11.3689727,2.00167715 11.4150943,2.11236897 11.4150943,2.23228512 L11.4150943,2.25995807 L11.8025157,4.56142558 L11.9685535,4.58909853 C12.9878407,4.75052411 13.9656184,5.15178197 14.7958071,5.760587 L14.9295597,5.85744235 L16.8205451,4.50607966 L16.8343816,4.49685535 C17.0050314,4.33542977 17.2725367,4.33542977 17.4431866,4.49685535 C17.6184486,4.66289308 17.6230608,4.9442348 17.4570231,5.11949686 L17.4477987,5.13333333 L16.0964361,7.02431866 L16.1979036,7.15807128 C16.8113208,7.98825996 17.2171908,8.9706499 17.3740042,9.98993711 L17.397065,10.1559748 L19.6893082,10.5387841 L19.7077568,10.5387841 C19.9475891,10.5387841 20.1459119,10.7371069 20.1459119,10.9769392 C20.1459119,11.2167715 19.9475891,11.4150943 19.7077568,11.4150943 L19.6893082,11.4150943 L17.397065,11.7979036 L17.3740042,11.954717 Z" id="Shape"></path>
        </g>
    </g>
</svg>