<svg id="Layer_1" data-name="Layer 1" xmlns="http://www.w3.org/2000/svg" width="64" height="64" viewBox="0 0 100 100"><defs><style>.cls-1{fill:#9b65c3;}.cls-2{fill:#be63c5;}.cls-3{fill:#bf63c6;}.cls-4{fill:#3278b1;}.cls-5{fill:#3278b2;}.cls-6{fill:#45a4ec;}.cls-7{fill:#19bb7d;}.cls-8{fill:#08c7fb;}.cls-9{fill:#59f2f6;}.cls-10{fill:#ffa700;}.cls-11{fill:#da3757;}.cls-12{fill:#d33c4e;}.cls-13{fill:#ee5a24;}.cls-14{fill:#8bdf55;}.cls-15{fill:#25c16f;}.cls-16{fill:#fb0;}.cls-17{fill:#ffa800;}</style></defs><title>freshworks-dew</title><path class="cls-1" d="M0.55,57.42a49.86,49.86,0,0,0,14.1,27.94L31.7,68.3A50,50,0,0,1,56.7,25Z"/><path class="cls-1" d="M31.7,68.3a49.75,49.75,0,0,1-25-6.69h0A50.38,50.38,0,0,1,.55,57.42a49.86,49.86,0,0,0,14.1,27.94L31.7,68.3h0Z"/><path class="cls-2" d="M31.7,68.3h0L14.65,85.35a49.86,49.86,0,0,0,27.94,14.1L75,43.3A50,50,0,0,1,31.7,68.3Z"/><path class="cls-3" d="M38.4,93.3a49.75,49.75,0,0,1-6.69-25L14.65,85.35a49.86,49.86,0,0,0,27.94,14.1A50.38,50.38,0,0,1,38.4,93.3h0Z"/><path class="cls-4" d="M95.28,2.73L56.7,25a50,50,0,0,1-50,0A49.75,49.75,0,0,0,0,50H0a50.41,50.41,0,0,0,.55,7.42A50.39,50.39,0,0,0,6.7,61.6h0a49.75,49.75,0,0,0,25,6.69h0L96.33,3.67A12.53,12.53,0,0,0,95.28,2.73Z"/><path class="cls-5" d="M6.7,61.6a49.75,49.75,0,0,0,25,6.69A50,50,0,0,1,56.7,25L0.55,57.42A50.38,50.38,0,0,0,6.7,61.6h0Z"/><path class="cls-6" d="M6.71,25A49.75,49.75,0,0,0,0,50H0a50.39,50.39,0,0,0,.55,7.42L56.7,25A50,50,0,0,1,6.71,25Z"/><path class="cls-7" d="M96.33,3.67a12.31,12.31,0,0,0-2.6-2A12.4,12.4,0,0,0,87.5,0H50A50,50,0,0,0,6.71,25a50,50,0,0,0,50,0,50,50,0,0,0-25,43.3h0A50,50,0,0,0,75,43.3L97.27,4.72A12.51,12.51,0,0,0,96.33,3.67Z"/><path class="cls-8" d="M56.7,25L95.28,2.73a12.61,12.61,0,0,0-1.54-1L6.71,25A50,50,0,0,0,56.7,25Z"/><path class="cls-9" d="M87.5,0H50A50,50,0,0,0,6.71,25l87-23.32A12.4,12.4,0,0,0,87.5,0Z"/><polygon class="cls-10" points="31.7 68.3 31.7 68.3 31.7 68.3 31.7 68.3"/><path class="cls-11" d="M75,43.3L97.27,4.72a12.51,12.51,0,0,0-.94-1.05L31.7,68.3h0a49.75,49.75,0,0,0,6.69,25h0a50.36,50.36,0,0,0,4.19,6.15A50.38,50.38,0,0,0,50,100h0a49.75,49.75,0,0,0,25-6.71A50,50,0,0,1,75,43.3Z"/><path class="cls-12" d="M31.7,68.3h0a49.75,49.75,0,0,0,6.69,25h0a50.38,50.38,0,0,0,4.19,6.15L75,43.3A50,50,0,0,1,31.7,68.3Z"/><path class="cls-13" d="M75,43.3L42.58,99.45A50.39,50.39,0,0,0,50,100h0a49.75,49.75,0,0,0,25-6.71A50,50,0,0,1,75,43.3Z"/><path class="cls-14" d="M98.32,6.27a12.44,12.44,0,0,0-3-3.54L56.7,25a50,50,0,0,0-25,43.3h0A50,50,0,0,0,75,43.3a50,50,0,0,0,0,50A50,50,0,0,0,100,50V12.5A12.4,12.4,0,0,0,98.32,6.27Z"/><path class="cls-15" d="M95.28,2.73L56.7,25a50,50,0,0,0-25,43.3h0L96.33,3.67A12.55,12.55,0,0,0,95.28,2.73Z"/><path class="cls-14" d="M31.7,68.3A50,50,0,0,0,75,43.3L97.27,4.72a12.57,12.57,0,0,0-.94-1.05Z"/><path class="cls-16" d="M97.27,4.72L75,43.3a50,50,0,0,0,0,50l23.32-87A12.61,12.61,0,0,0,97.27,4.72Z"/><path class="cls-17" d="M75,93.29A50,50,0,0,0,100,50V12.5a12.4,12.4,0,0,0-1.68-6.23Z"/></svg>
