<?xml version="1.0" encoding="utf-8"?>
<!-- Generator: Adobe Illustrator 19.2.0, SVG Export Plug-In . SVG Version: 6.00 Build 0)  -->
<svg version="1.1" id="Layer_1" xmlns="http://www.w3.org/2000/svg" xmlns:xlink="http://www.w3.org/1999/xlink" x="0px" y="0px"
	 width="64px" height="64px" viewBox="0 0 512 512" style="enable-background:new 0 0 512 512;" xml:space="preserve">
<path d="M56.7,257c0-100.5,81.8-182.2,182.2-182.2h210.5c20.5-0.7,37-16.6,38.9-36.7H238.9C118.2,38,20,136.2,20,257
	c0,120.7,98.2,219,218.9,219s219-98.2,219-219V118.6c0-9.9-7.3-18.3-17.6-18.4c0,0-174.9,0-189.9,0c-115.2,0-178.5,91.1-168.6,185.2
	c9.1,86.2,68.8,143.7,146.4,153.4C132.7,433.2,56.7,353.8,56.7,257z M191.9,294.8c0.6,1.6,1.4,3.1,2.1,4.7
	c7.1,13.6,16.7,25.1,27.8,33.9c-4.3,5.9-10,10.5-17,13.2c-21.9,8.5-47.5-5.2-57.2-30.6c-8.4-22-2-45.5,14.1-56.9
	c2.3-43.1,29.2-82.9,71.7-99.3c42.4-16.4,88.6-5,118.9,25.2c19.9-3.1,40.9,10.2,49.4,32.7c8.8,23.2,1.3,48.1-16.8,58.7
	c0,0.1,0,0.3,0,0.4c-0.1-0.1-0.3-0.1-0.4-0.1c-1.6,0.9-3.2,1.7-4.9,2.4c-4.3,1.7-8.7,2.4-13.1,2.4c-2.3,19.9-9.9,38.8-21.9,54.8
	c1.4,3.5,1,7.6-1.6,10.7l-9.5,11.6c-3.7,4.6-10.3,5.3-14.8,1.6c-4.5-3.7-5.2-10.4-1.6-14.9l9.5-11.6c2.6-3.2,6.6-4.5,10.4-3.7
	c10.3-14.4,16.9-31.7,19.3-49.6h-0.1c0.1-0.6,0.2-1.1,0.3-1.7c1.5-12.5,3.1-25.2,0.3-37.4c0,0-0.9-5.1-1.7-7.1
	c-0.2-0.7-0.4-1.3-0.7-2c-17.2-45.3-67.6-67.9-112.4-50.5C197.1,198.7,174.7,249.5,191.9,294.8z" fill="#404543"></path>
</svg>
