<?xml version="1.0" encoding="UTF-8"?>
<svg xmlns="http://www.w3.org/2000/svg" xmlns:xlink="http://www.w3.org/1999/xlink" width="64pt" height="64pt" viewBox="0 0 64 64" version="1.1">
<g id="surface1">
<path style=" stroke:none;fill-rule:nonzero;fill:rgb(0%,0%,0%);fill-opacity:1;" d="M 59.644531 16.703125 C 56.785156 11.804688 52.910156 7.925781 48.011719 5.070312 C 43.113281 2.210938 37.765625 0.78125 31.964844 0.78125 C 26.167969 0.78125 20.816406 2.210938 15.921875 5.070312 C 11.023438 7.925781 7.144531 11.804688 4.289062 16.703125 C 1.429688 21.601562 0 26.949219 0 32.746094 C 0 39.714844 2.03125 45.976562 6.097656 51.539062 C 10.164062 57.105469 15.414062 60.953125 21.851562 63.089844 C 22.601562 63.230469 23.15625 63.132812 23.515625 62.800781 C 23.878906 62.46875 24.058594 62.050781 24.058594 61.550781 C 24.058594 61.46875 24.050781 60.71875 24.035156 59.304688 C 24.023438 57.886719 24.015625 56.652344 24.015625 55.601562 L 23.058594 55.765625 C 22.449219 55.878906 21.679688 55.925781 20.75 55.910156 C 19.820312 55.898438 18.855469 55.800781 17.855469 55.621094 C 16.855469 55.441406 15.925781 55.023438 15.066406 54.371094 C 14.207031 53.71875 13.597656 52.867188 13.234375 51.8125 L 12.820312 50.855469 C 12.542969 50.21875 12.105469 49.507812 11.507812 48.734375 C 10.910156 47.957031 10.308594 47.429688 9.699219 47.152344 L 9.40625 46.941406 C 9.210938 46.804688 9.03125 46.636719 8.867188 46.441406 C 8.699219 46.25 8.574219 46.054688 8.492188 45.859375 C 8.40625 45.664062 8.476562 45.503906 8.699219 45.378906 C 8.921875 45.253906 9.324219 45.195312 9.90625 45.195312 L 10.738281 45.320312 C 11.292969 45.429688 11.980469 45.761719 12.796875 46.316406 C 13.617188 46.871094 14.289062 47.59375 14.816406 48.480469 C 15.457031 49.621094 16.226562 50.488281 17.128906 51.082031 C 18.027344 51.679688 18.9375 51.976562 19.851562 51.976562 C 20.769531 51.976562 21.558594 51.910156 22.226562 51.769531 C 22.890625 51.632812 23.515625 51.421875 24.097656 51.144531 C 24.347656 49.285156 25.027344 47.855469 26.136719 46.859375 C 24.554688 46.691406 23.132812 46.441406 21.871094 46.109375 C 20.609375 45.773438 19.304688 45.234375 17.960938 44.484375 C 16.613281 43.734375 15.496094 42.804688 14.609375 41.695312 C 13.722656 40.585938 12.992188 39.128906 12.425781 37.324219 C 11.855469 35.523438 11.570312 33.441406 11.570312 31.082031 C 11.570312 27.722656 12.667969 24.867188 14.859375 22.507812 C 13.832031 19.984375 13.929688 17.152344 15.148438 14.015625 C 15.957031 13.765625 17.148438 13.953125 18.730469 14.578125 C 20.3125 15.203125 21.46875 15.738281 22.207031 16.179688 C 22.941406 16.625 23.53125 17 23.976562 17.304688 C 26.554688 16.585938 29.21875 16.222656 31.964844 16.222656 C 34.714844 16.222656 37.378906 16.585938 39.957031 17.304688 L 41.539062 16.308594 C 42.621094 15.640625 43.898438 15.03125 45.367188 14.476562 C 46.839844 13.921875 47.964844 13.765625 48.742188 14.015625 C 49.988281 17.152344 50.101562 19.984375 49.074219 22.507812 C 51.265625 24.867188 52.363281 27.726562 52.363281 31.082031 C 52.363281 33.441406 52.078125 35.527344 51.507812 37.347656 C 50.941406 39.164062 50.207031 40.621094 49.304688 41.71875 C 48.402344 42.8125 47.277344 43.734375 45.933594 44.484375 C 44.585938 45.234375 43.28125 45.773438 42.019531 46.109375 C 40.757812 46.441406 39.335938 46.691406 37.753906 46.859375 C 39.195312 48.105469 39.917969 50.078125 39.917969 52.769531 L 39.917969 61.550781 C 39.917969 62.050781 40.089844 62.464844 40.4375 62.796875 C 40.785156 63.128906 41.332031 63.230469 42.082031 63.089844 C 48.519531 60.953125 53.769531 57.101562 57.835938 51.539062 C 61.902344 45.976562 63.933594 39.710938 63.933594 32.746094 C 63.933594 26.949219 62.503906 21.601562 59.644531 16.703125 Z M 59.644531 16.703125 "/>
</g>
</svg>
