<svg enable-background="new 0 0 512 512" id="Layer_1" version="1.1"  width="64px" height="64px" viewBox="0 0 512 512"  xml:space="preserve" xmlns="http://www.w3.org/2000/svg" xmlns:xlink="http://www.w3.org/1999/xlink" x="0px" y="0px"><g><radialGradient cx="280.195312" cy="384.254883" gradientTransform="matrix(0.9589 0 0 0.264787 -12.681152 366.55011)" gradientUnits="userSpaceOnUse" id="SVGID_1_" r="181.638565"><stop offset="0" style="stop-color:#000000"/><stop offset="0.769697" style="stop-color:#000000;stop-opacity:0.6"/><stop offset="1" style="stop-color:#000000;stop-opacity:0"/></radialGradient><path d="M431.605469,464.352539C431.605469,490.668945,352.984375,512,256,512   c-96.986816,0-175.605957-21.331055-175.605957-47.647461c0-26.320312,78.619141-47.652344,175.605957-47.652344   C352.984375,416.700195,431.605469,438.032227,431.605469,464.352539z" fill="url(#SVGID_1_)"/><g><linearGradient gradientUnits="userSpaceOnUse" id="SVGID_2_" x1="234.56543" x2="276.23584" y1="140.181641" y2="367.32196"><stop offset="0" style="stop-color:#404040"/><stop offset="1" style="stop-color:#4B4C4D"/></linearGradient><path d="M384.046875,165.470703v158.59375c0,19.987305-16.197266,36.18457-36.176758,36.18457H164.113281    c-19.987305,0-36.17627-16.197266-36.17627-36.18457V165.77832l-5.138672,14.350586l0,0l-0.064941,150.204102    c0,20.780273,16.841309,37.625977,37.62207,37.625977h191.264648c20.789062,0,37.625977-16.845703,37.625977-37.625977V180.128906    L384.046875,165.470703z" fill="url(#SVGID_2_)"/><linearGradient gradientUnits="userSpaceOnUse" id="SVGID_3_" x1="247.647949" x2="265.611359" y1="153.195312" y2="378.496124"><stop offset="0" style="stop-color:#8A8A8A"/><stop offset="0.418182" style="stop-color:#C6C6C6"/><stop offset="0.818182" style="stop-color:#E3E3E3"/><stop offset="1" style="stop-color:#9E9E9E"/></linearGradient><path d="M389.246094,180.128906v150.204102c0,20.780273-16.836914,37.625977-37.625977,37.625977    H160.355469c-20.780762,0-37.62207-16.845703-37.62207-37.625977l0.064941-150.204102h-9.52002l-0.10498,154.115234    c0,21.607422,21.66748,43.279297,43.278809,43.279297H355.53125c21.615234,0,43.279297-21.671875,43.279297-43.279297V180.128906    H389.246094z" fill="url(#SVGID_3_)"/><linearGradient gradientUnits="userSpaceOnUse" id="SVGID_4_" x1="247.647949" x2="265.611359" y1="153.195312" y2="378.496124"><stop offset="0" style="stop-color:#1A1A1A"/><stop offset="0.327273" style="stop-color:#4D4D4D"/><stop offset="0.648485" style="stop-color:#4D4D4D"/><stop offset="1" style="stop-color:#1A1A1A"/></linearGradient><path d="M389.246094,180.128906v1.935547h8.155273v151.030273    c0,21.177734-21.485352,42.493164-42.881836,42.493164H157.464355c-21.39209,0-42.881836-21.31543-42.881836-42.493164    l0.101074-151.030273h8.114746v-1.935547h-9.52002l-0.10498,154.115234c0,21.607422,21.66748,43.279297,43.278809,43.279297    H355.53125c21.615234,0,43.279297-21.671875,43.279297-43.279297V180.128906H389.246094z" fill="url(#SVGID_4_)" opacity="0.3"/><linearGradient gradientUnits="userSpaceOnUse" id="SVGID_5_" x1="196.278809" x2="314.966614" y1="364.103516" y2="364.103516"><stop offset="0.145455" style="stop-color:#808080;stop-opacity:0"/><stop offset="0.345455" style="stop-color:#5F6366"/><stop offset="0.690909" style="stop-color:#5F6366"/><stop offset="0.842424" style="stop-color:#808080;stop-opacity:0"/></linearGradient><rect fill="url(#SVGID_5_)" height="7.709961" width="120.04541" x="194.888184" y="360.249023"/><linearGradient gradientUnits="userSpaceOnUse" id="SVGID_6_" x1="365.914062" x2="369.040039" y1="203.683594" y2="203.683594"><stop offset="0" style="stop-color:#717273"/><stop offset="1" style="stop-color:#262626"/></linearGradient><path d="M369.040039,203.679688c0,10.989746-0.696289,19.898438-1.5625,19.898438    c-0.867188,0-1.563477-8.908691-1.563477-19.898438c0-10.981445,0.696289-19.890137,1.563477-19.890137    C368.34375,183.789551,369.040039,192.698242,369.040039,203.679688z" fill="url(#SVGID_6_)"/><linearGradient gradientUnits="userSpaceOnUse" id="SVGID_7_" x1="377.84375" x2="377.84375" y1="184.427734" y2="221.090088"><stop offset="0" style="stop-color:#57575C"/><stop offset="0.186364" style="stop-color:#E7E7E8"/><stop offset="0.4" style="stop-color:#FFFFFF"/><stop offset="0.587879" style="stop-color:#2E2F33"/><stop offset="0.6" style="stop-color:#2E2F33"/><stop offset="0.690909" style="stop-color:#999999"/><stop offset="0.933333" style="stop-color:#999999"/><stop offset="1" style="stop-color:#5D5F66"/></linearGradient><path d="M386.646484,183.789551h-19.168945c0.866211,0,1.5625,8.908691,1.5625,19.890137    c0,10.989746-0.696289,19.898438-1.5625,19.898438h19.168945c0.866211,0,1.5625-8.908691,1.5625-19.898438    C388.208984,192.698242,387.512695,183.789551,386.646484,183.789551z" fill="url(#SVGID_7_)"/><linearGradient gradientUnits="userSpaceOnUse" id="SVGID_8_" x1="251.723633" x2="259.892456" y1="424.845703" y2="490.386017"><stop offset="0" style="stop-color:#262626"/><stop offset="0.333333" style="stop-color:#262626"/><stop offset="1" style="stop-color:#404040"/></linearGradient><path d="M255.991699,424.523438c-81.671875,0-147.875977,15.463867-147.875977,34.556641    c0,19.072266,66.204102,34.548828,147.875977,34.548828c81.674316,0,147.872559-15.476562,147.872559-34.548828    C403.864258,439.987305,337.666016,424.523438,255.991699,424.523438z" fill="url(#SVGID_8_)"/><linearGradient gradientUnits="userSpaceOnUse" id="SVGID_9_" x1="255.07373" x2="256.908142" y1="443.15625" y2="463.385345"><stop offset="0" style="stop-color:#4D4D4D"/><stop offset="0.393939" style="stop-color:#737373"/><stop offset="0.50303" style="stop-color:#8C8C8C"/><stop offset="1" style="stop-color:#B3B3B3"/></linearGradient><path d="M255.991699,443.867188c-22.270996,0-40.330566,4.21875-40.330566,9.417969    c0,5.208008,18.05957,9.426758,40.330566,9.426758s40.331543-4.21875,40.331543-9.426758    C296.323242,448.085938,278.262695,443.867188,255.991699,443.867188z" fill="url(#SVGID_9_)"/><linearGradient gradientUnits="userSpaceOnUse" id="SVGID_10_" x1="255.07373" x2="256.908142" y1="443.15625" y2="463.385345"><stop offset="0" style="stop-color:#4D4D4D"/><stop offset="0.393939" style="stop-color:#737373"/><stop offset="0.50303" style="stop-color:#8C8C8C"/><stop offset="1" style="stop-color:#B3B3B3"/></linearGradient><path d="M255.991699,443.867188c-22.270996,0-40.330566,4.21875-40.330566,9.417969    c0,5.208008,18.05957,9.426758,40.330566,9.426758s40.331543-4.21875,40.331543-9.426758    C296.323242,448.085938,278.262695,443.867188,255.991699,443.867188z" fill="url(#SVGID_10_)"/><linearGradient gradientUnits="userSpaceOnUse" id="SVGID_11_" x1="107.37793" x2="401.071899" y1="485.304688" y2="485.304688"><stop offset="0" style="stop-color:#1A1A1A"/><stop offset="0.327273" style="stop-color:#404040"/><stop offset="0.648485" style="stop-color:#404040"/><stop offset="1" style="stop-color:#1A1A1A"/></linearGradient><path d="M255.991699,493.600586c-81.671875,0-147.875977-15.472656-147.875977-34.548828v17.950195    c0,19.092773,66.204102,34.556641,147.875977,34.556641c81.674316,0,147.872559-15.463867,147.872559-34.556641v-17.950195    C403.864258,478.12793,337.666016,493.600586,255.991699,493.600586z" fill="url(#SVGID_11_)"/><linearGradient gradientUnits="userSpaceOnUse" id="SVGID_12_" x1="107.37793" x2="401.071899" y1="477.888672" y2="477.888672"><stop offset="0" style="stop-color:#FFFFFF;stop-opacity:0"/><stop offset="0.339394" style="stop-color:#FFFFFF"/><stop offset="0.684848" style="stop-color:#FFFFFF"/><stop offset="1" style="stop-color:#FFFFFF;stop-opacity:0"/></linearGradient><path d="M255.991699,493.600586c-81.671875,0-147.875977-15.472656-147.875977-34.548828    v2.210938v0.918945c0,19.072266,66.204102,34.544922,147.875977,34.544922c81.674316,0,147.872559-15.472656,147.872559-34.544922    v-0.918945v-2.210938C403.864258,478.12793,337.666016,493.600586,255.991699,493.600586z" fill="url(#SVGID_12_)" opacity="0.5"/><linearGradient gradientUnits="userSpaceOnUse" id="SVGID_13_" x1="107.37793" x2="401.071899" y1="480.103516" y2="480.103516"><stop offset="0" style="stop-color:#1A1A1A"/><stop offset="0.327273" style="stop-color:#4D4D4D"/><stop offset="0.648485" style="stop-color:#4D4D4D"/><stop offset="1" style="stop-color:#1A1A1A"/></linearGradient><path d="M255.991699,495.811523c-81.671875,0-147.875977-15.476562-147.875977-34.548828    v2.210938v0.915039c0,19.083984,66.204102,34.556641,147.875977,34.556641c81.674316,0,147.872559-15.472656,147.872559-34.556641    v-0.915039v-2.210938C403.864258,480.334961,337.666016,495.811523,255.991699,495.811523z" fill="url(#SVGID_13_)" opacity="0.5"/><linearGradient gradientUnits="userSpaceOnUse" id="SVGID_14_" x1="215.661133" x2="296.323242" y1="460.011719" y2="460.011719"><stop offset="0" style="stop-color:#1A1A1A"/><stop offset="0.327273" style="stop-color:#4D4D4D"/><stop offset="0.648485" style="stop-color:#4D4D4D"/><stop offset="1" style="stop-color:#1A1A1A"/></linearGradient><path d="M255.991699,462.711914c-22.270996,0-40.330566-4.21875-40.330566-9.426758v4.025391    c0,5.207031,18.05957,9.426758,40.330566,9.426758s40.331543-4.219727,40.331543-9.426758v-4.025391    C296.323242,458.493164,278.262695,462.711914,255.991699,462.711914z" fill="url(#SVGID_14_)"/><linearGradient gradientUnits="userSpaceOnUse" id="SVGID_15_" x1="215.661133" x2="296.323242" y1="458.6875" y2="458.6875"><stop offset="0" style="stop-color:#FFFFFF;stop-opacity:0"/><stop offset="0.339394" style="stop-color:#FFFFFF"/><stop offset="0.684848" style="stop-color:#FFFFFF"/><stop offset="1" style="stop-color:#FFFFFF;stop-opacity:0"/></linearGradient><path d="M255.991699,462.711914c-22.270996,0-40.330566-4.21875-40.330566-9.426758    v1.376953c0,5.207031,18.05957,9.426758,40.330566,9.426758s40.331543-4.219727,40.331543-9.426758v-1.376953    C296.323242,458.493164,278.262695,462.711914,255.991699,462.711914z" fill="url(#SVGID_15_)" opacity="0.8"/><linearGradient gradientUnits="userSpaceOnUse" id="SVGID_16_" x1="239.1875" x2="272.788086" y1="478.417969" y2="478.417969"><stop offset="0" style="stop-color:#57575C"/><stop offset="0.186364" style="stop-color:#E7E7E8"/><stop offset="0.4" style="stop-color:#FFFFFF"/><stop offset="0.593939" style="stop-color:#2E2F33"/><stop offset="0.618182" style="stop-color:#2E2F33"/><stop offset="0.745455" style="stop-color:#808080"/><stop offset="0.895455" style="stop-color:#8D8D8D"/><stop offset="1" style="stop-color:#232426"/></linearGradient><path d="M255.991699,464.162109c-6.008789,0-11.669922-0.360352-16.804199-0.956055    v30.130859c5.515137,0.178711,11.103027,0.291992,16.804199,0.291992c5.70166,0,11.289551-0.113281,16.796387-0.291992v-30.130859    C267.662109,463.801758,262.000977,464.162109,255.991699,464.162109z" fill="url(#SVGID_16_)" opacity="0.4"/><linearGradient gradientUnits="userSpaceOnUse" id="SVGID_17_" x1="215.661133" x2="296.323242" y1="459.889648" y2="459.889648"><stop offset="0" style="stop-color:#1A1A1A"/><stop offset="0.327273" style="stop-color:#4D4D4D"/><stop offset="0.648485" style="stop-color:#4D4D4D"/><stop offset="1" style="stop-color:#1A1A1A"/></linearGradient><path d="M255.991699,463.911133c-22.270996,0-40.330566-4.219727-40.330566-9.418945    v1.376953c0,5.199219,18.05957,9.417969,40.330566,9.417969s40.331543-4.21875,40.331543-9.417969v-1.376953    C296.323242,459.691406,278.262695,463.911133,255.991699,463.911133z" fill="url(#SVGID_17_)" opacity="0.5"/><linearGradient gradientUnits="userSpaceOnUse" id="SVGID_18_" x1="235.826172" x2="276.157227" y1="381.050781" y2="381.050781"><stop offset="0" style="stop-color:#57575C"/><stop offset="0.186364" style="stop-color:#E7E7E8"/><stop offset="0.4" style="stop-color:#FFFFFF"/><stop offset="0.593939" style="stop-color:#2E2F33"/><stop offset="0.618182" style="stop-color:#2E2F33"/><stop offset="0.745455" style="stop-color:#808080"/><stop offset="0.895455" style="stop-color:#8D8D8D"/><stop offset="1" style="stop-color:#232426"/></linearGradient><path d="M255.991699,356.166992c-11.135254,0-20.165527-2.113281-20.165527-4.712891v54.487305    c0,2.599609,9.030273,4.705078,20.165527,4.705078s20.165527-2.105469,20.165527-4.705078v-54.487305    C276.157227,354.053711,267.126953,356.166992,255.991699,356.166992z" fill="url(#SVGID_18_)"/><linearGradient gradientUnits="userSpaceOnUse" id="SVGID_19_" x1="235.826172" x2="276.157227" y1="354.673828" y2="354.673828"><stop offset="0" style="stop-color:#57575C"/><stop offset="0.186364" style="stop-color:#E7E7E8"/><stop offset="0.4" style="stop-color:#FFFFFF"/><stop offset="0.593939" style="stop-color:#2E2F33"/><stop offset="0.618182" style="stop-color:#2E2F33"/><stop offset="0.745455" style="stop-color:#666666"/><stop offset="0.895455" style="stop-color:#737373"/><stop offset="1" style="stop-color:#232426"/></linearGradient><path d="M255.991699,356.166992c-11.135254,0-20.165527-2.113281-20.165527-4.712891    v1.724609c0,2.599609,9.030273,4.713867,20.165527,4.713867s20.165527-2.114258,20.165527-4.713867v-1.724609    C276.157227,354.053711,267.126953,356.166992,255.991699,356.166992z" fill="url(#SVGID_19_)" opacity="0.5"/><linearGradient gradientUnits="userSpaceOnUse" id="SVGID_20_" x1="235.826172" x2="276.157227" y1="406.382812" y2="406.382812"><stop offset="0" style="stop-color:#57575C"/><stop offset="0.186364" style="stop-color:#E7E7E8"/><stop offset="0.4" style="stop-color:#FFFFFF"/><stop offset="0.593939" style="stop-color:#2E2F33"/><stop offset="0.618182" style="stop-color:#2E2F33"/><stop offset="0.745455" style="stop-color:#666666"/><stop offset="0.895455" style="stop-color:#737373"/><stop offset="1" style="stop-color:#232426"/></linearGradient><path d="M255.991699,407.876953c-11.135254,0-20.165527-2.114258-20.165527-4.713867    v1.725586c0,2.599609,9.030273,4.712891,20.165527,4.712891s20.165527-2.113281,20.165527-4.712891v-1.725586    C276.157227,405.762695,267.126953,407.876953,255.991699,407.876953z" fill="url(#SVGID_20_)" opacity="0.2"/><linearGradient gradientUnits="userSpaceOnUse" id="SVGID_21_" x1="235.826172" x2="276.157227" y1="356.085938" y2="356.085938"><stop offset="0" style="stop-color:#57575C"/><stop offset="0.186364" style="stop-color:#E7E7E8"/><stop offset="0.4" style="stop-color:#FFFFFF"/><stop offset="0.593939" style="stop-color:#2E2F33"/><stop offset="0.618182" style="stop-color:#2E2F33"/><stop offset="0.745455" style="stop-color:#666666"/><stop offset="0.895455" style="stop-color:#737373"/><stop offset="1" style="stop-color:#232426"/></linearGradient><path d="M255.991699,357.576172c-11.135254,0-20.165527-2.105469-20.165527-4.705078    v1.724609c0,2.599609,9.030273,4.706055,20.165527,4.706055s20.165527-2.106445,20.165527-4.706055v-1.724609    C276.157227,355.470703,267.126953,357.576172,255.991699,357.576172z" fill="url(#SVGID_21_)" opacity="0.2"/><linearGradient gradientUnits="userSpaceOnUse" id="SVGID_22_" x1="239.1875" x2="272.788086" y1="432.917969" y2="432.917969"><stop offset="0" style="stop-color:#57575C"/><stop offset="0.186364" style="stop-color:#E7E7E8"/><stop offset="0.4" style="stop-color:#FFFFFF"/><stop offset="0.593939" style="stop-color:#2E2F33"/><stop offset="0.618182" style="stop-color:#2E2F33"/><stop offset="0.745455" style="stop-color:#808080"/><stop offset="0.895455" style="stop-color:#8D8D8D"/><stop offset="1" style="stop-color:#232426"/></linearGradient><path d="M255.991699,409.8125c-7.021484,0-13.184082-0.842773-16.804199-2.105469v46.501953    c0,2.162109,7.53125,3.919922,16.804199,3.919922s16.796387-1.757812,16.796387-3.919922v-46.501953    C269.176758,408.969727,263.004883,409.8125,255.991699,409.8125z" fill="url(#SVGID_22_)"/><radialGradient cx="257.214844" cy="405.201172" gradientTransform="matrix(1 0 0 0.341994 0 266.624817)" gradientUnits="userSpaceOnUse" id="SVGID_23_" r="38.007126"><stop offset="0.535987" style="stop-color:#919599"/><stop offset="1" style="stop-color:#808080;stop-opacity:0"/></radialGradient><path d="M255.991699,409.8125c-7.021484,0-13.184082-0.842773-16.804199-2.105469v14.714844    c3.620117,1.263672,9.782715,2.105469,16.804199,2.105469c7.013184,0,13.185059-0.841797,16.796387-2.105469v-14.714844    C269.176758,408.969727,263.004883,409.8125,255.991699,409.8125z" fill="url(#SVGID_23_)" opacity="0.7"/><linearGradient gradientUnits="userSpaceOnUse" id="SVGID_24_" x1="104.477051" x2="104.477051" y1="183.510254" y2="221.204224"><stop offset="0" style="stop-color:#57575C"/><stop offset="0.186364" style="stop-color:#E7E7E8"/><stop offset="0.4" style="stop-color:#FFFFFF"/><stop offset="0.587879" style="stop-color:#2E2F33"/><stop offset="0.6" style="stop-color:#2E2F33"/><stop offset="0.690909" style="stop-color:#999999"/><stop offset="0.933333" style="stop-color:#999999"/><stop offset="1" style="stop-color:#5D5F66"/></linearGradient><path d="M113.27832,183.919434H97.239258c-0.870605,0-1.562988,8.908203-1.562988,19.890137    c0,10.989746,0.692383,19.897949,1.562988,19.897949h16.039062V183.919434z" fill="url(#SVGID_24_)"/><linearGradient gradientUnits="userSpaceOnUse" id="SVGID_25_" x1="407.638672" x2="407.638672" y1="183.380371" y2="221.074799"><stop offset="0" style="stop-color:#57575C"/><stop offset="0.186364" style="stop-color:#E7E7E8"/><stop offset="0.4" style="stop-color:#FFFFFF"/><stop offset="0.587879" style="stop-color:#2E2F33"/><stop offset="0.6" style="stop-color:#2E2F33"/><stop offset="0.690909" style="stop-color:#999999"/><stop offset="0.933333" style="stop-color:#999999"/><stop offset="1" style="stop-color:#5D5F66"/></linearGradient><path d="M414.902344,183.789551h-16.091797v39.788574h16.091797    c0.866211,0,1.563477-8.908691,1.563477-19.898438C416.46582,192.698242,415.768555,183.789551,414.902344,183.789551z" fill="url(#SVGID_25_)"/><linearGradient gradientUnits="userSpaceOnUse" id="SVGID_26_" x1="239.1875" x2="272.788086" y1="455.40332" y2="455.40332"><stop offset="0" style="stop-color:#57575C"/><stop offset="0.186364" style="stop-color:#E7E7E8"/><stop offset="0.4" style="stop-color:#FFFFFF"/><stop offset="0.593939" style="stop-color:#2E2F33"/><stop offset="0.618182" style="stop-color:#2E2F33"/><stop offset="0.745455" style="stop-color:#666666"/><stop offset="0.895455" style="stop-color:#737373"/><stop offset="1" style="stop-color:#232426"/></linearGradient><path d="M255.991699,456.605469c-9.272949,0-16.804199-1.764648-16.804199-3.927734v1.53125    c0,2.162109,7.53125,3.919922,16.804199,3.919922s16.796387-1.757812,16.796387-3.919922v-1.53125    C272.788086,454.84082,265.264648,456.605469,255.991699,456.605469z" fill="url(#SVGID_26_)" opacity="0.3"/><linearGradient gradientUnits="userSpaceOnUse" id="SVGID_27_" x1="239.1875" x2="272.788086" y1="458.460938" y2="458.460938"><stop offset="0" style="stop-color:#57575C"/><stop offset="0.186364" style="stop-color:#E7E7E8"/><stop offset="0.4" style="stop-color:#FFFFFF"/><stop offset="0.593939" style="stop-color:#2E2F33"/><stop offset="0.618182" style="stop-color:#2E2F33"/><stop offset="0.745455" style="stop-color:#808080"/><stop offset="0.895455" style="stop-color:#8D8D8D"/><stop offset="1" style="stop-color:#232426"/></linearGradient><path d="M255.991699,458.128906c-9.272949,0-16.804199-1.757812-16.804199-3.919922    v7.620117c5.134277,0.55957,10.79541,0.882812,16.804199,0.882812c6.009277,0,11.67041-0.323242,16.796387-0.882812v-7.620117    C272.788086,456.371094,265.264648,458.128906,255.991699,458.128906z" fill="url(#SVGID_27_)" opacity="0.4"/><linearGradient gradientUnits="userSpaceOnUse" id="SVGID_28_" x1="254.354492" x2="257.30304" y1="345.535156" y2="356.195251"><stop offset="0" style="stop-color:#999999"/><stop offset="0.357576" style="stop-color:#B2B2B2"/><stop offset="0.478788" style="stop-color:#C0C0C0"/><stop offset="1" style="stop-color:#E6E6E6"/></linearGradient><path d="M276.157227,351.454102c0,2.558594-9.030273,4.640625-20.165527,4.640625    s-20.165527-2.082031-20.165527-4.640625c0-2.55957,9.030273-4.640625,20.165527-4.640625    S276.157227,348.894531,276.157227,351.454102z" fill="url(#SVGID_28_)"/><linearGradient gradientUnits="userSpaceOnUse" id="SVGID_29_" x1="416.314453" x2="413.343109" y1="203.684082" y2="203.684082"><stop offset="0.321212" style="stop-color:#919599"/><stop offset="1" style="stop-color:#FFFFFF;stop-opacity:0"/></linearGradient><path d="M414.902344,183.789551h-0.679688v39.788574h0.679688    c0.866211,0,1.563477-8.908691,1.563477-19.898438C416.46582,192.698242,415.768555,183.789551,414.902344,183.789551z" fill="url(#SVGID_29_)"/><linearGradient gradientTransform="matrix(-1 0 0 1 1151.037109 0)" gradientUnits="userSpaceOnUse" id="SVGID_30_" x1="1004.813477" x2="1007.931641" y1="203.813477" y2="203.813477"><stop offset="0" style="stop-color:#717273"/><stop offset="1" style="stop-color:#262626"/></linearGradient><path d="M143.105469,203.80957c0,10.989746,0.688477,19.897949,1.555176,19.897949    c0.874512,0,1.562988-8.908203,1.562988-19.897949c0-10.981934-0.688477-19.890137-1.562988-19.890137    C143.793945,183.919434,143.105469,192.827637,143.105469,203.80957z" fill="url(#SVGID_30_)"/><linearGradient gradientTransform="matrix(-1 0 0 1 1151.037109 0)" gradientUnits="userSpaceOnUse" id="SVGID_31_" x1="1016.743164" x2="1016.743164" y1="184.557617" y2="221.219513"><stop offset="0" style="stop-color:#57575C"/><stop offset="0.186364" style="stop-color:#E7E7E8"/><stop offset="0.4" style="stop-color:#FFFFFF"/><stop offset="0.587879" style="stop-color:#2E2F33"/><stop offset="0.6" style="stop-color:#2E2F33"/><stop offset="0.690909" style="stop-color:#999999"/><stop offset="0.933333" style="stop-color:#999999"/><stop offset="1" style="stop-color:#5D5F66"/></linearGradient><path d="M125.491211,183.919434h19.169434c-0.866699,0-1.555176,8.908203-1.555176,19.890137    c0,10.989746,0.688477,19.897949,1.555176,19.897949h-19.169434c-0.866699,0-1.562988-8.908203-1.562988-19.897949    C123.928223,192.827637,124.624512,183.919434,125.491211,183.919434z" fill="url(#SVGID_31_)"/><linearGradient gradientTransform="matrix(-1 0 0 1 1151.037109 0)" gradientUnits="userSpaceOnUse" id="SVGID_32_" x1="1055.210938" x2="1052.24353" y1="203.8125" y2="203.8125"><stop offset="0.321212" style="stop-color:#919599"/><stop offset="1" style="stop-color:#FFFFFF;stop-opacity:0"/></linearGradient><path d="M97.239258,183.919434h0.67627v39.788086h-0.67627    c-0.870605,0-1.562988-8.908203-1.562988-19.897949C95.67627,192.827637,96.368652,183.919434,97.239258,183.919434z" fill="url(#SVGID_32_)"/><linearGradient gradientUnits="userSpaceOnUse" id="SVGID_33_" x1="391.375" x2="357.482727" y1="332.929688" y2="365.426453"><stop offset="0" style="stop-color:#FFFFFF;stop-opacity:0"/><stop offset="0.339394" style="stop-color:#FFFFFF"/><stop offset="0.684848" style="stop-color:#FFFFFF"/><stop offset="1" style="stop-color:#FFFFFF;stop-opacity:0"/></linearGradient><path d="M389.246094,330.333008l-5.717773-0.405273h-0.072266    c-2.616211,15.986328-15.655273,28.296875-31.949219,29.948242l-0.137695,0.194336l4.000977,7.515625    C374.369141,365.674805,389.246094,349.833984,389.246094,330.333008z" fill="url(#SVGID_33_)" opacity="0.3"/><linearGradient gradientTransform="matrix(-1 0 0 1 1150.050781 0)" gradientUnits="userSpaceOnUse" id="SVGID_34_" x1="1029.527344" x2="994.383362" y1="334.001953" y2="365.142853"><stop offset="0" style="stop-color:#FFFFFF;stop-opacity:0"/><stop offset="0.339394" style="stop-color:#FFFFFF"/><stop offset="0.684848" style="stop-color:#FFFFFF"/><stop offset="1" style="stop-color:#FFFFFF;stop-opacity:0"/></linearGradient><path d="M122.733398,330.333008l5.717773-0.405273h0.072754    c2.616211,15.986328,15.650879,28.296875,31.945312,29.948242l0.145508,0.194336l-4.000488,7.515625    C137.61084,365.674805,122.733398,349.833984,122.733398,330.333008z" fill="url(#SVGID_34_)" opacity="0.25"/><linearGradient gradientUnits="userSpaceOnUse" id="SVGID_35_" x1="118.263672" x2="123.43631" y1="165.900391" y2="180.791321"><stop offset="0" style="stop-color:#999999"/><stop offset="0.357576" style="stop-color:#B2B2B2"/><stop offset="0.478788" style="stop-color:#C0C0C0"/><stop offset="1" style="stop-color:#E6E6E6"/></linearGradient><polygon fill="url(#SVGID_35_)" points="122.79834,180.128906 113.27832,180.128906 118.651855,165.470703 128.04248,165.470703       "/><linearGradient gradientUnits="userSpaceOnUse" id="SVGID_36_" x1="387.945312" x2="394.809998" y1="164.928711" y2="180.94632"><stop offset="0" style="stop-color:#999999"/><stop offset="0.357576" style="stop-color:#B2B2B2"/><stop offset="0.478788" style="stop-color:#C0C0C0"/><stop offset="1" style="stop-color:#E6E6E6"/></linearGradient><polygon fill="url(#SVGID_36_)" points="389.246094,180.128906 398.810547,180.128906 393.392578,165.470703     384.046875,165.470703   "/><linearGradient gradientUnits="userSpaceOnUse" id="SVGID_37_" x1="134.294434" x2="144.660645" y1="203.813477" y2="203.813477"><stop offset="0" style="stop-color:#808080;stop-opacity:0"/><stop offset="0.648485" style="stop-color:#616366"/></linearGradient><path d="M134.294434,183.919434v39.788086h10.366211    c-0.866699,0-1.555176-8.908203-1.555176-19.897949c0-10.981934,0.688477-19.890137,1.555176-19.890137H134.294434z" fill="url(#SVGID_37_)" opacity="0.6"/><linearGradient gradientTransform="matrix(-1 0 0 1 571.660156 0)" gradientUnits="userSpaceOnUse" id="SVGID_38_" x1="193.816406" x2="204.182617" y1="203.813477" y2="203.813477"><stop offset="0" style="stop-color:#808080;stop-opacity:0"/><stop offset="0.648485" style="stop-color:#616266"/></linearGradient><path d="M377.84375,183.919434v39.788086h-10.366211    c0.866211,0,1.554688-8.908203,1.554688-19.897949c0-10.981934-0.688477-19.890137-1.554688-19.890137H377.84375z" fill="url(#SVGID_38_)" opacity="0.6"/><linearGradient gradientUnits="userSpaceOnUse" id="SVGID_39_" x1="398.827148" x2="404.078735" y1="203.683594" y2="203.683594"><stop offset="0.351515" style="stop-color:#797B80"/><stop offset="1" style="stop-color:#808080;stop-opacity:0"/></linearGradient><rect fill="url(#SVGID_39_)" height="39.788574" opacity="0.7" width="5.960938" x="398.810547" y="183.789551"/><linearGradient gradientTransform="matrix(-1 0 0 1 505.87793 0)" gradientUnits="userSpaceOnUse" id="SVGID_40_" x1="392.616211" x2="397.967621" y1="203.683594" y2="203.683594"><stop offset="0.351515" style="stop-color:#797B80"/><stop offset="1" style="stop-color:#808080;stop-opacity:0"/></linearGradient><rect fill="url(#SVGID_40_)" height="39.788574" opacity="0.7" width="6.07373" x="107.20459" y="183.789551"/></g><g><linearGradient gradientTransform="matrix(1 0 0 -1 0 994.171875)" gradientUnits="userSpaceOnUse" id="SVGID_41_" x1="255.987793" x2="255.987778" y1="988.571289" y2="661.830566"><stop offset="0" style="stop-color:#262626"/><stop offset="0.012121" style="stop-color:#4D4D4D"/><stop offset="0.060606" style="stop-color:#262626"/><stop offset="0.933333" style="stop-color:#262626"/><stop offset="0.975758" style="stop-color:#1A1A1A"/><stop offset="1" style="stop-color:#333333"/></linearGradient><path d="M143.60791,53.888184c0-26.919434,22.027832-48.737305,49.207031-48.737305h126.346191    c27.178711,0,49.207031,21.817871,49.207031,48.737305v231.44873c0,26.919922-22.02832,48.737305-49.207031,48.737305H192.814941    c-27.179199,0-49.207031-21.817383-49.207031-48.737305V53.888184z" fill="url(#SVGID_41_)"/><linearGradient gradientUnits="userSpaceOnUse" id="SVGID_42_" x1="367.881836" x2="372.553955" y1="173.591797" y2="173.591797"><stop offset="0.30303" style="stop-color:#808080"/><stop offset="0.442424" style="stop-color:#4D4D4D"/><stop offset="0.654545" style="stop-color:#404040"/><stop offset="0.739394" style="stop-color:#4D4D4D"/></linearGradient><rect fill="url(#SVGID_42_)" height="161.927246" width="4.640625" x="368.173828" y="92.62793"/><linearGradient gradientTransform="matrix(-1 0 0 1 -600.730469 0)" gradientUnits="userSpaceOnUse" id="SVGID_43_" x1="-744.848145" x2="-740.176514" y1="172.675781" y2="172.675781"><stop offset="0.30303" style="stop-color:#808080"/><stop offset="0.442424" style="stop-color:#4D4D4D"/><stop offset="0.654545" style="stop-color:#404040"/><stop offset="0.739394" style="stop-color:#4D4D4D"/></linearGradient><rect fill="url(#SVGID_43_)" height="161.925293" width="4.640137" x="139.186035" y="91.712891"/><linearGradient gradientUnits="userSpaceOnUse" id="SVGID_44_" x1="143.194824" x2="367.955078" y1="169.612305" y2="169.612305"><stop offset="0.036364" style="stop-color:#999999"/><stop offset="0.072727" style="stop-color:#CCCCCC;stop-opacity:0"/><stop offset="0.921212" style="stop-color:#CCCCCC;stop-opacity:0"/><stop offset="0.975758" style="stop-color:#999999"/></linearGradient><path d="M143.60791,53.888184c0-26.919434,22.027832-48.737305,49.207031-48.737305h126.346191    c27.178711,0,49.207031,21.817871,49.207031,48.737305v231.44873c0,26.919922-22.02832,48.737305-49.207031,48.737305H192.814941    c-27.179199,0-49.207031-21.817383-49.207031-48.737305V53.888184z" fill="url(#SVGID_44_)"/><linearGradient gradientUnits="userSpaceOnUse" id="SVGID_45_" x1="138.472656" x2="372.746826" y1="169.621094" y2="169.621094"><stop offset="0" style="stop-color:#676767"/><stop offset="0.030303" style="stop-color:#999999"/><stop offset="0.054545" style="stop-color:#808080"/><stop offset="0.09697" style="stop-color:#676767"/><stop offset="0.145455" style="stop-color:#808080"/><stop offset="0.2" style="stop-color:#F2F2F2"/><stop offset="0.393939" style="stop-color:#FFFFFF"/><stop offset="0.593939" style="stop-color:#FFFFFF"/><stop offset="0.763636" style="stop-color:#F2F2F2"/><stop offset="0.806061" style="stop-color:#9A9A9A"/><stop offset="0.884848" style="stop-color:#676767"/><stop offset="0.927273" style="stop-color:#808080"/><stop offset="0.951515" style="stop-color:#999999"/><stop offset="0.987879" style="stop-color:#4D4D4D"/></linearGradient><path d="M372.814453,164.59375c0,0-7.540039,2.187012-10.107422,2.187012    c-13.916992,0-43.108398,0.135254-64.027344,0H275.09668c-3.433594,0-6.219727-3.342773-6.219727-7.462891    c0-0.135742,0.056641-0.243164,0.064453-0.378906c0-0.030273-0.015625-0.04834-0.015625-0.078613    c0-0.844238,0.15332-1.61377,0.420898-2.3125c0.915039-2.741211,3.133789-4.685059,5.75-4.685059h45.740234    c0.664062,0,1.280273-0.232422,1.887695,0c17.120117,0,33.900391,0,39.982422,0c1.984375,0,7.944336-0.437012,10.107422-0.844238    c0-1.925293,0.121094-1.741211,0-1.925293v-13.293945c0,0-7.547852,1.67041-10.107422,1.67041c-8.706055,0-25.06543,0-41.189453,0    c-0.234375,0.030273-0.4375,0-0.680664,0H275.09668c-3.433594,0-6.219727-3.342773-6.219727-7.462891    c0-0.135742,0.056641-0.242676,0.064453-0.378418c0-0.020508-0.015625-0.038574-0.015625-0.068848    c0-0.844238,0.15332-1.603516,0.412109-2.302246c0.923828-2.751465,3.142578-4.227539,5.758789-4.227539h45.740234    c0.518555,0,0.972656-0.137207,1.458008,0c16.051758-0.02002,32.160156-0.117188,40.412109,0    c0.566406,0.008301,1.392578-0.040527,2.316406-0.117188c0.056641,0,0.09668,0,0.145508-0.010254    c0.882812-0.066895,1.854492-0.184082,2.826172-0.28125c0.056641-0.010254,0.12207-0.020508,0.178711-0.020508V122.5625    c2.745117-0.378906,4.640625-1.214844,4.640625-2.176758c0-0.02832,0.007812-0.04834,0-0.07666c0.007812,0,0-0.010254,0-0.010254    v-13.384766c0,0-7.564453,1.040527-10.107422,1.001953c-19.955078-0.291504-85.861328,0-85.861328,0    c-1.19043,0-2.299805-0.291504-3.303711-0.749023c-2.665039-0.844238-4.665039-3.624023-4.665039-7.084473    c0-4.109863,2.786133-7.45459,6.219727-7.45459h1.40918c0.113281-0.008301,0.21875-0.077148,0.339844-0.086914    c0.226562,0.02002-0.226562,0.086914,0,0.086914c0,0,21.696289,0,43.991211,0c16.448242,0,33.220703,0,41.870117,0    c1.166016,0,3.384766,0,5.466797,0h4.640625V50.268066c0-15.913574-7.249023-30.078125-19.015625-39.277832V50.98877    c0,3.903809-3.263672,7.070312-6.94043,7.070312c-3.685547,0-6.665039-3.166504-6.665039-7.070312V3.466309    c-5.783203-2.194824-12.035156-3.458008-18.602539-3.458008h-4.227539V50.98877c0,3.903809-3.255859,7.070312-6.932617,7.070312    s-6.665039-3.166504-6.665039-7.070312V0.008301h-22.959961V50.98877c0,3.903809-3.125977,7.070312-6.802734,7.070312    c-3.68457,0-6.672852-3.166504-6.672852-7.070312V0.008301H256h-11.330078V50.98877    c0,3.903809-2.988281,7.070312-6.672852,7.070312c-3.676758,0-6.940918-3.166504-6.940918-7.070312V0.008301h-22.821777V50.98877    c0,3.903809-2.988281,7.070312-6.665039,7.070312s-6.932617-3.166504-6.932617-7.070312V0.008301h-4.227051    c-6.567871,0-12.820312,1.263184-18.602539,3.458008V50.98877c0,3.903809-2.980469,7.070312-6.665039,7.070312    c-3.676758,0-6.940918-3.166504-6.940918-7.070312V10.990234c-11.76709,9.199707-19.015137,23.364258-19.015137,39.277832    V92.62793h4.640137c2.081543,0,4.300781,0,5.466797,0c8.649414,0,25.421387,0,41.869629,0c22.29541,0,43.991699,0,43.991699,0    c0.226562,0-0.227051-0.066895,0-0.086914c0.121582,0.009766,0.226562,0.078613,0.339844,0.086914h1.40918    c3.434082,0,6.219727,3.344727,6.219727,7.45459c0,3.460449-2,6.240234-4.664551,7.084473    c-1.004395,0.45752-2.11377,0.749023-3.304199,0.749023c0,0-65.90625-0.291504-85.861328,0    c-2.542969,0.038574-10.106934-1.001953-10.106934-1.001953v13.384766c0,0-0.008301,0.010254,0,0.010254    c-0.008301,0.02832,0,0.04834,0,0.07666c0,0.961914,1.89502,1.797852,4.640137,2.176758v0.038086    c0.057129,0,0.121582,0.010254,0.178223,0.020508c0.972168,0.097168,1.943848,0.214355,2.82666,0.28125    c0.04834,0.010254,0.088867,0.010254,0.145508,0.010254c0.92334,0.07666,1.749512,0.125488,2.316406,0.117188    c8.252441-0.117188,24.360352-0.02002,40.412109,0c0.48584-0.137207,0.939453,0,1.45752,0h45.740723    c2.616211,0,4.834961,1.476074,5.758301,4.227539c0.259277,0.69873,0.413086,1.458008,0.413086,2.302246    c0,0.030273-0.016113,0.04834-0.016113,0.068848c0.007812,0.135742,0.064453,0.242676,0.064453,0.378418    c0,4.120117-2.785645,7.462891-6.219727,7.462891h-45.740723c-0.242676,0-0.445312,0.030273-0.680176,0    c-16.124512,0-32.483398,0-41.189453,0c-2.559082,0-10.106934-1.67041-10.106934-1.67041v13.293945    c-0.121582,0.184082,0,0,0,1.925293c2.162109,0.407227,8.122559,0.844238,10.106934,0.844238c6.082031,0,22.862305,0,39.98291,0    c0.607422-0.232422,1.222656,0,1.886719,0h45.740723c2.616211,0,4.834961,1.943848,5.75,4.685059    c0.267578,0.69873,0.421387,1.468262,0.421387,2.3125c0,0.030273-0.016113,0.04834-0.016113,0.078613    c0.007812,0.135742,0.064453,0.243164,0.064453,0.378906c0,4.120117-2.785645,7.462891-6.219727,7.462891h-23.583008    c-20.918457,0.135254-50.085449,0.198242-64.027344,0c-2.567383-0.036621-10.106934-2.187012-10.106934-2.187012    s-0.210449,13.743652,0,13.958008c0.040527,0.048828-0.032715,0.097168,0,0.145996    c0.032227,0.010254,2.17041,2.158203,4.356934,2.158203c0,0,91.384277,0.008301,91.611328,0    c0.574707,0.02832,1.093262-0.137695,1.644043,0h0.10498c3.434082,0,6.219727,3.342773,6.219727,7.452637    c0,4.120117-2.785645,7.464844-6.219727,7.464844c0,0-67.655273,0.340332-87.610352,0    c-2.591797-0.04834-10.106934-2.391113-10.106934-2.391113v13.897461c1.24707,1.467773,2.486328,2.710938,5.425781,2.721191    l4.746094-0.115723c0.023926,0,87.54541,0.174316,87.54541,0.174316c3.434082,0,6.219727,3.342773,6.219727,7.45459    c0,4.120117-2.785645,7.462891-6.219727,7.462891h-0.412598c-0.453613,0.077148-67.688477,0-87.197754,0    c-2.60791,0-10.106934-2.749512-10.106934-2.749512s0,13.373047,0,13.537109c0,1.925293,0.453613,3.654297,4.851074,3.654297    c0.153809,0,8.713867,0,20.529785,0c10.374512,0.058594,23.259277,0.04834,35.180176,0    c18.812988,0,36.046875-0.058594,36.378906,0h0.777344c3.434082,0,6.219727,3.342773,6.219727,7.45459    c0,4.120117-2.785645,7.462891-6.219727,7.462891h-0.461426c-0.4375,0.068848-67.639648-0.28125-87.148926,0    c-2.640137,0.038574-10.106934-3.255371-10.106934-3.255371v37.891602c0,15.889648,19.015137,39.238281,19.015137,39.238281    v-40.03125c0-3.895508,3.207031-7.0625,6.883789-7.0625c3.685059,0,6.665527,3.166992,6.665527,7.0625v47.571289    c5.790527,2.21875,12.066895,3.482422,18.65918,3.482422h4.227051v-51.053711c0-3.895508,3.190918-7.0625,6.875977-7.0625    c3.676758,0,6.665039,3.166992,6.665039,7.0625v51.053711h22.878418v-51.053711c0-3.895508,3.207031-7.0625,6.883789-7.0625    s6.665527,3.166992,6.665527,7.0625v51.053711H256h11.394531v-51.053711c0-3.895508,2.988281-7.0625,6.665039-7.0625    s6.883789,3.166992,6.883789,7.0625v51.053711h22.878906v-51.053711c0-3.895508,2.988281-7.0625,6.665039-7.0625    c3.68457,0,6.753906,3.166992,6.753906,7.0625v51.053711h4.349609c6.591797,0,12.868164-1.263672,18.65918-3.482422v-47.571289    c0-3.895508,2.979492-7.0625,6.665039-7.0625c3.676758,0,6.883789,3.166992,6.883789,7.0625v40.03125    c0,0,19.015625-23.348633,19.015625-39.238281v-37.891602c0,0-7.466797,3.293945-10.107422,3.255371    c-19.509766-0.28125-86.711914,0.068848-87.148438,0h-0.461914c-3.433594,0-6.219727-3.342773-6.219727-7.462891    c0-4.111816,2.786133-7.45459,6.219727-7.45459h0.777344c0.332031-0.058594,17.56543,0,36.378906,0    c11.920898,0.04834,24.805664,0.058594,35.180664,0c11.81543,0,20.375977,0,20.529297,0    c4.397461,0,4.851562-1.729004,4.851562-3.654297c0-0.164062,0-13.537109,0-13.537109s-7.5,2.749512-10.107422,2.749512    c-19.509766,0-86.744141,0.077148-87.197266,0h-0.413086c-3.433594,0-6.219727-3.342773-6.219727-7.462891    c0-4.111816,2.786133-7.45459,6.219727-7.45459c0,0,87.521484-0.174316,87.545898-0.174316l4.745117,0.115723    c2.94043-0.010254,4.178711-1.253418,5.426758-2.721191v-13.897461c0,0-7.515625,2.342773-10.107422,2.391113    c-19.955078,0.340332-87.610352,0-87.610352,0c-3.433594,0-6.219727-3.344727-6.219727-7.464844    c0-4.109863,2.786133-7.452637,6.219727-7.452637h0.105469c0.549805-0.137695,1.068359,0.02832,1.643555,0    c0.226562,0.008301,91.611328,0,91.611328,0c2.186523,0,4.324219-2.147949,4.357422-2.158203    c0.032227-0.048828-0.041016-0.097168,0-0.145996C373.024414,178.337402,372.814453,164.59375,372.814453,164.59375z" fill="url(#SVGID_45_)"/><linearGradient gradientUnits="userSpaceOnUse" id="SVGID_46_" x1="256" x2="255.999985" y1="-0.719727" y2="336.418274"><stop offset="0" style="stop-color:#666666"/><stop offset="0.018182" style="stop-color:#999999"/><stop offset="0.139394" style="stop-color:#CCCCCC"/><stop offset="0.181818" style="stop-color:#F2F2F2"/><stop offset="0.818182" style="stop-color:#F2F2F2"/><stop offset="0.848485" style="stop-color:#CCCCCC"/><stop offset="0.975758" style="stop-color:#666666"/><stop offset="0.987879" style="stop-color:#4D4D4D"/></linearGradient><path d="M372.814453,164.59375c0,0-7.540039,2.109863-10.107422,2.187012    c-12.869141,0.408691-43.108398,0.135254-64.027344,0H275.09668c-3.433594,0-6.219727-3.342773-6.219727-7.462891    c0-0.135742,0.056641-0.243164,0.064453-0.378906c0-0.030273-0.015625-0.04834-0.015625-0.078613    c0-0.844238,0.15332-1.61377,0.420898-2.3125c0.915039-2.741211,3.133789-4.685059,5.75-4.685059h45.740234    c0.664062,0,1.280273-0.232422,1.887695,0c17.120117,0,33.900391,0,39.982422,0c1.984375,0,7.944336-0.437012,10.107422-0.844238    c0-1.925293,0.121094-1.741211,0-1.925293v-13.293945c0,0-7.547852,1.67041-10.107422,1.67041c-8.706055,0-25.06543,0-41.189453,0    c-0.234375,0.030273-0.4375,0-0.680664,0H275.09668c-3.433594,0-6.219727-3.342773-6.219727-7.462891    c0-0.135742,0.056641-0.242676,0.064453-0.378418c0-0.020508-0.015625-0.038574-0.015625-0.068848    c0-0.844238,0.15332-1.603516,0.412109-2.302246c0.923828-2.751465,3.142578-4.227539,5.758789-4.227539h45.740234    c0.518555,0,0.972656-0.137207,1.458008,0c16.051758-0.02002,32.160156-0.117188,40.412109,0    c0.566406,0.008301,1.392578-0.040527,2.316406-0.117188c0.056641,0,0.09668,0,0.145508-0.010254    c0.882812-0.066895,1.854492-0.184082,2.826172-0.28125c0.056641-0.010254,0.12207-0.020508,0.178711-0.020508V122.5625    c2.745117-0.378906,4.640625-1.214844,4.640625-2.176758c0-0.02832,0.007812-0.04834,0-0.07666c0.007812,0,0-0.010254,0-0.010254    v-13.384766c0,0-7.564453,1.001953-10.107422,1.001953c-22.789062,0-85.861328,0-85.861328,0    c-1.19043,0-2.299805-0.291504-3.303711-0.749023c-2.665039-0.844238-4.665039-3.624023-4.665039-7.084473    c0-4.109863,2.786133-7.45459,6.219727-7.45459h1.40918c0.113281-0.008301,0.21875-0.077148,0.339844-0.086914    c0.226562,0.02002-0.226562,0.086914,0,0.086914c0,0,21.696289,0,43.991211,0c16.448242,0,33.220703,0,41.870117,0    c1.166016,0,3.384766,0,5.466797,0h4.640625V50.268066c0-15.913574-7.249023-30.078125-19.015625-39.277832V50.98877    c0,3.903809-3.263672,7.070312-6.94043,7.070312c-3.685547,0-6.665039-3.166504-6.665039-7.070312V3.466309    c-5.783203-2.194824-12.035156-3.458008-18.602539-3.458008h-4.227539V50.98877c0,3.903809-3.255859,7.070312-6.932617,7.070312    s-6.665039-3.166504-6.665039-7.070312V0.008301h-22.959961V50.98877c0,3.903809-3.125977,7.070312-6.802734,7.070312    c-3.68457,0-6.672852-3.166504-6.672852-7.070312V0.008301H256h-11.330078V50.98877    c0,3.903809-2.988281,7.070312-6.672852,7.070312c-3.676758,0-6.940918-3.166504-6.940918-7.070312V0.008301h-22.821777V50.98877    c0,3.903809-2.988281,7.070312-6.665039,7.070312s-6.932617-3.166504-6.932617-7.070312V0.008301h-4.227051    c-6.567871,0-12.820312,1.263184-18.602539,3.458008V50.98877c0,3.903809-2.980469,7.070312-6.665039,7.070312    c-3.676758,0-6.940918-3.166504-6.940918-7.070312V10.990234c-11.76709,9.199707-19.015137,23.364258-19.015137,39.277832    V92.62793h4.640137c2.081543,0,4.300781,0,5.466797,0c8.649414,0,25.421387,0,41.869629,0c22.29541,0,43.991699,0,43.991699,0    c0.226562,0-0.227051-0.066895,0-0.086914c0.121582,0.009766,0.226562,0.078613,0.339844,0.086914h1.40918    c3.434082,0,6.219727,3.344727,6.219727,7.45459c0,3.460449-2,6.240234-4.664551,7.084473    c-1.004395,0.45752-2.11377,0.749023-3.304199,0.749023c0,0-65.525879,0-85.861328,0    c-2.542969,0-10.106934-1.001953-10.106934-1.001953v13.384766c0,0-0.008301,0.010254,0,0.010254    c-0.008301,0.02832,0,0.04834,0,0.07666c0,0.961914,1.89502,1.797852,4.640137,2.176758v0.038086    c0.057129,0,0.121582,0.010254,0.178223,0.020508c0.972168,0.097168,1.943848,0.214355,2.82666,0.28125    c0.04834,0.010254,0.088867,0.010254,0.145508,0.010254c0.92334,0.07666,1.749512,0.125488,2.316406,0.117188    c8.252441-0.117188,24.360352-0.02002,40.412109,0c0.48584-0.137207,0.939453,0,1.45752,0h45.740723    c2.616211,0,4.834961,1.476074,5.758301,4.227539c0.259277,0.69873,0.413086,1.458008,0.413086,2.302246    c0,0.030273-0.016113,0.04834-0.016113,0.068848c0.007812,0.135742,0.064453,0.242676,0.064453,0.378418    c0,4.120117-2.785645,7.462891-6.219727,7.462891h-45.740723c-0.242676,0-0.445312,0.030273-0.680176,0    c-16.124512,0-32.483398,0-41.189453,0c-2.559082,0-10.106934-1.67041-10.106934-1.67041v13.293945    c-0.121582,0.184082,0,0,0,1.925293c2.162109,0.407227,8.122559,0.844238,10.106934,0.844238c6.082031,0,22.862305,0,39.98291,0    c0.607422-0.232422,1.222656,0,1.886719,0h45.740723c2.616211,0,4.834961,1.943848,5.75,4.685059    c0.267578,0.69873,0.421387,1.468262,0.421387,2.3125c0,0.030273-0.016113,0.04834-0.016113,0.078613    c0.007812,0.135742,0.064453,0.243164,0.064453,0.378906c0,4.120117-2.785645,7.462891-6.219727,7.462891h-23.583008    c-20.918457,0.135254-51.158691,0.408691-64.027344,0c-2.567383-0.077148-10.106934-2.187012-10.106934-2.187012    s-0.210449,13.743652,0,13.958008c0.040527,0.048828-0.032715,0.097168,0,0.145996    c0.032227,0.010254,2.17041,2.158203,4.356934,2.158203c0,0,91.384277,0.008301,91.611328,0    c0.574707,0.02832,1.093262-0.137695,1.644043,0h0.10498c3.434082,0,6.219727,3.342773,6.219727,7.452637    c0,4.120117-2.785645,7.464844-6.219727,7.464844c0,0-67.655273,0.340332-87.610352,0    c-2.591797-0.04834-10.106934-2.391113-10.106934-2.391113v13.897461c1.24707,1.467773,2.486328,2.710938,5.425781,2.721191    l4.746094,0.058594c0.023926,0,87.54541,0,87.54541,0c3.434082,0,6.219727,3.342773,6.219727,7.45459    c0,4.120117-2.785645,7.462891-6.219727,7.462891h-0.412598c-0.453613,0.077148-67.688477,0-87.197754,0    c-2.60791,0-10.106934-2.749512-10.106934-2.749512s0,13.373047,0,13.537109c0,1.925293,0.453613,3.654297,4.851074,3.654297    c0.153809,0,8.713867,0,20.529785,0c10.374512,0.058594,23.259277,0.04834,35.180176,0    c18.812988,0,36.046875-0.058594,36.378906,0h0.777344c3.434082,0,6.219727,3.342773,6.219727,7.45459    c0,4.120117-2.785645,7.462891-6.219727,7.462891h-0.461426c-0.4375,0.068848-67.639648-0.28125-87.148926,0    c-2.640137,0.038574-10.106934-3.255371-10.106934-3.255371v37.891602c0,15.889648,19.015137,39.238281,19.015137,39.238281    v-40.03125c0-3.895508,3.207031-7.0625,6.883789-7.0625c3.685059,0,6.665527,3.166992,6.665527,7.0625v47.571289    c5.790527,2.21875,12.066895,3.482422,18.65918,3.482422h4.227051v-51.053711c0-3.895508,3.190918-7.0625,6.875977-7.0625    c3.676758,0,6.665039,3.166992,6.665039,7.0625v51.053711h22.878418v-51.053711c0-3.895508,3.207031-7.0625,6.883789-7.0625    s6.665527,3.166992,6.665527,7.0625v51.053711H256h11.394531v-51.053711c0-3.895508,2.988281-7.0625,6.665039-7.0625    s6.883789,3.166992,6.883789,7.0625v51.053711h22.878906v-51.053711c0-3.895508,2.988281-7.0625,6.665039-7.0625    c3.68457,0,6.753906,3.166992,6.753906,7.0625v51.053711h4.349609c6.591797,0,12.868164-1.263672,18.65918-3.482422v-47.571289    c0-3.895508,2.979492-7.0625,6.665039-7.0625c3.676758,0,6.883789,3.166992,6.883789,7.0625v40.03125    c0,0,19.015625-23.348633,19.015625-39.238281v-37.891602c0,0-7.466797,3.293945-10.107422,3.255371    c-19.509766-0.28125-86.711914,0.068848-87.148438,0h-0.461914c-3.433594,0-6.219727-3.342773-6.219727-7.462891    c0-4.111816,2.786133-7.45459,6.219727-7.45459h0.777344c0.332031-0.058594,17.56543,0,36.378906,0    c11.920898,0.04834,24.805664,0.058594,35.180664,0c11.81543,0,20.375977,0,20.529297,0    c4.397461,0,4.851562-1.729004,4.851562-3.654297c0-0.164062,0-13.537109,0-13.537109s-7.5,2.749512-10.107422,2.749512    c-19.509766,0-86.744141,0.077148-87.197266,0h-0.413086c-3.433594,0-6.219727-3.342773-6.219727-7.462891    c0-4.111816,2.786133-7.45459,6.219727-7.45459c0,0,87.521484,0,87.545898,0h4.745117    c2.94043-0.010254,4.178711-1.312012,5.426758-2.779785v-13.897461c0,0-7.515625,2.342773-10.107422,2.391113    c-19.955078,0.340332-87.610352,0-87.610352,0c-3.433594,0-6.219727-3.344727-6.219727-7.464844    c0-4.109863,2.786133-7.452637,6.219727-7.452637h0.105469c0.549805-0.137695,1.068359,0.02832,1.643555,0    c0.226562,0.008301,91.611328,0,91.611328,0c2.186523,0,4.324219-2.147949,4.357422-2.158203    c0.032227-0.048828-0.041016-0.097168,0-0.145996C373.024414,178.337402,372.814453,164.59375,372.814453,164.59375z" fill="url(#SVGID_46_)"/><g><linearGradient gradientTransform="matrix(1 0 0 1 0 33.117188)" gradientUnits="userSpaceOnUse" id="SVGID_47_" x1="201.29834" x2="201.29834" y1="-33.640625" y2="27.875408"><stop offset="0" style="stop-color:#FFFFFF;stop-opacity:0"/><stop offset="0.339394" style="stop-color:#FFFFFF"/><stop offset="0.684848" style="stop-color:#FFFFFF"/><stop offset="1" style="stop-color:#FFFFFF;stop-opacity:0"/></linearGradient><path d="M201.293945,61.703613c-4.591797,0-8.325195-3.522949-8.325195-7.855957V0     h1.667969v50.980957c0,3.90332,2.972656,7.069824,6.657227,7.069824c3.668945,0,6.94043-3.166504,6.94043-7.069824V0h1.393066     v53.847656C209.627441,58.180664,205.885742,61.703613,201.293945,61.703613z" fill="url(#SVGID_47_)" opacity="0.8"/><linearGradient gradientTransform="matrix(1 0 0 1 0 33.117188)" gradientUnits="userSpaceOnUse" id="SVGID_48_" x1="237.721191" x2="237.721191" y1="-33.199219" y2="28.240673"><stop offset="0" style="stop-color:#FFFFFF;stop-opacity:0"/><stop offset="0.339394" style="stop-color:#FFFFFF"/><stop offset="0.684848" style="stop-color:#FFFFFF"/><stop offset="1" style="stop-color:#FFFFFF;stop-opacity:0"/></linearGradient><path d="M237.72168,61.703613c-4.600098,0-8.333496-3.522949-8.333496-7.855957V0h1.667969     v50.980957c0,3.90332,2.980469,7.069824,6.665527,7.069824c3.676758,0,6.948242-3.166504,6.948242-7.069824V0h1.384766v53.847656     C246.054688,58.180664,242.313477,61.703613,237.72168,61.703613z" fill="url(#SVGID_48_)" opacity="0.8"/><linearGradient gradientTransform="matrix(1 0 0 1 0 33.117188)" gradientUnits="userSpaceOnUse" id="SVGID_49_" x1="274.144531" x2="274.144531" y1="-33.722656" y2="28.250599"><stop offset="0" style="stop-color:#FFFFFF;stop-opacity:0"/><stop offset="0.339394" style="stop-color:#FFFFFF"/><stop offset="0.684848" style="stop-color:#FFFFFF"/><stop offset="1" style="stop-color:#FFFFFF;stop-opacity:0"/></linearGradient><path d="M274.140625,61.703613c-4.599609,0-8.325195-3.522949-8.325195-7.855957V0     h1.514648v50.980957c0,3.90332,3.133789,7.069824,6.810547,7.069824c3.685547,0,6.665039-3.166504,6.665039-7.069824V0h1.668945     v53.847656C282.474609,58.180664,278.741211,61.703613,274.140625,61.703613z" fill="url(#SVGID_49_)" opacity="0.8"/><linearGradient gradientTransform="matrix(1 0 0 1 0 33.117188)" gradientUnits="userSpaceOnUse" id="SVGID_50_" x1="310.576172" x2="310.576172" y1="-33.370605" y2="28.259705"><stop offset="0" style="stop-color:#FFFFFF;stop-opacity:0"/><stop offset="0.339394" style="stop-color:#FFFFFF"/><stop offset="0.684848" style="stop-color:#FFFFFF"/><stop offset="1" style="stop-color:#FFFFFF;stop-opacity:0"/></linearGradient><path d="M310.576172,61.703613c-4.599609,0-8.333008-3.522949-8.333008-7.855957V0     h1.522461v50.980957c0,3.90332,3.125977,7.069824,6.810547,7.069824c3.668945,0,6.665039-3.166504,6.665039-7.069824V0h1.668945     v53.847656C318.910156,58.180664,315.167969,61.703613,310.576172,61.703613z" fill="url(#SVGID_50_)" opacity="0.8"/><linearGradient gradientTransform="matrix(1 0 0 1 0 33.117188)" gradientUnits="userSpaceOnUse" id="SVGID_51_" x1="232.419922" x2="245.57341" y1="-4.017578" y2="-4.017578"><stop offset="0.012121" style="stop-color:#19191A"/><stop offset="0.315152" style="stop-color:#626266"/><stop offset="0.757576" style="stop-color:#626266"/></linearGradient><path d="M231.056152,0.178223v50.802734c0,0.242676,1.044922,7.166992,6.811035,7.037598     c3.604004-0.088867,6.802734-3.190918,6.802734-7.037598V5.337402l0,0v44.088379c0,3.515137-2.785645,6.357422-5.733398,6.357422     c-2.948242,0-5.320801-2.842285-5.320801-6.357422V5.337402L231.056152,0.178223z" fill="url(#SVGID_51_)"/><linearGradient gradientTransform="matrix(1 0 0 1 0 33.117188)" gradientUnits="userSpaceOnUse" id="SVGID_52_" x1="267.541016" x2="279.197327" y1="-4.017578" y2="-4.017578"><stop offset="0.242424" style="stop-color:#19191A"/><stop offset="0.684848" style="stop-color:#19191A"/><stop offset="1" style="stop-color:#626266"/></linearGradient><path d="M280.805664,0.178223v50.802734c0,0.242676-1.036133,7.166992-6.802734,7.037598     c-3.603516-0.088867-6.672852-3.190918-6.672852-7.037598V5.337402l0,0v44.088379c0,3.515137,2.65625,6.357422,5.604492,6.357422     c2.939453,0,5.320312-2.842285,5.320312-6.357422V5.337402L280.805664,0.178223z" fill="url(#SVGID_52_)"/><linearGradient gradientTransform="matrix(1 0 0 1 0 33.117188)" gradientUnits="userSpaceOnUse" id="SVGID_53_" x1="160.862793" x2="173.8125" y1="1.399414" y2="1.399414"><stop offset="0.012121" style="stop-color:#19191A"/><stop offset="0.315152" style="stop-color:#626266"/><stop offset="0.757576" style="stop-color:#626266"/><stop offset="0.806061" style="stop-color:#313133"/></linearGradient><path d="M166.842773,55.76709c-2.591797,0-4.697266-2.057129-4.697266-4.600098V15.95459     c-0.461914-0.842285-2.696777-3.57959-3.944336-4.972656v39.999023c0,3.90332,2.980469,7.069824,6.657227,7.069824     c3.020996,0,6.29248-3.214844,6.29248-5.077637C170.446289,54.617188,168.77832,55.76709,166.842773,55.76709z" fill="url(#SVGID_53_)"/><linearGradient gradientTransform="matrix(1 0 0 1 0 33.117188)" gradientUnits="userSpaceOnUse" id="SVGID_54_" x1="340.168945" x2="350.925385" y1="1.413086" y2="1.36002"><stop offset="0.242424" style="stop-color:#19191A"/><stop offset="0.684848" style="stop-color:#19191A"/><stop offset="1" style="stop-color:#626266"/></linearGradient><path d="M345.011719,55.734863c2.591797,0,4.689453-2.057129,4.689453-4.600098V15.921875     c0.460938-0.841797,2.720703-3.57959,3.959961-4.980469v40.006836c0,3.903809-2.988281,7.070312-6.673828,7.070312     c-3.012695,0-6.793945-2.875-6.793945-6.373535C340.914062,53.289062,343.068359,55.734863,345.011719,55.734863z" fill="url(#SVGID_54_)"/><linearGradient gradientTransform="matrix(1 0 0 1 0 33.117188)" gradientUnits="userSpaceOnUse" id="SVGID_55_" x1="196.002441" x2="208.750214" y1="-4.091797" y2="-4.091797"><stop offset="0.012121" style="stop-color:#19191A"/><stop offset="0.315152" style="stop-color:#626266"/><stop offset="0.757576" style="stop-color:#626266"/></linearGradient><path d="M203.197266,55.581055c-2.235352,0-4.049316-1.539062-4.535156-3.563477     c-0.324219-0.817871-0.559082-1.725098-0.559082-2.777832V5.150879L194.636719,0v50.980957     c0,3.90332,2.98877,7.069824,6.665527,7.069824c3.611816,0,6.827148-3.077148,6.932129-6.883789     C208.129395,53.612793,205.772461,55.581055,203.197266,55.581055z" fill="url(#SVGID_55_)"/><linearGradient gradientTransform="matrix(1 0 0 1 0 33.117188)" gradientUnits="userSpaceOnUse" id="SVGID_56_" x1="304.932617" x2="314.95874" y1="-4.091797" y2="-4.091797"><stop offset="0.242424" style="stop-color:#19191A"/><stop offset="0.684848" style="stop-color:#19191A"/><stop offset="1" style="stop-color:#626266"/></linearGradient><path d="M313.767578,5.150879v44.088867c0,1.328125-0.28418,2.486328-0.712891,3.514648     c-0.016602,0.016113-0.024414,0.040527-0.032227,0.056641c-0.705078,1.652344-1.919922,2.793945-3.725586,2.793945     c-0.129883,0-0.202148-0.072754-0.316406-0.080566c-0.121094,0-0.217773,0.056641-0.323242,0.056641     c-2.55957,0-4.802734-1.968262-4.891602-4.414062c0.088867,3.806641,3.182617,6.883789,6.810547,6.883789     c3.668945,0,6.665039-3.166504,6.665039-7.069824V0L313.767578,5.150879z" fill="url(#SVGID_56_)"/><linearGradient gradientTransform="matrix(1 0 0 -1 0 987.935547)" gradientUnits="userSpaceOnUse" id="SVGID_57_" x1="201.29834" x2="201.29834" y1="648.178711" y2="709.694275"><stop offset="0" style="stop-color:#FFFFFF;stop-opacity:0"/><stop offset="0.339394" style="stop-color:#FFFFFF"/><stop offset="0.684848" style="stop-color:#FFFFFF"/><stop offset="1" style="stop-color:#FFFFFF;stop-opacity:0"/></linearGradient><path d="M201.293945,277.530273c-4.591797,0-8.325195,3.522461-8.325195,7.855469     v53.847656h1.667969v-50.981445c0-3.90332,2.972656-7.069336,6.657227-7.069336c3.668945,0,6.883789,3.166016,6.883789,7.069336     v50.981445h1.449707v-53.847656C209.627441,281.052734,205.885742,277.530273,201.293945,277.530273z" fill="url(#SVGID_57_)" opacity="0.4"/><linearGradient gradientTransform="matrix(1 0 0 -1 0 987.935547)" gradientUnits="userSpaceOnUse" id="SVGID_58_" x1="237.721191" x2="237.721191" y1="648.620117" y2="710.059509"><stop offset="0" style="stop-color:#FFFFFF;stop-opacity:0"/><stop offset="0.339394" style="stop-color:#FFFFFF"/><stop offset="0.684848" style="stop-color:#FFFFFF"/><stop offset="1" style="stop-color:#FFFFFF;stop-opacity:0"/></linearGradient><path d="M237.72168,277.530273c-4.600098,0-8.333496,3.522461-8.333496,7.855469v53.847656     h1.667969v-50.981445c0-3.90332,2.980469-7.069336,6.665527-7.069336c3.676758,0,6.883789,3.166016,6.883789,7.069336v50.981445     h1.449219v-53.847656C246.054688,281.052734,242.313477,277.530273,237.72168,277.530273z" fill="url(#SVGID_58_)" opacity="0.4"/><linearGradient gradientTransform="matrix(1 0 0 -1 0 987.935547)" gradientUnits="userSpaceOnUse" id="SVGID_59_" x1="274.146484" x2="274.146484" y1="648.09668" y2="710.069458"><stop offset="0" style="stop-color:#FFFFFF;stop-opacity:0"/><stop offset="0.339394" style="stop-color:#FFFFFF"/><stop offset="0.684848" style="stop-color:#FFFFFF"/><stop offset="1" style="stop-color:#FFFFFF;stop-opacity:0"/></linearGradient><path d="M274.140625,277.530273c-4.599609,0-8.325195,3.522461-8.325195,7.855469     v53.847656h1.579102v-50.981445c0-3.90332,3.069336-7.069336,6.746094-7.069336c3.685547,0,6.802734,3.166016,6.802734,7.069336     v50.981445h1.53125v-53.847656C282.474609,281.052734,278.741211,277.530273,274.140625,277.530273z" fill="url(#SVGID_59_)" opacity="0.4"/><linearGradient gradientTransform="matrix(1 0 0 -1 0 987.935547)" gradientUnits="userSpaceOnUse" id="SVGID_60_" x1="310.578125" x2="310.578125" y1="648.448242" y2="710.078064"><stop offset="0" style="stop-color:#FFFFFF;stop-opacity:0"/><stop offset="0.339394" style="stop-color:#FFFFFF"/><stop offset="0.684848" style="stop-color:#FFFFFF"/><stop offset="1" style="stop-color:#FFFFFF;stop-opacity:0"/></linearGradient><path d="M310.576172,277.530273c-4.599609,0-8.333008,3.522461-8.333008,7.855469     v53.847656h1.579102v-50.981445c0-3.90332,3.069336-7.069336,6.753906-7.069336c3.668945,0,6.665039,3.166016,6.665039,7.069336     v50.981445h1.668945v-53.847656C318.910156,281.052734,315.167969,277.530273,310.576172,277.530273z" fill="url(#SVGID_60_)" opacity="0.4"/><linearGradient gradientUnits="userSpaceOnUse" id="SVGID_61_" x1="237.830566" x2="237.830566" y1="281.704102" y2="338.260437"><stop offset="0" style="stop-color:#000000"/><stop offset="1" style="stop-color:#313133"/></linearGradient><path d="M231.056152,339.054688v-50.802734c0-0.242188,1.044922-7.166992,6.811035-7.037109     c3.604004,0.088867,6.738281,3.19043,6.738281,7.037109v45.644531l0,0v-44.088867     c0-3.514648-2.721191-6.357422-5.668945-6.357422c-2.948242,0-5.320801,2.842773-5.320801,6.357422v44.088867     L231.056152,339.054688z" fill="url(#SVGID_61_)"/><linearGradient gradientUnits="userSpaceOnUse" id="SVGID_62_" x1="274.168945" x2="274.168945" y1="281.212891" y2="338.801117"><stop offset="0" style="stop-color:#000000"/><stop offset="1" style="stop-color:#313133"/></linearGradient><path d="M280.943359,339.054688v-50.802734c0-0.242188-1.173828-7.166992-6.94043-7.037109     c-3.603516,0.088867-6.608398,3.19043-6.608398,7.037109v45.644531l0,0v-44.088867     c0-3.514648,2.591797-6.357422,5.540039-6.357422c2.939453,0,5.320312,2.842773,5.320312,6.357422v44.088867     L280.943359,339.054688z" fill="url(#SVGID_62_)"/><linearGradient gradientUnits="userSpaceOnUse" id="SVGID_63_" x1="164.67627" x2="164.67627" y1="281.444336" y2="332.479156"><stop offset="0" style="stop-color:#000000"/><stop offset="1" style="stop-color:#313133"/></linearGradient><path d="M166.842773,283.46582c-2.591797,0-4.697266,2.057617-4.697266,4.600586v35.212891     c-0.461914,0.841797-2.696777,3.579102-3.944336,4.97168v-39.999023c0-3.90332,2.980469-7.069336,6.657227-7.069336     c3.020996,0,6.29248,3.214844,6.29248,5.077148C170.446289,284.616211,168.77832,283.46582,166.842773,283.46582z" fill="url(#SVGID_63_)"/><linearGradient gradientUnits="userSpaceOnUse" id="SVGID_64_" x1="347.169922" x2="347.169922" y1="281.706055" y2="334.053284"><stop offset="0" style="stop-color:#000000"/><stop offset="1" style="stop-color:#313133"/></linearGradient><path d="M345.011719,283.498047c2.591797,0,4.689453,2.057617,4.689453,4.600586v35.212891     c0.460938,0.841797,2.704102,3.579102,3.943359,4.972656v-39.999023c0-3.904297-2.97168-7.070312-6.657227-7.070312     c-3.012695,0-6.291992,3.214844-6.291992,5.078125C341.416016,284.648438,343.068359,283.498047,345.011719,283.498047z" fill="url(#SVGID_64_)"/><linearGradient gradientUnits="userSpaceOnUse" id="SVGID_65_" x1="201.407227" x2="201.407227" y1="281.706055" y2="337.720703"><stop offset="0" style="stop-color:#000000"/><stop offset="1" style="stop-color:#313133"/></linearGradient><path d="M203.197266,283.652344c-2.235352,0-4.049316,1.539062-4.535156,3.563477     c-0.324219,0.818359-0.559082,1.724609-0.559082,2.777344v44.088867l-3.466309,5.151367v-50.981445     c0-3.90332,2.98877-7.069336,6.665527-7.069336c3.611816,0,6.770508,3.077148,6.875488,6.883789     C208.072754,285.620117,205.772461,283.652344,203.197266,283.652344z" fill="url(#SVGID_65_)"/><linearGradient gradientUnits="userSpaceOnUse" id="SVGID_66_" x1="310.53125" x2="310.53125" y1="282.229492" y2="338.76944"><stop offset="0" style="stop-color:#000000"/><stop offset="1" style="stop-color:#313133"/></linearGradient><path d="M313.767578,334.082031v-44.088867c0-1.328125-0.28418-2.485352-0.712891-3.514648     c-0.016602-0.015625-0.024414-0.040039-0.032227-0.056641c-0.705078-1.652344-1.919922-2.793945-3.725586-2.793945     c-0.129883,0-0.202148,0.073242-0.316406,0.081055c-0.121094,0-0.217773-0.056641-0.323242-0.056641     c-2.55957,0-4.746094,1.967773-4.834961,4.414062c0.088867-3.806641,3.125977-6.883789,6.753906-6.883789     c3.668945,0,6.665039,3.166016,6.665039,7.069336v50.981445L313.767578,334.082031z" fill="url(#SVGID_66_)"/></g><g><linearGradient gradientUnits="userSpaceOnUse" id="SVGID_67_" x1="191.251465" x2="191.251465" y1="245.082031" y2="253.27121"><stop offset="0" style="stop-color:#313133"/><stop offset="1" style="stop-color:#626266"/></linearGradient><path d="M243.317383,246.908203c0-2.071289-0.979492-3.869141-2.461914-5.219727     c-0.299316,3.099609-2.405273,5.549805-5.04541,5.549805H143.65625c-2.745117,0.631348-4.470215,1.963867-4.470215,3.508789     c0,0.145508,1.117676,3.896973,4.470215,3.896973h92.70459C241.130859,254.644043,243.317383,249.958984,243.317383,246.908203z" fill="url(#SVGID_67_)"/><linearGradient gradientUnits="userSpaceOnUse" id="SVGID_68_" x1="191.251465" x2="191.251465" y1="215.639648" y2="223.804443"><stop offset="0" style="stop-color:#313133"/><stop offset="1" style="stop-color:#626266"/></linearGradient><path d="M243.317383,217.447266c0-2.050781-1.02832-3.838379-2.550781-5.190918     c-0.056641,3.411621-2.33252,6.170898-5.150879,6.170898h-92.088867c-2.793945,0.554688-4.34082,1.790039-4.34082,3.207031     c0,1.925781,0.242676,3.539062,4.705078,3.539062c0.510254,0,92.26709,0,92.26709,0     c0.956055,0,1.84668-0.224609,2.697266-0.516113C238.855469,224.657227,243.317383,222.421875,243.317383,217.447266z" fill="url(#SVGID_68_)"/><linearGradient gradientUnits="userSpaceOnUse" id="SVGID_69_" x1="191.231934" x2="191.231934" y1="186.028809" y2="194.285889"><stop offset="0" style="stop-color:#313133"/><stop offset="1" style="stop-color:#626266"/></linearGradient><path d="M236.19873,195.67041c4.656738,0,7.118652-4.723633,7.118652-7.774902     c0-2.089355-0.979492-3.91748-2.461914-5.288086c0.040527,0.242676,0.121582,0.447266,0.121582,0.69043     c0,3.470215-2.324219,6.288574-5.183105,6.288574h-91.951172v0.066406c-2.793945,0.506348-4.656738,1.624023-4.656738,2.915527     c0,0.137695-0.089355,0.253418,0,0.380859l0,0c1.263184,1.46582,2.299805,2.710938,5.280273,2.721191h4.82666     C149.325195,195.67041,236.19873,195.67041,236.19873,195.67041z" fill="url(#SVGID_69_)"/><linearGradient gradientUnits="userSpaceOnUse" id="SVGID_70_" x1="191.201172" x2="191.201172" y1="156.89502" y2="165.144379"><stop offset="0" style="stop-color:#313133"/><stop offset="1" style="stop-color:#626266"/></linearGradient><path d="M243.317383,158.791504c0-2.371094-1.149902-4.100098-2.907227-5.314941     c0.129883,0.494141,0.324219,0.97168,0.324219,1.524414c0,3.470703-2.316406,6.288574-5.166992,6.288574h-92.267578     c-2.672363,0.46582-4.089844,1.458008-4.11377,2.585449c0,0-0.227051,0.378906,0,0.591309     c0.040527,0.048828-0.032715,0.097168,0,0.145996c0.032227,0.010254-0.032715,0.030273,0,0.040527     c1.149902,1.010254,1.992188,1.874512,4.210938,1.874512h92.712891     C241.130859,166.527344,243.317383,161.842285,243.317383,158.791504z" fill="url(#SVGID_70_)"/><linearGradient gradientUnits="userSpaceOnUse" id="SVGID_71_" x1="191.251465" x2="191.251465" y1="98.222168" y2="107.198067"><stop offset="0" style="stop-color:#313133"/><stop offset="1" style="stop-color:#626266"/></linearGradient><path d="M243.317383,99.965332c0-2.196777-1.133789-4.082031-2.801758-5.462402     c0.258789,0.76709,0.437012,1.613281,0.437012,2.498047c0,3.458008-2.324219,6.869629-5.183105,6.869629h-92.080566     c-2.794434,0.378906-4.50293,1.214844-4.50293,2.187012c0,0.961426,1.708496,1.797852,4.50293,2.17627v0.040527     c0.04834,0,0.121094,0.007812,0.177734,0.018066c0.972168,0.097168,1.968262,0.20459,2.867188,0.273438     c0.04834,0.008301,0.097168,0.008301,0.145508,0.008301c0.939453,0.088867,1.765625,0.137695,2.348633,0.127441     c20.262695-0.291504,87.092285,0,87.092285,0C241.536133,108.70166,243.317383,103.016602,243.317383,99.965332z" fill="url(#SVGID_71_)"/><linearGradient gradientUnits="userSpaceOnUse" id="SVGID_72_" x1="139.811523" x2="242.858658" y1="105.975586" y2="105.975586"><stop offset="0" style="stop-color:#FFFFFF;stop-opacity:0"/><stop offset="0.339394" style="stop-color:#FFFFFF"/><stop offset="0.684848" style="stop-color:#FFFFFF"/><stop offset="1" style="stop-color:#FFFFFF;stop-opacity:0"/></linearGradient><path d="M243.171875,101.597168c-0.372559,2.984375-2.575195,6.871582-6.851562,6.871582     l-97.134277,0.008301v1.876465h97.134277c4.689453,0,6.99707-4.723145,6.99707-7.73584     C243.317383,102.26709,243.212402,101.947266,243.171875,101.597168z" fill="url(#SVGID_72_)" opacity="0.5"/><linearGradient gradientUnits="userSpaceOnUse" id="SVGID_73_" x1="139.811523" x2="242.858658" y1="135.085938" y2="135.085938"><stop offset="0" style="stop-color:#FFFFFF;stop-opacity:0"/><stop offset="0.339394" style="stop-color:#FFFFFF"/><stop offset="0.684848" style="stop-color:#FFFFFF"/><stop offset="1" style="stop-color:#FFFFFF;stop-opacity:0"/></linearGradient><path d="M243.171875,130.70752c-0.372559,2.984375-2.575195,6.871582-6.851562,6.871582     l-97.134277,0.010254v1.874512h97.134277c4.689453,0,6.99707-4.723145,6.99707-7.73584     C243.317383,131.379883,243.212402,131.047852,243.171875,130.70752z" fill="url(#SVGID_73_)" opacity="0.5"/><linearGradient gradientUnits="userSpaceOnUse" id="SVGID_74_" x1="139.811523" x2="242.858658" y1="164.374023" y2="164.374023"><stop offset="0" style="stop-color:#FFFFFF;stop-opacity:0"/><stop offset="0.339394" style="stop-color:#FFFFFF"/><stop offset="0.684848" style="stop-color:#FFFFFF"/><stop offset="1" style="stop-color:#FFFFFF;stop-opacity:0"/></linearGradient><path d="M243.171875,159.996094c-0.372559,2.984375-2.575195,6.871582-6.851562,6.871582     l-97.134277,0.010254v1.874512h97.134277c4.689453,0,6.99707-4.723145,6.99707-7.73584     C243.317383,160.667969,243.212402,160.346191,243.171875,159.996094z" fill="url(#SVGID_74_)" opacity="0.5"/><linearGradient gradientUnits="userSpaceOnUse" id="SVGID_75_" x1="139.811523" x2="242.858658" y1="193.098633" y2="193.098633"><stop offset="0" style="stop-color:#FFFFFF;stop-opacity:0"/><stop offset="0.339394" style="stop-color:#FFFFFF"/><stop offset="0.684848" style="stop-color:#FFFFFF"/><stop offset="1" style="stop-color:#FFFFFF;stop-opacity:0"/></linearGradient><path d="M243.171875,188.72168c-0.372559,2.982422-2.575195,6.869629-6.851562,6.869629     l-97.134277,0.010254v1.874512h97.134277c4.689453,0,6.99707-4.721191,6.99707-7.733887     C243.317383,189.381836,243.212402,189.062012,243.171875,188.72168z" fill="url(#SVGID_75_)" opacity="0.5"/><linearGradient gradientUnits="userSpaceOnUse" id="SVGID_76_" x1="139.811523" x2="242.858658" y1="222.261719" y2="222.261719"><stop offset="0" style="stop-color:#FFFFFF;stop-opacity:0"/><stop offset="0.339394" style="stop-color:#FFFFFF"/><stop offset="0.684848" style="stop-color:#FFFFFF"/><stop offset="1" style="stop-color:#FFFFFF;stop-opacity:0"/></linearGradient><path d="M243.171875,217.884766c-0.372559,2.982422-2.575195,6.869629-6.851562,6.869629     l-97.134277,0.010254v1.874512h97.134277c4.689453,0,6.99707-4.721191,6.99707-7.733887     C243.317383,218.554688,243.212402,218.225098,243.171875,217.884766z" fill="url(#SVGID_76_)" opacity="0.5"/><linearGradient gradientUnits="userSpaceOnUse" id="SVGID_77_" x1="139.811523" x2="242.858658" y1="252.549805" y2="252.549805"><stop offset="0" style="stop-color:#FFFFFF;stop-opacity:0"/><stop offset="0.339394" style="stop-color:#FFFFFF"/><stop offset="0.684848" style="stop-color:#FFFFFF"/><stop offset="1" style="stop-color:#FFFFFF;stop-opacity:0"/></linearGradient><path d="M243.171875,248.171387c-0.372559,2.982422-2.575195,6.869629-6.851562,6.869629     l-97.134277,0.010254v1.876953h97.134277c4.689453,0,6.99707-4.723633,6.99707-7.736328     C243.317383,248.831543,243.212402,248.511719,243.171875,248.171387z" fill="url(#SVGID_77_)" opacity="0.5"/><linearGradient gradientTransform="matrix(-1 0 0 1 1187.060547 0)" gradientUnits="userSpaceOnUse" id="SVGID_78_" x1="866.207031" x2="866.207031" y1="244.585938" y2="252.775421"><stop offset="0" style="stop-color:#313133"/><stop offset="1" style="stop-color:#626266"/></linearGradient><path d="M268.892578,246.412109c0-2.069336,0.980469-3.867188,2.461914-5.219727     c0.299805,3.102051,2.405273,5.549805,5.045898,5.549805h92.154297c2.745117,0.631348,4.259766,1.963867,4.259766,3.508789     c0,0.145508-0.899414,3.897461-4.259766,3.897461h-92.705078C271.080078,254.148438,268.892578,249.463379,268.892578,246.412109     z" fill="url(#SVGID_78_)"/><linearGradient gradientTransform="matrix(-1 0 0 1 1187.060547 0)" gradientUnits="userSpaceOnUse" id="SVGID_79_" x1="866.207031" x2="866.207031" y1="215.14502" y2="223.308578"><stop offset="0" style="stop-color:#313133"/><stop offset="1" style="stop-color:#626266"/></linearGradient><path d="M268.892578,216.951172c0-2.050781,1.029297-3.838379,2.551758-5.188965     c0.056641,3.409668,2.332031,6.171387,5.150391,6.171387h92.09668c2.786133,0.552734,4.123047,1.787598,4.123047,3.207031     c0,1.92334-0.024414,3.536621-4.495117,3.536621c-0.501953,0-92.267578,0-92.267578,0     c-0.955078,0-1.845703-0.224609-2.696289-0.516113C273.355469,224.161133,268.892578,221.925781,268.892578,216.951172z" fill="url(#SVGID_79_)"/><linearGradient gradientTransform="matrix(-1 0 0 1 1187.060547 0)" gradientUnits="userSpaceOnUse" id="SVGID_80_" x1="866.1875" x2="866.1875" y1="185.53418" y2="193.790024"><stop offset="0" style="stop-color:#313133"/><stop offset="1" style="stop-color:#626266"/></linearGradient><path d="M276.011719,195.174316c-4.657227,0-7.119141-4.723633-7.119141-7.774902     c0-2.089355,0.980469-3.91748,2.461914-5.286133c-0.040039,0.243164-0.113281,0.445312-0.113281,0.688477     c0,3.470215,2.316406,6.288574,5.175781,6.288574h91.951172v0.068848c2.793945,0.503906,4.446289,1.621582,4.446289,2.915527     c0,0.135254,0.088867,0.250977,0,0.378418l0,0c-1.263672,1.467773-2.089844,2.710938-5.070312,2.721191h-4.826172     C362.893555,195.174316,276.011719,195.174316,276.011719,195.174316z" fill="url(#SVGID_80_)"/><linearGradient gradientTransform="matrix(-1 0 0 1 1187.060547 0)" gradientUnits="userSpaceOnUse" id="SVGID_81_" x1="866.15625" x2="866.15625" y1="156.398926" y2="164.648285"><stop offset="0" style="stop-color:#313133"/><stop offset="1" style="stop-color:#626266"/></linearGradient><path d="M268.892578,158.29541c0-2.371094,1.150391-4.100098,2.908203-5.314941     c-0.129883,0.496094-0.324219,0.972168-0.324219,1.524902c0,3.470215,2.316406,6.288574,5.166992,6.288574h92.266602     c2.672852,0.465332,3.879883,1.45752,3.904297,2.585449c0,0,0.226562,0.378418,0,0.593262     c-0.041016,0.04834,0.032227,0.097168,0,0.145508c-0.033203,0.008301,0.032227,0.02832,0,0.038574     c-1.150391,1.010254-1.774414,1.874512-4.000977,1.874512h-92.705078     C271.080078,166.03125,268.892578,161.348633,268.892578,158.29541z" fill="url(#SVGID_81_)"/><linearGradient gradientTransform="matrix(-1 0 0 1 1187.060547 0)" gradientUnits="userSpaceOnUse" id="SVGID_82_" x1="866.207031" x2="866.207031" y1="97.726074" y2="106.701973"><stop offset="0" style="stop-color:#313133"/><stop offset="1" style="stop-color:#626266"/></linearGradient><path d="M268.892578,99.469238c0-2.196777,1.133789-4.081543,2.802734-5.462402     c-0.259766,0.76709-0.429688,1.613281-0.429688,2.498047c0,3.460449,2.316406,6.869629,5.174805,6.869629h92.097656     c2.777344,0.380859,4.276367,1.214844,4.276367,2.187012c0,0.963379-1.499023,1.797852-4.276367,2.178223v0.038574     c-0.073242,0-0.137695,0.010254-0.194336,0.018066c-0.97168,0.097168-1.967773,0.20459-2.867188,0.273438     c-0.048828,0.010254-0.088867,0.010254-0.137695,0.010254c-0.947266,0.086914-1.78125,0.135742-2.356445,0.125488     c-20.262695-0.291504-87.091797,0-87.091797,0C270.674805,108.205566,268.892578,102.520508,268.892578,99.469238z" fill="url(#SVGID_82_)"/><linearGradient gradientTransform="matrix(-1 0 0 1 1187.060547 0)" gradientUnits="userSpaceOnUse" id="SVGID_83_" x1="814.870117" x2="917.709961" y1="105.479492" y2="105.479492"><stop offset="0" style="stop-color:#FFFFFF;stop-opacity:0"/><stop offset="0.339394" style="stop-color:#FFFFFF"/><stop offset="0.684848" style="stop-color:#FFFFFF"/><stop offset="1" style="stop-color:#FFFFFF;stop-opacity:0"/></linearGradient><path d="M269.039062,101.101074c0.37207,2.984375,2.575195,6.871582,6.851562,6.871582     l96.923828,0.010254v1.874512h-96.923828c-4.681641,0-6.998047-4.723145-6.998047-7.73584     C268.892578,101.770996,268.998047,101.451172,269.039062,101.101074z" fill="url(#SVGID_83_)" opacity="0.5"/><linearGradient gradientTransform="matrix(-1 0 0 1 1187.060547 0)" gradientUnits="userSpaceOnUse" id="SVGID_84_" x1="814.870117" x2="917.709961" y1="134.59082" y2="134.59082"><stop offset="0" style="stop-color:#FFFFFF;stop-opacity:0"/><stop offset="0.339394" style="stop-color:#FFFFFF"/><stop offset="0.684848" style="stop-color:#FFFFFF"/><stop offset="1" style="stop-color:#FFFFFF;stop-opacity:0"/></linearGradient><path d="M269.039062,130.213379c0.37207,2.982422,2.575195,6.869629,6.851562,6.869629     l96.923828,0.010254v1.874512h-96.923828c-4.681641,0-6.998047-4.721191-6.998047-7.733887     C268.892578,130.883789,268.998047,130.553711,269.039062,130.213379z" fill="url(#SVGID_84_)" opacity="0.5"/><linearGradient gradientTransform="matrix(-1 0 0 1 1187.060547 0)" gradientUnits="userSpaceOnUse" id="SVGID_85_" x1="814.870117" x2="917.709961" y1="163.879395" y2="163.879395"><stop offset="0" style="stop-color:#FFFFFF;stop-opacity:0"/><stop offset="0.339394" style="stop-color:#FFFFFF"/><stop offset="0.684848" style="stop-color:#FFFFFF"/><stop offset="1" style="stop-color:#FFFFFF;stop-opacity:0"/></linearGradient><path d="M269.039062,159.501953c0.37207,2.982422,2.575195,6.869629,6.851562,6.869629     l96.923828,0.010254v1.875h-96.923828c-4.681641,0-6.998047-4.72168-6.998047-7.734375     C268.892578,160.172363,268.998047,159.850098,269.039062,159.501953z" fill="url(#SVGID_85_)" opacity="0.5"/><linearGradient gradientTransform="matrix(-1 0 0 1 1187.060547 0)" gradientUnits="userSpaceOnUse" id="SVGID_86_" x1="814.870117" x2="917.709961" y1="192.604004" y2="192.604004"><stop offset="0" style="stop-color:#FFFFFF;stop-opacity:0"/><stop offset="0.339394" style="stop-color:#FFFFFF"/><stop offset="0.684848" style="stop-color:#FFFFFF"/><stop offset="1" style="stop-color:#FFFFFF;stop-opacity:0"/></linearGradient><path d="M269.039062,188.225586c0.37207,2.982422,2.575195,6.869629,6.851562,6.869629     l96.923828,0.010254v1.876953h-96.923828c-4.681641,0-6.998047-4.723633-6.998047-7.736328     C268.892578,188.885742,268.998047,188.565918,269.039062,188.225586z" fill="url(#SVGID_86_)" opacity="0.5"/><linearGradient gradientTransform="matrix(-1 0 0 1 1187.060547 0)" gradientUnits="userSpaceOnUse" id="SVGID_87_" x1="814.870117" x2="917.709961" y1="221.76709" y2="221.76709"><stop offset="0" style="stop-color:#FFFFFF;stop-opacity:0"/><stop offset="0.339394" style="stop-color:#FFFFFF"/><stop offset="0.684848" style="stop-color:#FFFFFF"/><stop offset="1" style="stop-color:#FFFFFF;stop-opacity:0"/></linearGradient><path d="M269.039062,217.388672c0.37207,2.982422,2.575195,6.869629,6.851562,6.869629     l96.923828,0.010254v1.876953h-96.923828c-4.681641,0-6.998047-4.723633-6.998047-7.736328     C268.892578,218.059082,268.998047,217.729004,269.039062,217.388672z" fill="url(#SVGID_87_)" opacity="0.5"/><linearGradient gradientTransform="matrix(-1 0 0 1 1187.060547 0)" gradientUnits="userSpaceOnUse" id="SVGID_88_" x1="814.870117" x2="917.709961" y1="252.053711" y2="252.053711"><stop offset="0" style="stop-color:#FFFFFF;stop-opacity:0"/><stop offset="0.339394" style="stop-color:#FFFFFF"/><stop offset="0.684848" style="stop-color:#FFFFFF"/><stop offset="1" style="stop-color:#FFFFFF;stop-opacity:0"/></linearGradient><path d="M269.039062,247.675293c0.37207,2.984375,2.575195,6.871582,6.851562,6.871582     l96.923828,0.008301v1.876953h-96.923828c-4.681641,0-6.998047-4.723633-6.998047-7.736328     C268.892578,248.335449,268.998047,248.015625,269.039062,247.675293z" fill="url(#SVGID_88_)" opacity="0.5"/><linearGradient gradientUnits="userSpaceOnUse" id="SVGID_89_" x1="191.251465" x2="191.251465" y1="127.300781" y2="136.335938"><stop offset="0" style="stop-color:#313133"/><stop offset="1" style="stop-color:#626266"/></linearGradient><path d="M240.062012,123.556641c0.429199,0.892578,0.745117,1.884766,0.745117,3.002441     c0,3.459961-2.308105,6.27832-5.166992,6.27832h-92.494141c-2.615723,0.455566-3.959961,1.340332-3.959961,2.36084v1.350586     c2.186523,0.398438,8.025391,1.301758,10.041992,1.301758c14.334473,0,87.092285,0,87.092285,0     c5.21582,0,6.99707-5.675293,6.99707-8.736328C243.317383,126.597656,242.005859,124.789551,240.062012,123.556641z" fill="url(#SVGID_89_)"/><linearGradient gradientUnits="userSpaceOnUse" id="SVGID_90_" x1="320.853516" x2="320.853516" y1="126.805176" y2="135.841568"><stop offset="0" style="stop-color:#313133"/><stop offset="1" style="stop-color:#626266"/></linearGradient><path d="M372.814453,134.702148c0-1.020508-1.133789-1.905273-3.75-2.36084h-92.494141     c-2.850586,0-5.166992-2.818359-5.166992-6.27832c0-1.117676,0.316406-2.109863,0.745117-3.002441     c-1.943359,1.23291-3.255859,3.041016-3.255859,5.557617c0,3.061035,1.782227,8.738281,6.998047,8.738281     c0,0,72.756836,0,87.091797,0c2.016602,0,7.636719-0.905273,9.832031-1.303711V134.702148z" fill="url(#SVGID_90_)"/></g></g></g></svg>