<?xml version="1.0" encoding="UTF-8"?>
<svg width="64px" height="64px" viewBox="0 0 36 36" version="1.1" xmlns="http://www.w3.org/2000/svg" xmlns:xlink="http://www.w3.org/1999/xlink">
    <!-- Generator: Sketch 46.1 (44463) - http://www.bohemiancoding.com/sketch -->
    <title>unity_logo</title>
    <desc>Created with Sketch.</desc>
    <defs></defs>
    <g id="Assets" stroke="none" stroke-width="1" fill="none" fill-rule="evenodd">
        <g transform="translate(-578.000000, -503.000000)" id="Group">
            <g transform="translate(578.000000, 503.000000)">
                <g id="Page-1">
                    <path d="M17.9714286,35.9428571 L17.9714286,35.9428571 C8.03428571,35.9428571 0,27.9085714 0,17.9714286 C0,8.03428571 8.03428571,0 17.9714286,0 L31.5028571,0 C34.04,0 36.0485714,2.00857143 36.0485714,4.54571429 L36.0485714,17.9714286 C36.0485714,27.9085714 28.0142857,35.9428571 17.9714286,35.9428571" id="Fill-1" fill="#45A4EC"></path>
                    <path d="M24.3142857,15.9624343 L13.7428571,15.9624343 C13.2142857,15.9624343 12.8971429,15.5406343 12.8971429,15.11672 C12.8971429,14.5881486 13.32,14.2710057 13.7428571,14.2710057 L24.3142857,14.2710057 C24.8428571,14.2710057 25.16,14.6938629 25.16,15.11672 C25.16,15.5406343 24.7371429,15.9624343 24.3142857,15.9624343 M20.2971429,20.1910057 L13.7428571,20.1910057 C13.2142857,20.1910057 12.8971429,19.7692057 12.8971429,19.3452914 C12.8971429,18.9234914 13.32,18.4995771 13.7428571,18.4995771 L20.2971429,18.4995771 C20.8257143,18.4995771 21.1428571,18.9234914 21.1428571,19.3452914 C21.1428571,19.7692057 20.8257143,20.1910057 20.2971429,20.1910057 M23.5742857,10.5710057 L14.5885714,10.5710057 C12.0514286,10.5710057 10.0428571,12.5795771 10.0428571,15.11672 L10.0428571,22.8338629 C10.0428571,23.3624343 10.4657143,23.7852914 10.9942857,23.7852914 L23.4685714,23.7852914 C26.0057143,23.7852914 28.0142857,21.77672 28.0142857,19.2406343 L28.0142857,15.11672 C28.0142857,12.5795771 26.0057143,10.5710057 23.5742857,10.5710057" id="Fill-3" fill="#FFFFFF"></path>
                </g>
            </g>
        </g>
    </g>
</svg>
