<?xml version="1.0" encoding="UTF-8"?>
<svg width="64px" height="64px" viewBox="0 0 100 100" version="1.1" xmlns="http://www.w3.org/2000/svg" xmlns:xlink="http://www.w3.org/1999/xlink">
    <!-- Generator: Sketch 44 (41411) - http://www.bohemiancoding.com/sketch -->
    <title>freshcaller-dew</title>
    <desc>Created with Sketch.</desc>
    <defs></defs>
    <g id="Page-1" stroke="none" stroke-width="1" fill="none" fill-rule="evenodd">
        <g id="freshcaller-dew" fill-rule="nonzero">
            <path d="M50,100 L50,100 C22.4,100 0,77.6 0,50 L0,50 C0,22.4 22.4,0 50,0 L87.5,0 C94.4,0 100,5.6 100,12.5 L100,50 C100,77.6 77.6,100 50,100 Z" id="Shape" fill="#CC4783"></path>
            <path d="M68.8,57.7 C65.9,57.7 63.2,57.3 60.7,56.4 C59.7,55.8 58.4,56.1 57.5,57 L52.8,61.7 C46.5,58.2 41.5,53.2 38.4,47.4 L43.4,42.6 L43.5,42.5 C44,41.7 44.4,40.5 44.1,39.5 C43.2,36.8 42.7,34 42.7,31.3 C42.7,29.5 41.4,28.2 39.6,28.2 L31.4,28.2 C29.6,28.2 28.3,29.5 28.3,31.3 C28.3,53.7 46.5,71.9 68.9,71.9 C70.7,71.9 72,70.6 72,68.8 L72,60.8 C71.9,58.9 70.6,57.7 68.8,57.7 Z" id="Shape" fill="#FFFFFF"></path>
        </g>
    </g>
</svg>