<svg xmlns="http://www.w3.org/2000/svg" width="64" height="64" viewBox="0 0 32 32">
  <g fill="none" fill-rule="evenodd" transform="translate(4 2)">
    <path fill="#DADFE3" d="M24.4755,18.8146 C24.4755,23.9926 20.2785,28.1896 15.1005,28.1896 C9.9225,28.1896 5.7255,23.9926 5.7255,18.8146 C5.7255,13.6366 9.9225,9.4396 15.1005,9.4396 C20.2785,9.4396 24.4755,13.6366 24.4755,18.8146"/>
    <g transform="translate(13 .5)">
      <polyline fill="#EDF2F1" points=".164 3.353 .164 .251 2.233 .251 2.233 3.353"/>
      <polyline stroke="#000000" stroke-width="1.5" points=".164 3.353 .164 .251 2.233 .251 2.233 3.353" stroke-linecap="round" stroke-linejoin="round"/>
    </g>
    <g transform="translate(12 .5)">
      <path fill="#EDF2F1" d="M0.1293,0.25 L4.2673,0.25"/>
      <path stroke="#000000" stroke-width="1.5" d="M0.1293,0.25 L4.2673,0.25" stroke-linecap="round" stroke-linejoin="round"/>
    </g>
    <g transform="translate(22 3.5)">
      <path fill="#EDF2F1" d="M0.0252,2.8714 L2.0942,0.8024"/>
      <path stroke="#000000" stroke-width="1.5" d="M0.0252,2.8714 L2.0942,0.8024" stroke-linecap="round" stroke-linejoin="round"/>
    </g>
    <path stroke="#6F7C87" stroke-width="1.5" d="M27.6465,17.3017 C27.6465,24.7287 21.6255,30.7497 14.1985,30.7497 C6.7705,30.7497 0.7495,24.7287 0.7495,17.3017 C0.7495,9.8747 6.7705,3.8537 14.1985,3.8537 C21.6255,3.8537 27.6465,9.8747 27.6465,17.3017 Z" stroke-linecap="round" stroke-linejoin="round"/>
    <path stroke="#6F7C87" stroke-width="1.5" d="M23.5134,17.3017 C23.5134,22.4467 19.3424,26.6167 14.1984,26.6167 C9.0534,26.6167 4.8834,22.4467 4.8834,17.3017 C4.8834,12.1567 9.0534,7.9867 14.1984,7.9867 C19.3424,7.9867 23.5134,12.1567 23.5134,17.3017 Z" stroke-linecap="round" stroke-linejoin="round"/>
    <path fill="#EDF2F1" d="M25.5392,3.5024 C25.5392,3.0354 25.1612,2.6574 24.6942,2.6574 C24.2272,2.6574 23.8492,3.0354 23.8492,3.5024 C23.8492,3.9694 24.2272,4.3474 24.6942,4.3474 C25.1612,4.3474 25.5392,3.9694 25.5392,3.5024"/>
    <path fill="#000000" d="M24.6942,1.1573 C23.4012,1.1573 22.3492,2.2093 22.3492,3.5023 C22.3492,4.7953 23.4012,5.8473 24.6942,5.8473 C25.9872,5.8473 27.0392,4.7953 27.0392,3.5023 C27.0392,2.2093 25.9872,1.1573 24.6942,1.1573 M24.6942,2.6573 C25.1612,2.6573 25.5392,3.0353 25.5392,3.5023 C25.5392,3.9693 25.1612,4.3473 24.6942,4.3473 C24.2272,4.3473 23.8492,3.9693 23.8492,3.5023 C23.8492,3.0353 24.2272,2.6573 24.6942,2.6573"/>
    <path fill="#DADFE3" d="M13.0061,18.6796 L13.9041,10.1336 C13.9411,9.7766 14.4611,9.7766 14.4981,10.1336 L15.3891,18.6156 C15.4521,19.2116 15.1031,19.8056 14.5261,19.9626 C13.7901,20.1636 13.0821,19.6566 13.0061,18.9306 C12.9971,18.8476 12.9981,18.7596 13.0061,18.6796"/>
    <path fill="#000000" d="M14.2011,9.8661 C14.0621,9.8661 13.9231,9.9551 13.9041,10.1341 L13.0061,18.6801 C12.9981,18.7591 12.9971,18.8481 13.0061,18.9311 C13.0711,19.5481 13.5921,20.0071 14.2001,20.0071 C14.3061,20.0071 14.4161,19.9931 14.5251,19.9631 C15.1031,19.8061 15.4521,19.2111 15.3891,18.6161 L14.4981,10.1341 C14.4791,9.9551 14.3401,9.8661 14.2011,9.8661"/>
  </g>
</svg>
